<?xml version="1.0" encoding="UTF-8" standalone="no"?>
<!DOCTYPE svg PUBLIC "-//W3C//DTD SVG 1.1//EN"
 "http://www.w3.org/Graphics/SVG/1.1/DTD/svg11.dtd">
<!-- Generated by graphviz version 14.1.1 (20251213.1925)
 -->
<!-- Title: pcre2cpp::basic_match_result&lt; utf &gt; Pages: 1 -->
<svg width="394pt" height="102pt"
 viewBox="0.00 0.00 394.00 102.00" xmlns="http://www.w3.org/2000/svg" xmlns:xlink="http://www.w3.org/1999/xlink">
<g id="graph0" class="graph" transform="scale(1 1) rotate(0) translate(4 98)">
<title>pcre2cpp::basic_match_result&lt; utf &gt;</title>
<!-- Node1 -->
<g id="Node000001" class="node">
<title>Node1</title>
<g id="a_Node000001"><a xlink:title="Basic container to result data of match function.">
<polygon fill="#999999" stroke="#666666" points="386,-66 268.75,-66 268.75,-34 386,-34 386,-66"/>
<text xml:space="preserve" text-anchor="start" x="276.75" y="-52.5" font-family="Helvetica,sans-Serif" font-size="10.00">pcre2cpp::basic_match</text>
<text xml:space="preserve" text-anchor="middle" x="327.38" y="-40.5" font-family="Helvetica,sans-Serif" font-size="10.00">_result&lt; utf &gt;</text>
</a>
</g>
</g>
<!-- Node2 -->
<g id="Node000002" class="node">
<title>Node2</title>
<g id="a_Node000002"><a xlink:title=" ">
<polygon fill="white" stroke="#666666" points="181.75,-94 0,-94 0,-62 181.75,-62 181.75,-94"/>
<text xml:space="preserve" text-anchor="start" x="8" y="-80.5" font-family="Helvetica,sans-Serif" font-size="10.00">static _PCRE2CPP_CONSTEXPR17</text>
<text xml:space="preserve" text-anchor="middle" x="90.88" y="-68.5" font-family="Helvetica,sans-Serif" font-size="10.00"> size_t</text>
</a>
</g>
</g>
<!-- Node2&#45;&gt;Node1 -->
<g id="edge1_Node000001_Node000002" class="edge">
<title>Node2&#45;&gt;Node1</title>
<g id="a_edge1_Node000001_Node000002"><a xlink:title=" ">
<path fill="none" stroke="#9a32cd" stroke-dasharray="5,2" d="M193.48,-65.87C219.06,-62.81 245.66,-59.64 268.28,-56.94"/>
<polygon fill="#9a32cd" stroke="#9a32cd" points="193.22,-62.37 183.71,-67.04 194.05,-69.32 193.22,-62.37"/>
</a>
</g>
<text xml:space="preserve" text-anchor="start" x="202.75" y="-70.34" font-family="Helvetica,sans-Serif" font-size="10.00" fill="grey">bad_offset</text>
</g>
<!-- Node3 -->
<g id="Node000003" class="node">
<title>Node3</title>
<g id="a_Node000003"><a xlink:title=" ">
<polygon fill="white" stroke="#666666" points="178,-44 3.75,-44 3.75,0 178,0 178,-44"/>
<text xml:space="preserve" text-anchor="start" x="11.75" y="-30.5" font-family="Helvetica,sans-Serif" font-size="10.00">variant&lt; match_error</text>
<text xml:space="preserve" text-anchor="start" x="11.75" y="-18.5" font-family="Helvetica,sans-Serif" font-size="10.00">_codes, pcre2cpp::basic</text>
<text xml:space="preserve" text-anchor="middle" x="90.88" y="-6.5" font-family="Helvetica,sans-Serif" font-size="10.00">_match_result::_value_result_data &gt;</text>
</a>
</g>
</g>
<!-- Node3&#45;&gt;Node1 -->
<g id="edge2_Node000001_Node000003" class="edge">
<title>Node3&#45;&gt;Node1</title>
<g id="a_edge2_Node000001_Node000003"><a xlink:title=" ">
<path fill="none" stroke="#9a32cd" stroke-dasharray="5,2" d="M189.35,-30.02C209.68,-32.02 230.94,-34.37 250.75,-37 256.56,-37.77 262.61,-38.66 268.64,-39.61"/>
<polygon fill="#9a32cd" stroke="#9a32cd" points="189.97,-26.56 179.68,-29.09 189.3,-33.53 189.97,-26.56"/>
</a>
</g>
<text xml:space="preserve" text-anchor="start" x="213.25" y="-42.5" font-family="Helvetica,sans-Serif" font-size="10.00" fill="grey">_data</text>
</g>
</g>
</svg>
