<?xml version="1.0" encoding="UTF-8" standalone="no"?>
<!DOCTYPE svg PUBLIC "-//W3C//DTD SVG 1.1//EN"
 "http://www.w3.org/Graphics/SVG/1.1/DTD/svg11.dtd">
<!-- Generated by graphviz version 14.1.1 (20251213.1925)
 -->
<!-- Title: pcre2cpp::basic_match_value&lt; utf &gt; Pages: 1 -->
<svg width="151pt" height="114pt"
 viewBox="0.00 0.00 151.00 114.00" xmlns="http://www.w3.org/2000/svg" xmlns:xlink="http://www.w3.org/1999/xlink">
<g id="graph0" class="graph" transform="scale(1 1) rotate(0) translate(4 110)">
<title>pcre2cpp::basic_match_value&lt; utf &gt;</title>
<!-- Node1 -->
<g id="Node000001" class="node">
<title>Node1</title>
<g id="a_Node000001"><a xlink:title="Match value container.">
<polygon fill="#999999" stroke="#666666" points="124.75,-32 7.5,-32 7.5,0 124.75,0 124.75,-32"/>
<text xml:space="preserve" text-anchor="start" x="15.5" y="-18.5" font-family="Helvetica,sans-Serif" font-size="10.00">pcre2cpp::basic_match</text>
<text xml:space="preserve" text-anchor="middle" x="66.12" y="-6.5" font-family="Helvetica,sans-Serif" font-size="10.00">_value&lt; utf &gt;</text>
</a>
</g>
</g>
<!-- Node2 -->
<g id="Node000002" class="node">
<title>Node2</title>
<g id="a_Node000002"><a xlink:title=" ">
<polygon fill="white" stroke="#666666" points="42.25,-106 0,-106 0,-86 42.25,-86 42.25,-106"/>
<text xml:space="preserve" text-anchor="middle" x="21.12" y="-92.5" font-family="Helvetica,sans-Serif" font-size="10.00">size_t</text>
</a>
</g>
</g>
<!-- Node2&#45;&gt;Node1 -->
<g id="edge1_Node000001_Node000002" class="edge">
<title>Node2&#45;&gt;Node1</title>
<g id="a_edge1_Node000001_Node000002"><a xlink:title=" ">
<path fill="none" stroke="#9a32cd" stroke-dasharray="5,2" d="M18,-74.41C17.71,-66.4 18.57,-57.38 22.38,-50 25.95,-43.07 31.72,-37.19 37.92,-32.4"/>
<polygon fill="#9a32cd" stroke="#9a32cd" points="14.51,-74.71 19.01,-84.3 21.48,-74 14.51,-74.71"/>
</a>
</g>
<text xml:space="preserve" text-anchor="start" x="25.38" y="-55.5" font-family="Helvetica,sans-Serif" font-size="10.00" fill="grey">relative_offset</text>
</g>
<!-- Node3 -->
<g id="Node000003" class="node">
<title>Node3</title>
<g id="a_Node000003"><a xlink:title=" ">
<polygon fill="white" stroke="#666666" points="143.12,-106 79.12,-106 79.12,-86 143.12,-86 143.12,-106"/>
<text xml:space="preserve" text-anchor="middle" x="111.12" y="-92.5" font-family="Helvetica,sans-Serif" font-size="10.00">string_type</text>
</a>
</g>
</g>
<!-- Node3&#45;&gt;Node1 -->
<g id="edge2_Node000001_Node000003" class="edge">
<title>Node3&#45;&gt;Node1</title>
<g id="a_edge2_Node000001_Node000003"><a xlink:title=" ">
<path fill="none" stroke="#9a32cd" stroke-dasharray="5,2" d="M102.42,-75.55C98.61,-67.5 93.92,-58.15 89.12,-50 85.66,-44.1 81.47,-37.88 77.63,-32.45"/>
<polygon fill="#9a32cd" stroke="#9a32cd" points="99.15,-76.82 106.51,-84.45 105.51,-73.9 99.15,-76.82"/>
</a>
</g>
<text xml:space="preserve" text-anchor="start" x="101.25" y="-55.5" font-family="Helvetica,sans-Serif" font-size="10.00" fill="grey">value</text>
</g>
</g>
</svg>
