<?xml version="1.0" encoding="UTF-8" standalone="no"?>
<!DOCTYPE svg PUBLIC "-//W3C//DTD SVG 1.1//EN"
 "http://www.w3.org/Graphics/SVG/1.1/DTD/svg11.dtd">
<!-- Generated by graphviz version 14.1.1 (20251213.1925)
 -->
<!-- Title: pcre2cpp::basic_match_result_exception&lt; utf &gt; Pages: 1 -->
<svg width="193pt" height="240pt"
 viewBox="0.00 0.00 193.00 240.00" xmlns="http://www.w3.org/2000/svg" xmlns:xlink="http://www.w3.org/1999/xlink">
<g id="graph0" class="graph" transform="scale(1 1) rotate(0) translate(4 236)">
<title>pcre2cpp::basic_match_result_exception&lt; utf &gt;</title>
<!-- Node1 -->
<g id="Node000001" class="node">
<title>Node1</title>
<g id="a_Node000001"><a xlink:title="match result exception class">
<polygon fill="#999999" stroke="#666666" points="179.12,-32 57.37,-32 57.37,0 179.12,0 179.12,-32"/>
<text xml:space="preserve" text-anchor="start" x="65.38" y="-18.5" font-family="Helvetica,sans-Serif" font-size="10.00">pcre2cpp::basic_match</text>
<text xml:space="preserve" text-anchor="middle" x="118.25" y="-6.5" font-family="Helvetica,sans-Serif" font-size="10.00">_result_exception&lt; utf &gt;</text>
</a>
</g>
</g>
<!-- Node2 -->
<g id="Node000002" class="node">
<title>Node2</title>
<g id="a_Node000002"><a xlink:href="../../df/d62/classpcre2cpp_1_1basic__pcre2cpp__exception.html" target="_top" xlink:title="base pcre2cpp exception class">
<polygon fill="white" stroke="#666666" points="183.25,-101 53.25,-101 53.25,-69 183.25,-69 183.25,-101"/>
<text xml:space="preserve" text-anchor="start" x="61.25" y="-87.5" font-family="Helvetica,sans-Serif" font-size="10.00">pcre2cpp::basic_pcre2cpp</text>
<text xml:space="preserve" text-anchor="middle" x="118.25" y="-75.5" font-family="Helvetica,sans-Serif" font-size="10.00">_exception&lt; utf &gt;</text>
</a>
</g>
</g>
<!-- Node2&#45;&gt;Node1 -->
<g id="edge1_Node000001_Node000002" class="edge">
<title>Node2&#45;&gt;Node1</title>
<g id="a_edge1_Node000001_Node000002"><a xlink:title=" ">
<path fill="none" stroke="#63b8ff" d="M118.25,-57.35C118.25,-48.78 118.25,-39.59 118.25,-32.14"/>
<polygon fill="#63b8ff" stroke="#63b8ff" points="114.75,-57.28 118.25,-67.28 121.75,-57.28 114.75,-57.28"/>
</a>
</g>
</g>
<!-- Node3 -->
<g id="Node000003" class="node">
<title>Node3</title>
<g id="a_Node000003"><a xlink:title=" ">
<polygon fill="white" stroke="#666666" points="92.5,-175 0,-175 0,-155 92.5,-155 92.5,-175"/>
<text xml:space="preserve" text-anchor="middle" x="46.25" y="-161.5" font-family="Helvetica,sans-Serif" font-size="10.00">std::runtime_error</text>
</a>
</g>
</g>
<!-- Node3&#45;&gt;Node2 -->
<g id="edge2_Node000002_Node000003" class="edge">
<title>Node3&#45;&gt;Node2</title>
<g id="a_edge2_Node000002_Node000003"><a xlink:title=" ">
<path fill="none" stroke="#63b8ff" d="M62.59,-146.3C75.07,-132.78 92.09,-114.34 104.02,-101.42"/>
<polygon fill="#63b8ff" stroke="#63b8ff" points="60.03,-143.91 55.82,-153.63 65.17,-148.66 60.03,-143.91"/>
</a>
</g>
</g>
<!-- Node4 -->
<g id="Node000004" class="node">
<title>Node4</title>
<g id="a_Node000004"><a xlink:title=" ">
<polygon fill="white" stroke="#666666" points="85,-232 7.5,-232 7.5,-212 85,-212 85,-232"/>
<text xml:space="preserve" text-anchor="middle" x="46.25" y="-218.5" font-family="Helvetica,sans-Serif" font-size="10.00">std::exception</text>
</a>
</g>
</g>
<!-- Node4&#45;&gt;Node3 -->
<g id="edge3_Node000003_Node000004" class="edge">
<title>Node4&#45;&gt;Node3</title>
<g id="a_edge3_Node000003_Node000004"><a xlink:title=" ">
<path fill="none" stroke="#63b8ff" d="M46.25,-200.69C46.25,-191.97 46.25,-182.22 46.25,-175.28"/>
<polygon fill="#63b8ff" stroke="#63b8ff" points="42.75,-200.4 46.25,-210.4 49.75,-200.4 42.75,-200.4"/>
</a>
</g>
</g>
<!-- Node5 -->
<g id="Node000005" class="node">
<title>Node5</title>
<g id="a_Node000005"><a xlink:title=" ">
<polygon fill="white" stroke="#666666" points="174.25,-175 110.25,-175 110.25,-155 174.25,-155 174.25,-175"/>
<text xml:space="preserve" text-anchor="middle" x="142.25" y="-161.5" font-family="Helvetica,sans-Serif" font-size="10.00">string_type</text>
</a>
</g>
</g>
<!-- Node5&#45;&gt;Node2 -->
<g id="edge4_Node000002_Node000005" class="edge">
<title>Node5&#45;&gt;Node2</title>
<g id="a_edge4_Node000002_Node000005"><a xlink:title=" ">
<path fill="none" stroke="#9a32cd" stroke-dasharray="5,2" d="M136.07,-143.91C132,-130.67 126.74,-113.59 122.99,-101.42"/>
<polygon fill="#9a32cd" stroke="#9a32cd" points="132.67,-144.77 138.96,-153.3 139.36,-142.71 132.67,-144.77"/>
</a>
</g>
<text xml:space="preserve" text-anchor="start" x="136.8" y="-124.5" font-family="Helvetica,sans-Serif" font-size="10.00" fill="grey">_message</text>
</g>
</g>
</svg>
