<?xml version="1.0" encoding="UTF-8" standalone="no"?>
<!DOCTYPE svg PUBLIC "-//W3C//DTD SVG 1.1//EN"
 "http://www.w3.org/Graphics/SVG/1.1/DTD/svg11.dtd">
<!-- Generated by graphviz version 14.1.1 (20251213.1925)
 -->
<!-- Title: pcre2cpp::utils::pcre2_data&lt; utf_type::UTF_32 &gt; Pages: 1 -->
<!--zoomable 734 -->

<svg id="main" version="1.1" xmlns="http://www.w3.org/2000/svg" xmlns:xlink="http://www.w3.org/1999/xlink" xml:space="preserve" onload="init(evt)">

<style type="text/css"><![CDATA[
.node, .edge {opacity: 0.7;}
.node.selected, .edge.selected {opacity: 1;}
.edge:hover path { stroke: red; }
.edge:hover polygon { stroke: red; fill: red; }
]]></style>

<defs>
  <circle id="rim" cx="0" cy="0" r="7"/>
  <circle id="rim2" cx="0" cy="0" r="3.5"/>
  <g id="zoomPlus">
    <use xlink:href="#rim" fill="#404040"><set attributeName="fill" to="#808080" begin="zoomplus.mouseover" end="zoomplus.mouseout"/></use>
    <path d="M-4,0h8M0,-4v8" fill="none" stroke="white" stroke-width="1.5" pointer-events="none"/>
  </g>
  <g id="zoomMin">
    <use xlink:href="#rim" fill="#404040"><set attributeName="fill" to="#808080" begin="zoomminus.mouseover" end="zoomminus.mouseout"/></use>
    <path d="M-4,0h8" fill="none" stroke="white" stroke-width="1.5" pointer-events="none"/>
  </g>
  <g id="arrowUp" transform="translate(30 24)">
    <use xlink:href="#rim"/>
    <path pointer-events="none" fill="none" stroke="white" stroke-width="1.5" d="M0,-3.0v7 M-2.5,-0.5L0,-3.0L2.5,-0.5"/>
  </g>
  <g id="arrowRight" transform="rotate(90) translate(36 -43)">
    <use xlink:href="#rim"/>
    <path pointer-events="none" fill="none" stroke="white" stroke-width="1.5" d="M0,-3.0v7 M-2.5,-0.5L0,-3.0L2.5,-0.5"/>
  </g>
  <g id="arrowDown" transform="rotate(180) translate(-30 -48)">
    <use xlink:href="#rim"/>
    <path pointer-events="none" fill="none" stroke="white" stroke-width="1.5" d="M0,-3.0v7 M-2.5,-0.5L0,-3.0L2.5,-0.5"/>
  </g>
  <g id="arrowLeft" transform="rotate(270) translate(-36 17)">
    <use xlink:href="#rim"/>
    <path pointer-events="none" fill="none" stroke="white" stroke-width="1.5" d="M0,-3.0v7 M-2.5,-0.5L0,-3.0L2.5,-0.5"/>
  </g>
  <g id="resetDef">
    <use xlink:href="#rim2" fill="#404040"><set attributeName="fill" to="#808080" begin="reset.mouseover" end="reset.mouseout"/></use>
  </g>
</defs>
<script type="application/ecmascript">
var viewWidth = 498;
var viewHeight = 734;
var sectionId = 'dynsection-1';
</script>
<script type="application/ecmascript" xlink:href="../../svg.min.js"/>
<svg id="graph" class="graph">
<g id="viewport">
<title>pcre2cpp::utils::pcre2_data&lt; utf_type::UTF_32 &gt;</title>
<!-- Node1 -->
<g id="Node000001" class="node">
<title>Node1</title>
<g id="a_Node000001"><a xlink:title="Specialization of Translation container from pcre2 library to pcre2cpp for UTF&#45;32.">
<polygon fill="#999999" stroke="#666666" points="489.5,-366.48 355,-366.48 355,-334.48 489.5,-334.48 489.5,-366.48"/>
<text xml:space="preserve" text-anchor="start" x="363" y="-352.98" font-family="Helvetica,sans-Serif" font-size="10.00">pcre2cpp::utils::pcre2</text>
<text xml:space="preserve" text-anchor="middle" x="422.25" y="-340.98" font-family="Helvetica,sans-Serif" font-size="10.00">_data&lt; utf_type::UTF_32 &gt;</text>
</a>
</g>
</g>
<!-- Node2 -->
<g id="Node000002" class="node">
<title>Node2</title>
<g id="a_Node000002"><a xlink:title=" ">
<polygon fill="white" stroke="#666666" points="181.75,-708.48 0,-708.48 0,-676.48 181.75,-676.48 181.75,-708.48"/>
<text xml:space="preserve" text-anchor="start" x="8" y="-694.98" font-family="Helvetica,sans-Serif" font-size="10.00">static _PCRE2CPP_CONSTEXPR17</text>
<text xml:space="preserve" text-anchor="middle" x="90.88" y="-682.98" font-family="Helvetica,sans-Serif" font-size="10.00"> utf_type</text>
</a>
</g>
</g>
<!-- Node2&#45;&gt;Node1 -->
<g id="edge1_Node000001_Node000002" class="edge">
<title>Node2&#45;&gt;Node1</title>
<g id="a_edge1_Node000001_Node000002"><a xlink:title=" ">
<path fill="none" stroke="#9a32cd" stroke-dasharray="5,2" d="M193.21,-707.52C241.91,-709.03 298.02,-701.63 337,-668.48 384.42,-628.16 412.17,-425.91 419.37,-366.76"/>
<polygon fill="#9a32cd" stroke="#9a32cd" points="193.64,-704.03 183.49,-707.08 193.32,-711.02 193.64,-704.03"/>
</a>
</g>
<text xml:space="preserve" text-anchor="start" x="262.75" y="-713.19" font-family="Helvetica,sans-Serif" font-size="10.00" fill="grey">uft</text>
</g>
<!-- Node3 -->
<g id="Node000003" class="node">
<title>Node3</title>
<g id="a_Node000003"><a xlink:title=" ">
<polygon fill="white" stroke="#666666" points="112,-658.48 69.75,-658.48 69.75,-638.48 112,-638.48 112,-658.48"/>
<text xml:space="preserve" text-anchor="middle" x="90.88" y="-644.98" font-family="Helvetica,sans-Serif" font-size="10.00">size_t</text>
</a>
</g>
</g>
<!-- Node3&#45;&gt;Node1 -->
<g id="edge2_Node000001_Node000003" class="edge">
<title>Node3&#45;&gt;Node1</title>
<g id="a_edge2_Node000001_Node000003"><a xlink:title=" ">
<path fill="none" stroke="#9a32cd" stroke-dasharray="5,2" d="M123.58,-648.73C182.38,-648.55 305.24,-644.91 337,-618.48 415.92,-552.82 422.02,-413.94 421.69,-366.65"/>
<polygon fill="#9a32cd" stroke="#9a32cd" points="123.9,-645.23 113.9,-648.73 123.9,-652.23 123.9,-645.23"/>
</a>
</g>
<text xml:space="preserve" text-anchor="start" x="251.12" y="-651.75" font-family="Helvetica,sans-Serif" font-size="10.00" fill="grey">utf_size</text>
</g>
<!-- Node4 -->
<g id="Node000004" class="node">
<title>Node4</title>
<g id="a_Node000004"><a xlink:title=" ">
<polygon fill="white" stroke="#666666" points="155.5,-620.48 26.25,-620.48 26.25,-564.48 155.5,-564.48 155.5,-620.48"/>
<text xml:space="preserve" text-anchor="start" x="34.25" y="-606.98" font-family="Helvetica,sans-Serif" font-size="10.00">c_func_t&lt; code_type</text>
<text xml:space="preserve" text-anchor="start" x="34.25" y="-594.98" font-family="Helvetica,sans-Serif" font-size="10.00"> *(sptr_type, size_t,</text>
<text xml:space="preserve" text-anchor="start" x="34.25" y="-582.98" font-family="Helvetica,sans-Serif" font-size="10.00"> uint32_t, int *, size</text>
<text xml:space="preserve" text-anchor="middle" x="90.88" y="-570.98" font-family="Helvetica,sans-Serif" font-size="10.00">_t *, compile_ctx_type *)&gt;</text>
</a>
</g>
</g>
<!-- Node4&#45;&gt;Node1 -->
<g id="edge3_Node000001_Node000004" class="edge">
<title>Node4&#45;&gt;Node1</title>
<g id="a_edge3_Node000001_Node000004"><a xlink:title=" ">
<path fill="none" stroke="#9a32cd" stroke-dasharray="5,2" d="M167.32,-597.58C220.12,-597.19 289.42,-588.24 337,-550.48 396.76,-503.05 414.69,-405.52 419.58,-366.82"/>
<polygon fill="#9a32cd" stroke="#9a32cd" points="167.51,-594.08 157.5,-597.54 167.49,-601.08 167.51,-594.08"/>
</a>
</g>
<text xml:space="preserve" text-anchor="start" x="251.5" y="-601.67" font-family="Helvetica,sans-Serif" font-size="10.00" fill="grey">compile</text>
</g>
<!-- Node5 -->
<g id="Node000005" class="node">
<title>Node5</title>
<g id="a_Node000005"><a xlink:title=" ">
<polygon fill="white" stroke="#666666" points="143.12,-546.48 38.62,-546.48 38.62,-514.48 143.12,-514.48 143.12,-546.48"/>
<text xml:space="preserve" text-anchor="start" x="46.62" y="-532.98" font-family="Helvetica,sans-Serif" font-size="10.00">c_func_t&lt; void(code</text>
<text xml:space="preserve" text-anchor="middle" x="90.88" y="-520.98" font-family="Helvetica,sans-Serif" font-size="10.00">_type *)&gt;</text>
</a>
</g>
</g>
<!-- Node5&#45;&gt;Node1 -->
<g id="edge4_Node000001_Node000005" class="edge">
<title>Node5&#45;&gt;Node1</title>
<g id="a_edge4_Node000001_Node000005"><a xlink:title=" ">
<path fill="none" stroke="#9a32cd" stroke-dasharray="5,2" d="M154.56,-532.18C207.45,-530.65 282.97,-521.25 337,-484.48 380.17,-455.11 405.67,-395.52 415.95,-366.75"/>
<polygon fill="#9a32cd" stroke="#9a32cd" points="154.74,-528.67 144.81,-532.36 154.87,-535.67 154.74,-528.67"/>
</a>
</g>
<text xml:space="preserve" text-anchor="start" x="247" y="-533.94" font-family="Helvetica,sans-Serif" font-size="10.00" fill="grey">code_free</text>
</g>
<!-- Node6 -->
<g id="Node000006" class="node">
<title>Node6</title>
<g id="a_Node000006"><a xlink:title=" ">
<polygon fill="white" stroke="#666666" points="151.75,-496.48 30,-496.48 30,-452.48 151.75,-452.48 151.75,-496.48"/>
<text xml:space="preserve" text-anchor="start" x="38" y="-482.98" font-family="Helvetica,sans-Serif" font-size="10.00">c_func_t&lt; match_data</text>
<text xml:space="preserve" text-anchor="start" x="38" y="-470.98" font-family="Helvetica,sans-Serif" font-size="10.00">_type *(const code_type</text>
<text xml:space="preserve" text-anchor="middle" x="90.88" y="-458.98" font-family="Helvetica,sans-Serif" font-size="10.00"> *, general_ctx_type *)&gt;</text>
</a>
</g>
</g>
<!-- Node6&#45;&gt;Node1 -->
<g id="edge5_Node000001_Node000006" class="edge">
<title>Node6&#45;&gt;Node1</title>
<g id="a_edge5_Node000001_Node000006"><a xlink:title=" ">
<path fill="none" stroke="#9a32cd" stroke-dasharray="5,2" d="M163.39,-468.27C213.96,-461.72 282.23,-448.39 337,-421.48 364.64,-407.91 390.84,-383.32 406.47,-366.95"/>
<polygon fill="#9a32cd" stroke="#9a32cd" points="163.23,-464.77 153.73,-469.46 164.09,-471.71 163.23,-464.77"/>
</a>
</g>
<text xml:space="preserve" text-anchor="start" x="212.88" y="-468.01" font-family="Helvetica,sans-Serif" font-size="10.00" fill="grey">match_data_from_pattern</text>
</g>
<!-- Node7 -->
<g id="Node000007" class="node">
<title>Node7</title>
<g id="a_Node000007"><a xlink:title=" ">
<polygon fill="white" stroke="#666666" points="146.12,-434.48 35.62,-434.48 35.62,-402.48 146.12,-402.48 146.12,-434.48"/>
<text xml:space="preserve" text-anchor="start" x="43.62" y="-420.98" font-family="Helvetica,sans-Serif" font-size="10.00">c_func_t&lt; void(match</text>
<text xml:space="preserve" text-anchor="middle" x="90.88" y="-408.98" font-family="Helvetica,sans-Serif" font-size="10.00">_data_type *)&gt;</text>
</a>
</g>
</g>
<!-- Node7&#45;&gt;Node1 -->
<g id="edge6_Node000001_Node000007" class="edge">
<title>Node7&#45;&gt;Node1</title>
<g id="a_edge6_Node000001_Node000007"><a xlink:title=" ">
<path fill="none" stroke="#9a32cd" stroke-dasharray="5,2" d="M157.81,-407.4C207.3,-398.77 276.64,-386.01 337,-372.48 344.52,-370.8 352.39,-368.91 360.17,-366.97"/>
<polygon fill="#9a32cd" stroke="#9a32cd" points="157.37,-403.92 148.11,-409.08 158.56,-410.82 157.37,-403.92"/>
</a>
</g>
<text xml:space="preserve" text-anchor="start" x="232" y="-404.65" font-family="Helvetica,sans-Serif" font-size="10.00" fill="grey">match_data_free</text>
</g>
<!-- Node8 -->
<g id="Node000008" class="node">
<title>Node8</title>
<g id="a_Node000008"><a xlink:title=" ">
<polygon fill="white" stroke="#666666" points="163.38,-384.48 18.38,-384.48 18.38,-316.48 163.38,-316.48 163.38,-384.48"/>
<text xml:space="preserve" text-anchor="start" x="26.38" y="-370.98" font-family="Helvetica,sans-Serif" font-size="10.00">c_func_t&lt; int(const</text>
<text xml:space="preserve" text-anchor="start" x="26.38" y="-358.98" font-family="Helvetica,sans-Serif" font-size="10.00"> code_type *, sptr_type,</text>
<text xml:space="preserve" text-anchor="start" x="26.38" y="-346.98" font-family="Helvetica,sans-Serif" font-size="10.00"> size_t, size_t, uint32</text>
<text xml:space="preserve" text-anchor="start" x="26.38" y="-334.98" font-family="Helvetica,sans-Serif" font-size="10.00">_t, match_data_type *, match</text>
<text xml:space="preserve" text-anchor="middle" x="90.88" y="-322.98" font-family="Helvetica,sans-Serif" font-size="10.00">_ctx_type *)&gt;</text>
</a>
</g>
</g>
<!-- Node8&#45;&gt;Node1 -->
<g id="edge7_Node000001_Node000008" class="edge">
<title>Node8&#45;&gt;Node1</title>
<g id="a_edge7_Node000001_Node000008"><a xlink:title=" ">
<path fill="none" stroke="#9a32cd" stroke-dasharray="5,2" d="M174.99,-350.48C230.58,-350.48 302.75,-350.48 354.57,-350.48"/>
<polygon fill="#9a32cd" stroke="#9a32cd" points="175.26,-346.98 165.26,-350.48 175.26,-353.98 175.26,-346.98"/>
</a>
</g>
<text xml:space="preserve" text-anchor="start" x="254.88" y="-355.98" font-family="Helvetica,sans-Serif" font-size="10.00" fill="grey">match</text>
</g>
<!-- Node9 -->
<g id="Node000009" class="node">
<title>Node9</title>
<g id="a_Node000009"><a xlink:title=" ">
<polygon fill="white" stroke="#666666" points="145.75,-298.48 36,-298.48 36,-266.48 145.75,-266.48 145.75,-298.48"/>
<text xml:space="preserve" text-anchor="start" x="44" y="-284.98" font-family="Helvetica,sans-Serif" font-size="10.00">c_func_t&lt; size_t *</text>
<text xml:space="preserve" text-anchor="middle" x="90.88" y="-272.98" font-family="Helvetica,sans-Serif" font-size="10.00">(match_data_type *)&gt;</text>
</a>
</g>
</g>
<!-- Node9&#45;&gt;Node1 -->
<g id="edge8_Node000001_Node000009" class="edge">
<title>Node9&#45;&gt;Node1</title>
<g id="a_edge8_Node000001_Node000009"><a xlink:title=" ">
<path fill="none" stroke="#9a32cd" stroke-dasharray="5,2" d="M157.33,-293.48C206.85,-302.12 276.44,-314.91 337,-328.48 344.52,-330.17 352.39,-332.06 360.17,-334"/>
<polygon fill="#9a32cd" stroke="#9a32cd" points="158.08,-290.06 147.63,-291.8 156.88,-296.96 158.08,-290.06"/>
</a>
</g>
<text xml:space="preserve" text-anchor="start" x="234.62" y="-333.98" font-family="Helvetica,sans-Serif" font-size="10.00" fill="grey">get_ovector_ptr</text>
</g>
<!-- Node10 -->
<g id="Node000010" class="node">
<title>Node10</title>
<g id="a_Node000010"><a xlink:title=" ">
<polygon fill="white" stroke="#666666" points="145.75,-248.48 36,-248.48 36,-216.48 145.75,-216.48 145.75,-248.48"/>
<text xml:space="preserve" text-anchor="start" x="44" y="-234.98" font-family="Helvetica,sans-Serif" font-size="10.00">c_func_t&lt; uint32_t</text>
<text xml:space="preserve" text-anchor="middle" x="90.88" y="-222.98" font-family="Helvetica,sans-Serif" font-size="10.00">(match_data_type *)&gt;</text>
</a>
</g>
</g>
<!-- Node10&#45;&gt;Node1 -->
<g id="edge9_Node000001_Node000010" class="edge">
<title>Node10&#45;&gt;Node1</title>
<g id="a_edge9_Node000001_Node000010"><a xlink:title=" ">
<path fill="none" stroke="#9a32cd" stroke-dasharray="5,2" d="M157.16,-235.98C208.23,-240.81 279.91,-252.27 337,-279.48 364.97,-292.82 391.28,-317.71 406.83,-334.19"/>
<polygon fill="#9a32cd" stroke="#9a32cd" points="157.72,-232.52 147.45,-235.13 157.11,-239.49 157.72,-232.52"/>
</a>
</g>
<text xml:space="preserve" text-anchor="start" x="228.25" y="-284.98" font-family="Helvetica,sans-Serif" font-size="10.00" fill="grey">get_ovector_count</text>
</g>
<!-- Node11 -->
<g id="Node000011" class="node">
<title>Node11</title>
<g id="a_Node000011"><a xlink:title=" ">
<polygon fill="white" stroke="#666666" points="148.38,-198.48 33.38,-198.48 33.38,-166.48 148.38,-166.48 148.38,-198.48"/>
<text xml:space="preserve" text-anchor="start" x="41.38" y="-184.98" font-family="Helvetica,sans-Serif" font-size="10.00">c_func_t&lt; int(int,</text>
<text xml:space="preserve" text-anchor="middle" x="90.88" y="-172.98" font-family="Helvetica,sans-Serif" font-size="10.00"> uchar_type *, size_t)&gt;</text>
</a>
</g>
</g>
<!-- Node11&#45;&gt;Node1 -->
<g id="edge10_Node000001_Node000011" class="edge">
<title>Node11&#45;&gt;Node1</title>
<g id="a_edge10_Node000001_Node000011"><a xlink:title=" ">
<path fill="none" stroke="#9a32cd" stroke-dasharray="5,2" d="M160,-178.19C212.37,-178.15 284.41,-185.44 337,-219.48 380.13,-247.4 405.65,-306.04 415.94,-334.42"/>
<polygon fill="#9a32cd" stroke="#9a32cd" points="160.28,-174.69 150.32,-178.3 160.36,-181.69 160.28,-174.69"/>
</a>
</g>
<text xml:space="preserve" text-anchor="start" x="226.75" y="-224.98" font-family="Helvetica,sans-Serif" font-size="10.00" fill="grey">get_error_message</text>
</g>
<!-- Node12 -->
<g id="Node000012" class="node">
<title>Node12</title>
<g id="a_Node000012"><a xlink:title=" ">
<polygon fill="white" stroke="#666666" points="142.38,-148.48 39.38,-148.48 39.38,-104.48 142.38,-104.48 142.38,-148.48"/>
<text xml:space="preserve" text-anchor="start" x="47.38" y="-134.98" font-family="Helvetica,sans-Serif" font-size="10.00">c_func_t&lt; int(const</text>
<text xml:space="preserve" text-anchor="start" x="47.38" y="-122.98" font-family="Helvetica,sans-Serif" font-size="10.00"> code_type *, uint32</text>
<text xml:space="preserve" text-anchor="middle" x="90.88" y="-110.98" font-family="Helvetica,sans-Serif" font-size="10.00">_t, void *)&gt;</text>
</a>
</g>
</g>
<!-- Node12&#45;&gt;Node1 -->
<g id="edge11_Node000001_Node000012" class="edge">
<title>Node12&#45;&gt;Node1</title>
<g id="a_edge11_Node000001_Node000012"><a xlink:title=" ">
<path fill="none" stroke="#9a32cd" stroke-dasharray="5,2" d="M154.19,-118.68C207.86,-115.38 284.7,-119.26 337,-158.48 395.68,-202.5 414.18,-296.17 419.4,-334.07"/>
<polygon fill="#9a32cd" stroke="#9a32cd" points="154,-115.18 144.28,-119.4 154.51,-122.16 154,-115.18"/>
</a>
</g>
<text xml:space="preserve" text-anchor="start" x="251.12" y="-163.98" font-family="Helvetica,sans-Serif" font-size="10.00" fill="grey">get_info</text>
</g>
<!-- Node13 -->
<g id="Node000013" class="node">
<title>Node13</title>
<g id="a_Node000013"><a xlink:title=" ">
<polygon fill="white" stroke="#666666" points="154,-86.48 27.75,-86.48 27.75,-54.48 154,-54.48 154,-86.48"/>
<text xml:space="preserve" text-anchor="start" x="35.75" y="-72.98" font-family="Helvetica,sans-Serif" font-size="10.00">c_func_t&lt; int(const</text>
<text xml:space="preserve" text-anchor="middle" x="90.88" y="-60.98" font-family="Helvetica,sans-Serif" font-size="10.00"> code_type *, sptr_type)&gt;</text>
</a>
</g>
</g>
<!-- Node13&#45;&gt;Node1 -->
<g id="edge12_Node000001_Node000013" class="edge">
<title>Node13&#45;&gt;Node1</title>
<g id="a_edge12_Node000001_Node000013"><a xlink:title=" ">
<path fill="none" stroke="#9a32cd" stroke-dasharray="5,2" d="M165.91,-58.71C219.13,-54.52 289.57,-58.28 337,-96.48 412.62,-157.4 420.92,-288.15 421.42,-334.1"/>
<polygon fill="#9a32cd" stroke="#9a32cd" points="165.64,-55.22 156,-59.61 166.27,-62.19 165.64,-55.22"/>
</a>
</g>
<text xml:space="preserve" text-anchor="start" x="202.75" y="-101.98" font-family="Helvetica,sans-Serif" font-size="10.00" fill="grey">substring_number_from_name</text>
</g>
<!-- Node14 -->
<g id="Node000014" class="node">
<title>Node14</title>
<g id="a_Node000014"><a xlink:href="../../d9/d82/structpcre2cpp_1_1utils_1_1pcre2__data.html" target="_top" xlink:title="Translation container from pcre2 library to pcre2cpp.">
<polygon fill="white" stroke="#666666" points="145.75,-36.48 36,-36.48 36,-4.48 145.75,-4.48 145.75,-36.48"/>
<text xml:space="preserve" text-anchor="start" x="44" y="-22.98" font-family="Helvetica,sans-Serif" font-size="10.00">pcre2cpp::utils::pcre2</text>
<text xml:space="preserve" text-anchor="middle" x="90.88" y="-10.98" font-family="Helvetica,sans-Serif" font-size="10.00">_data&lt; utf &gt;</text>
</a>
</g>
</g>
<!-- Node14&#45;&gt;Node1 -->
<g id="edge13_Node000001_Node000014" class="edge">
<title>Node14&#45;&gt;Node1</title>
<g id="a_edge13_Node000001_Node000014"><a xlink:title=" ">
<path fill="none" stroke="orange" stroke-dasharray="5,2" d="M157.35,-5.3C211.53,3.18 287.38,5.08 337,-35.48 384.77,-74.54 412.28,-275.5 419.39,-334.3"/>
<polygon fill="orange" stroke="orange" points="156.9,-1.83 147.63,-6.95 158.07,-8.73 156.9,-1.83"/>
</a>
</g>
<text xml:space="preserve" text-anchor="start" x="221.12" y="-40.98" font-family="Helvetica,sans-Serif" font-size="10.00" fill="grey">&lt; utf_type::UTF_32 &gt;</text>
</g>
</g>
</svg>

<g id="navigator" transform="translate(0 0)" fill="#404254">
  <rect fill="#f2f5e9" fill-opacity="0.5" stroke="#606060" stroke-width=".5" x="0" y="0" width="60" height="60"/>
  <use id="zoomplus" xlink:href="#zoomPlus" x="17" y="9" onmousedown="handleZoom(evt,'in')"/>
  <use id="zoomminus" xlink:href="#zoomMin" x="42" y="9" onmousedown="handleZoom(evt,'out')"/>
  <use id="reset" xlink:href="#resetDef" x="30" y="36" onmousedown="handleReset()"/>
   <use id="arrowup" xlink:href="#arrowUp" x="0" y="0" onmousedown="handlePan(0,-1)"/>
  <use id="arrowright" xlink:href="#arrowRight" x="0" y="0" onmousedown="handlePan(1,0)"/>
  <use id="arrowdown" xlink:href="#arrowDown" x="0" y="0" onmousedown="handlePan(0,1)"/>
  <use id="arrowleft" xlink:href="#arrowLeft" x="0" y="0" onmousedown="handlePan(-1,0)"/>
</g>
<svg viewBox="0 0 15 15" width="100%" height="30px" preserveAspectRatio="xMaxYMin meet">
 <g id="arrow_out" transform="scale(0.3 0.3)">
  <a xlink:href="structpcre2cpp_1_1utils_1_1pcre2__data_3_01utf__type_1_1_u_t_f__32_01_4__coll__graph_org.svg" target="_base">
   <rect id="button" ry="5" rx="5" y="6" x="6" height="38" width="38"
        fill="#f2f5e9" fill-opacity="0.5" stroke="#606060" stroke-width="1.0"/>
   <path id="arrow"
     d="M 11.500037,31.436501 C 11.940474,20.09759 22.043105,11.32322 32.158766,21.979434 L 37.068811,17.246167 C 37.068811,17.246167 37.088388,32 37.088388,32 L 22.160133,31.978069 C 22.160133,31.978069 26.997745,27.140456 26.997745,27.140456 C 18.528582,18.264221 13.291696,25.230495 11.500037,31.436501 z"
     style="fill:#404040;"/>
  </a>
 </g>
</svg>

<style type='text/css'>
<![CDATA[
[data-mouse-over-selected='false'] { opacity: 0.7; }
[data-mouse-over-selected='true']  { opacity: 1.0; }
]]>
</style>
<script type="application/ecmascript"><![CDATA[
document.addEventListener('DOMContentLoaded', (event) => {
  highlightEdges();
  highlightAdjacentNodes();
});
]]></script>
</svg>
