<?xml version="1.0" encoding="UTF-8" standalone="no"?>
<!DOCTYPE svg PUBLIC "-//W3C//DTD SVG 1.1//EN"
 "http://www.w3.org/Graphics/SVG/1.1/DTD/svg11.dtd">
<!-- Generated by graphviz version 14.1.1 (20251213.1925)
 -->
<!-- Title: pcre2cpp::basic_match_result&lt; utf &gt;::_value_result_data Pages: 1 -->
<svg width="788pt" height="216pt"
 viewBox="0.00 0.00 788.00 216.00" xmlns="http://www.w3.org/2000/svg" xmlns:xlink="http://www.w3.org/1999/xlink">
<g id="graph0" class="graph" transform="scale(1 1) rotate(0) translate(4 212)">
<title>pcre2cpp::basic_match_result&lt; utf &gt;::_value_result_data</title>
<!-- Node1 -->
<g id="Node000001" class="node">
<title>Node1</title>
<g id="a_Node000001"><a xlink:title="Result data container.">
<polygon fill="#999999" stroke="#666666" points="779.55,-126 662.3,-126 662.3,-82 779.55,-82 779.55,-126"/>
<text xml:space="preserve" text-anchor="start" x="670.3" y="-112.5" font-family="Helvetica,sans-Serif" font-size="10.00">pcre2cpp::basic_match</text>
<text xml:space="preserve" text-anchor="start" x="670.3" y="-100.5" font-family="Helvetica,sans-Serif" font-size="10.00">_result&lt; utf &gt;::_value</text>
<text xml:space="preserve" text-anchor="middle" x="720.92" y="-88.5" font-family="Helvetica,sans-Serif" font-size="10.00">_result_data</text>
</a>
</g>
</g>
<!-- Node2 -->
<g id="Node000002" class="node">
<title>Node2</title>
<g id="a_Node000002"><a xlink:title=" ">
<polygon fill="white" stroke="#666666" points="474.8,-208 432.55,-208 432.55,-188 474.8,-188 474.8,-208"/>
<text xml:space="preserve" text-anchor="middle" x="453.67" y="-194.5" font-family="Helvetica,sans-Serif" font-size="10.00">size_t</text>
</a>
</g>
</g>
<!-- Node2&#45;&gt;Node1 -->
<g id="edge1_Node000001_Node000002" class="edge">
<title>Node2&#45;&gt;Node1</title>
<g id="a_edge1_Node000001_Node000002"><a xlink:title=" ">
<path fill="none" stroke="#9a32cd" stroke-dasharray="5,2" d="M486.64,-197.01C525.5,-194.75 592.34,-187.46 644.3,-164 664.31,-154.97 683.64,-139.47 697.75,-126.48"/>
<polygon fill="#9a32cd" stroke="#9a32cd" points="486.62,-193.5 476.8,-197.49 486.96,-200.49 486.62,-193.5"/>
</a>
</g>
<text xml:space="preserve" text-anchor="start" x="570.05" y="-194.27" font-family="Helvetica,sans-Serif" font-size="10.00" fill="grey">search_offset</text>
</g>
<!-- Node3 -->
<g id="Node000003" class="node">
<title>Node3</title>
<g id="a_Node000003"><a xlink:title=" ">
<polygon fill="white" stroke="#666666" points="506.67,-170 400.67,-170 400.67,-138 506.67,-138 506.67,-170"/>
<text xml:space="preserve" text-anchor="start" x="408.67" y="-156.5" font-family="Helvetica,sans-Serif" font-size="10.00">basic_match_value&lt;</text>
<text xml:space="preserve" text-anchor="middle" x="453.67" y="-144.5" font-family="Helvetica,sans-Serif" font-size="10.00"> utf &gt;</text>
</a>
</g>
</g>
<!-- Node3&#45;&gt;Node1 -->
<g id="edge2_Node000001_Node000003" class="edge">
<title>Node3&#45;&gt;Node1</title>
<g id="a_edge2_Node000001_Node000003"><a xlink:title=" ">
<path fill="none" stroke="#9a32cd" stroke-dasharray="5,2" d="M518.07,-146.84C555.1,-142.11 602.61,-135.1 644.3,-126 650.04,-124.75 655.99,-123.29 661.91,-121.74"/>
<polygon fill="#9a32cd" stroke="#9a32cd" points="517.92,-143.33 508.44,-148.04 518.79,-150.27 517.92,-143.33"/>
</a>
</g>
<text xml:space="preserve" text-anchor="start" x="587.3" y="-147.08" font-family="Helvetica,sans-Serif" font-size="10.00" fill="grey">result</text>
</g>
<!-- Node4 -->
<g id="Node000004" class="node">
<title>Node4</title>
<g id="a_Node000004"><a xlink:title=" ">
<polygon fill="white" stroke="#666666" points="536.3,-120 371.05,-120 371.05,-88 536.3,-88 536.3,-120"/>
<text xml:space="preserve" text-anchor="start" x="379.05" y="-106.5" font-family="Helvetica,sans-Serif" font-size="10.00">std::vector&lt; std::optional</text>
<text xml:space="preserve" text-anchor="middle" x="453.67" y="-94.5" font-family="Helvetica,sans-Serif" font-size="10.00">&lt; pcre2cpp::sub_match_value &gt; &gt;</text>
</a>
</g>
</g>
<!-- Node4&#45;&gt;Node1 -->
<g id="edge3_Node000001_Node000004" class="edge">
<title>Node4&#45;&gt;Node1</title>
<g id="a_edge3_Node000001_Node000004"><a xlink:title=" ">
<path fill="none" stroke="#9a32cd" stroke-dasharray="5,2" d="M547.9,-104C585.95,-104 628.76,-104 662.16,-104"/>
<polygon fill="#9a32cd" stroke="#9a32cd" points="548.3,-100.5 538.3,-104 548.3,-107.5 548.3,-100.5"/>
</a>
</g>
<text xml:space="preserve" text-anchor="start" x="574.17" y="-109.5" font-family="Helvetica,sans-Serif" font-size="10.00" fill="grey">sub_results</text>
</g>
<!-- Node5 -->
<g id="Node000005" class="node">
<title>Node5</title>
<g id="a_Node000005"><a xlink:title=" ">
<polygon fill="white" stroke="#666666" points="218.05,-177 110.55,-177 110.55,-145 218.05,-145 218.05,-177"/>
<text xml:space="preserve" text-anchor="start" x="118.55" y="-163.5" font-family="Helvetica,sans-Serif" font-size="10.00">optional&lt; pcre2cpp</text>
<text xml:space="preserve" text-anchor="middle" x="164.3" y="-151.5" font-family="Helvetica,sans-Serif" font-size="10.00">::sub_match_value &gt;</text>
</a>
</g>
</g>
<!-- Node5&#45;&gt;Node4 -->
<g id="edge4_Node000004_Node000005" class="edge">
<title>Node5&#45;&gt;Node4</title>
<g id="a_edge4_Node000004_Node000005"><a xlink:title=" ">
<path fill="none" stroke="#9a32cd" stroke-dasharray="5,2" d="M229.38,-159.66C266.29,-157.37 313.14,-151.87 353.05,-139 361.76,-136.19 362.63,-132.58 371.05,-129 378.28,-125.93 386.01,-123.05 393.73,-120.43"/>
<polygon fill="#9a32cd" stroke="#9a32cd" points="229.56,-156.14 219.77,-160.18 229.95,-163.13 229.56,-156.14"/>
</a>
</g>
<text xml:space="preserve" text-anchor="start" x="274.67" y="-164.56" font-family="Helvetica,sans-Serif" font-size="10.00" fill="grey">elements</text>
</g>
<!-- Node6 -->
<g id="Node000006" class="node">
<title>Node6</title>
<g id="a_Node000006"><a xlink:title=" ">
<polygon fill="white" stroke="#666666" points="207.17,-106 121.42,-106 121.42,-86 207.17,-86 207.17,-106"/>
<text xml:space="preserve" text-anchor="middle" x="164.3" y="-92.5" font-family="Helvetica,sans-Serif" font-size="10.00">std::vector&lt; T &gt;</text>
</a>
</g>
</g>
<!-- Node6&#45;&gt;Node4 -->
<g id="edge5_Node000004_Node000006" class="edge">
<title>Node6&#45;&gt;Node4</title>
<g id="a_edge5_Node000004_Node000006"><a xlink:title=" ">
<path fill="none" stroke="orange" stroke-dasharray="5,2" d="M218.65,-97.49C261.31,-98.67 321.83,-100.36 370.64,-101.72"/>
<polygon fill="orange" stroke="orange" points="219,-93.99 208.91,-97.21 218.81,-100.99 219,-93.99"/>
</a>
</g>
<text xml:space="preserve" text-anchor="start" x="239.05" y="-122.68" font-family="Helvetica,sans-Serif" font-size="10.00" fill="grey">&lt; std::optional&lt; pcre2cpp</text>
<text xml:space="preserve" text-anchor="start" x="239.05" y="-106.68" font-family="Helvetica,sans-Serif" font-size="10.00" fill="grey">  ::sub_match_value &gt; &gt;</text>
</g>
<!-- Node7 -->
<g id="Node000007" class="node">
<title>Node7</title>
<g id="a_Node000007"><a xlink:title=" ">
<polygon fill="white" stroke="#666666" points="28.8,-82 0,-82 0,-62 28.8,-62 28.8,-82"/>
<text xml:space="preserve" text-anchor="middle" x="14.4" y="-68.5" font-family="Helvetica,sans-Serif" font-size="10.00">T</text>
</a>
</g>
</g>
<!-- Node7&#45;&gt;Node6 -->
<g id="edge6_Node000006_Node000007" class="edge">
<title>Node7&#45;&gt;Node6</title>
<g id="a_edge6_Node000006_Node000007"><a xlink:title=" ">
<path fill="none" stroke="#9a32cd" stroke-dasharray="5,2" d="M40.4,-76.06C62.46,-79.64 95.08,-84.93 121.17,-89.16"/>
<polygon fill="#9a32cd" stroke="#9a32cd" points="40.97,-72.6 30.54,-74.46 39.85,-79.51 40.97,-72.6"/>
</a>
</g>
<text xml:space="preserve" text-anchor="start" x="49.8" y="-89.5" font-family="Helvetica,sans-Serif" font-size="10.00" fill="grey">elements</text>
</g>
<!-- Node9 -->
<g id="Node000009" class="node">
<title>Node9</title>
<g id="a_Node000009"><a xlink:title=" ">
<polygon fill="white" stroke="#666666" points="216.55,-58 112.05,-58 112.05,-38 216.55,-38 216.55,-58"/>
<text xml:space="preserve" text-anchor="middle" x="164.3" y="-44.5" font-family="Helvetica,sans-Serif" font-size="10.00">std::shared_ptr&lt; T &gt;</text>
</a>
</g>
</g>
<!-- Node7&#45;&gt;Node9 -->
<g id="edge9_Node000009_Node000007" class="edge">
<title>Node7&#45;&gt;Node9</title>
<g id="a_edge9_Node000009_Node000007"><a xlink:title=" ">
<path fill="none" stroke="#9a32cd" stroke-dasharray="5,2" d="M39.39,-57.68C41.84,-56.63 44.33,-55.71 46.8,-55 67.55,-49.08 91.2,-46.87 111.74,-46.31"/>
<polygon fill="#9a32cd" stroke="#9a32cd" points="37.91,-54.51 30.57,-62.15 41.07,-60.75 37.91,-54.51"/>
</a>
</g>
<text xml:space="preserve" text-anchor="start" x="64.05" y="-60.5" font-family="Helvetica,sans-Serif" font-size="10.00" fill="grey">ptr</text>
</g>
<!-- Node8 -->
<g id="Node000008" class="node">
<title>Node8</title>
<g id="a_Node000008"><a xlink:title=" ">
<polygon fill="white" stroke="#666666" points="516.05,-70 391.3,-70 391.3,-38 516.05,-38 516.05,-70"/>
<text xml:space="preserve" text-anchor="start" x="399.3" y="-56.5" font-family="Helvetica,sans-Serif" font-size="10.00">std::shared_ptr&lt; _named</text>
<text xml:space="preserve" text-anchor="middle" x="453.67" y="-44.5" font-family="Helvetica,sans-Serif" font-size="10.00">_sub_values_table &gt;</text>
</a>
</g>
</g>
<!-- Node8&#45;&gt;Node1 -->
<g id="edge7_Node000001_Node000008" class="edge">
<title>Node8&#45;&gt;Node1</title>
<g id="a_edge7_Node000001_Node000008"><a xlink:title=" ">
<path fill="none" stroke="#9a32cd" stroke-dasharray="5,2" d="M527.76,-62.42C563.16,-67.1 606.16,-73.68 644.3,-82 650.04,-83.25 655.99,-84.71 661.91,-86.26"/>
<polygon fill="#9a32cd" stroke="#9a32cd" points="528.42,-58.98 518.05,-61.16 527.52,-65.92 528.42,-58.98"/>
</a>
</g>
<text xml:space="preserve" text-anchor="start" x="557.3" y="-87.5" font-family="Helvetica,sans-Serif" font-size="10.00" fill="grey">named_sub_values</text>
</g>
<!-- Node9&#45;&gt;Node8 -->
<g id="edge8_Node000008_Node000009" class="edge">
<title>Node9&#45;&gt;Node8</title>
<g id="a_edge8_Node000008_Node000009"><a xlink:title=" ">
<path fill="none" stroke="orange" stroke-dasharray="5,2" d="M228.17,-47.06C264.64,-46.75 311.45,-46.75 353.05,-48 365.35,-48.37 378.49,-49 391.05,-49.71"/>
<polygon fill="orange" stroke="orange" points="228.19,-43.56 218.22,-47.15 228.26,-50.56 228.19,-43.56"/>
</a>
</g>
<text xml:space="preserve" text-anchor="start" x="245.42" y="-69.5" font-family="Helvetica,sans-Serif" font-size="10.00" fill="grey">&lt; _named_sub_values</text>
<text xml:space="preserve" text-anchor="start" x="245.42" y="-53.5" font-family="Helvetica,sans-Serif" font-size="10.00" fill="grey">  _table &gt;</text>
</g>
<!-- Node10 -->
<g id="Node000010" class="node">
<title>Node10</title>
<g id="a_Node000010"><a xlink:title=" ">
<polygon fill="white" stroke="#666666" points="470.67,-20 436.67,-20 436.67,0 470.67,0 470.67,-20"/>
<text xml:space="preserve" text-anchor="middle" x="453.67" y="-6.5" font-family="Helvetica,sans-Serif" font-size="10.00">bool</text>
</a>
</g>
</g>
<!-- Node10&#45;&gt;Node1 -->
<g id="edge10_Node000001_Node000010" class="edge">
<title>Node10&#45;&gt;Node1</title>
<g id="a_edge10_Node000001_Node000010"><a xlink:title=" ">
<path fill="none" stroke="#9a32cd" stroke-dasharray="5,2" d="M482.09,-10.75C520.1,-12.69 590.25,-19.6 644.3,-44 664.31,-53.03 683.64,-68.53 697.75,-81.52"/>
<polygon fill="#9a32cd" stroke="#9a32cd" points="482.59,-7.26 472.45,-10.34 482.29,-14.26 482.59,-7.26"/>
</a>
</g>
<text xml:space="preserve" text-anchor="start" x="587.3" y="-49.5" font-family="Helvetica,sans-Serif" font-size="10.00" fill="grey">found</text>
</g>
</g>
</svg>
