<?xml version="1.0" encoding="UTF-8" standalone="no"?>
<!DOCTYPE svg PUBLIC "-//W3C//DTD SVG 1.1//EN"
 "http://www.w3.org/Graphics/SVG/1.1/DTD/svg11.dtd">
<!-- Generated by graphviz version 14.1.1 (20251213.1925)
 -->
<!-- Title: pcre2cpp::basic_match_result&lt; utf &gt;::_value_result_data Pages: 1 -->
<svg width="788pt" height="228pt"
 viewBox="0.00 0.00 788.00 228.00" xmlns="http://www.w3.org/2000/svg" xmlns:xlink="http://www.w3.org/1999/xlink">
<g id="graph0" class="graph" transform="scale(1 1) rotate(0) translate(4 224)">
<title>pcre2cpp::basic_match_result&lt; utf &gt;::_value_result_data</title>
<!-- Node1 -->
<g id="Node000001" class="node">
<title>Node1</title>
<g id="a_Node000001"><a xlink:title="Result data container.">
<polygon fill="#999999" stroke="#666666" points="779.55,-138 662.3,-138 662.3,-94 779.55,-94 779.55,-138"/>
<text xml:space="preserve" text-anchor="start" x="670.3" y="-124.5" font-family="Helvetica,sans-Serif" font-size="10.00">pcre2cpp::basic_match</text>
<text xml:space="preserve" text-anchor="start" x="670.3" y="-112.5" font-family="Helvetica,sans-Serif" font-size="10.00">_result&lt; utf &gt;::_value</text>
<text xml:space="preserve" text-anchor="middle" x="720.92" y="-100.5" font-family="Helvetica,sans-Serif" font-size="10.00">_result_data</text>
</a>
</g>
</g>
<!-- Node2 -->
<g id="Node000002" class="node">
<title>Node2</title>
<g id="a_Node000002"><a xlink:title=" ">
<polygon fill="white" stroke="#666666" points="474.8,-220 432.55,-220 432.55,-200 474.8,-200 474.8,-220"/>
<text xml:space="preserve" text-anchor="middle" x="453.67" y="-206.5" font-family="Helvetica,sans-Serif" font-size="10.00">size_t</text>
</a>
</g>
</g>
<!-- Node2&#45;&gt;Node1 -->
<g id="edge1_Node000001_Node000002" class="edge">
<title>Node2&#45;&gt;Node1</title>
<g id="a_edge1_Node000001_Node000002"><a xlink:title=" ">
<path fill="none" stroke="#9a32cd" stroke-dasharray="5,2" d="M486.64,-209.01C525.5,-206.75 592.34,-199.46 644.3,-176 664.31,-166.97 683.64,-151.47 697.75,-138.48"/>
<polygon fill="#9a32cd" stroke="#9a32cd" points="486.62,-205.5 476.8,-209.49 486.96,-212.49 486.62,-205.5"/>
</a>
</g>
<text xml:space="preserve" text-anchor="start" x="570.05" y="-206.27" font-family="Helvetica,sans-Serif" font-size="10.00" fill="grey">search_offset</text>
</g>
<!-- Node3 -->
<g id="Node000003" class="node">
<title>Node3</title>
<g id="a_Node000003"><a xlink:title=" ">
<polygon fill="white" stroke="#666666" points="506.67,-182 400.67,-182 400.67,-150 506.67,-150 506.67,-182"/>
<text xml:space="preserve" text-anchor="start" x="408.67" y="-168.5" font-family="Helvetica,sans-Serif" font-size="10.00">basic_match_value&lt;</text>
<text xml:space="preserve" text-anchor="middle" x="453.67" y="-156.5" font-family="Helvetica,sans-Serif" font-size="10.00"> utf &gt;</text>
</a>
</g>
</g>
<!-- Node3&#45;&gt;Node1 -->
<g id="edge2_Node000001_Node000003" class="edge">
<title>Node3&#45;&gt;Node1</title>
<g id="a_edge2_Node000001_Node000003"><a xlink:title=" ">
<path fill="none" stroke="#9a32cd" stroke-dasharray="5,2" d="M518.07,-158.84C555.1,-154.11 602.61,-147.1 644.3,-138 650.04,-136.75 655.99,-135.29 661.91,-133.74"/>
<polygon fill="#9a32cd" stroke="#9a32cd" points="517.92,-155.33 508.44,-160.04 518.79,-162.27 517.92,-155.33"/>
</a>
</g>
<text xml:space="preserve" text-anchor="start" x="587.3" y="-159.08" font-family="Helvetica,sans-Serif" font-size="10.00" fill="grey">result</text>
</g>
<!-- Node4 -->
<g id="Node000004" class="node">
<title>Node4</title>
<g id="a_Node000004"><a xlink:title=" ">
<polygon fill="white" stroke="#666666" points="536.3,-132 371.05,-132 371.05,-100 536.3,-100 536.3,-132"/>
<text xml:space="preserve" text-anchor="start" x="379.05" y="-118.5" font-family="Helvetica,sans-Serif" font-size="10.00">std::vector&lt; std::optional</text>
<text xml:space="preserve" text-anchor="middle" x="453.67" y="-106.5" font-family="Helvetica,sans-Serif" font-size="10.00">&lt; pcre2cpp::sub_match_value &gt; &gt;</text>
</a>
</g>
</g>
<!-- Node4&#45;&gt;Node1 -->
<g id="edge3_Node000001_Node000004" class="edge">
<title>Node4&#45;&gt;Node1</title>
<g id="a_edge3_Node000001_Node000004"><a xlink:title=" ">
<path fill="none" stroke="#9a32cd" stroke-dasharray="5,2" d="M547.9,-116C585.95,-116 628.76,-116 662.16,-116"/>
<polygon fill="#9a32cd" stroke="#9a32cd" points="548.3,-112.5 538.3,-116 548.3,-119.5 548.3,-112.5"/>
</a>
</g>
<text xml:space="preserve" text-anchor="start" x="574.17" y="-121.5" font-family="Helvetica,sans-Serif" font-size="10.00" fill="grey">sub_results</text>
</g>
<!-- Node5 -->
<g id="Node000005" class="node">
<title>Node5</title>
<g id="a_Node000005"><a xlink:title=" ">
<polygon fill="white" stroke="#666666" points="218.05,-188 110.55,-188 110.55,-156 218.05,-156 218.05,-188"/>
<text xml:space="preserve" text-anchor="start" x="118.55" y="-174.5" font-family="Helvetica,sans-Serif" font-size="10.00">optional&lt; pcre2cpp</text>
<text xml:space="preserve" text-anchor="middle" x="164.3" y="-162.5" font-family="Helvetica,sans-Serif" font-size="10.00">::sub_match_value &gt;</text>
</a>
</g>
</g>
<!-- Node5&#45;&gt;Node4 -->
<g id="edge4_Node000004_Node000005" class="edge">
<title>Node5&#45;&gt;Node4</title>
<g id="a_edge4_Node000004_Node000005"><a xlink:title=" ">
<path fill="none" stroke="#9a32cd" stroke-dasharray="5,2" d="M229.57,-169.97C266.35,-167.46 313.01,-161.95 353.05,-150 361.62,-147.44 362.75,-144.32 371.05,-141 378.62,-137.97 386.7,-135.09 394.73,-132.44"/>
<polygon fill="#9a32cd" stroke="#9a32cd" points="229.76,-166.46 220,-170.57 230.19,-173.44 229.76,-166.46"/>
</a>
</g>
<text xml:space="preserve" text-anchor="start" x="274.67" y="-174.86" font-family="Helvetica,sans-Serif" font-size="10.00" fill="grey">elements</text>
</g>
<!-- Node6 -->
<g id="Node000006" class="node">
<title>Node6</title>
<g id="a_Node000006"><a xlink:title=" ">
<polygon fill="white" stroke="#666666" points="207.17,-117 121.42,-117 121.42,-97 207.17,-97 207.17,-117"/>
<text xml:space="preserve" text-anchor="middle" x="164.3" y="-103.5" font-family="Helvetica,sans-Serif" font-size="10.00">std::vector&lt; T &gt;</text>
</a>
</g>
</g>
<!-- Node6&#45;&gt;Node4 -->
<g id="edge5_Node000004_Node000006" class="edge">
<title>Node6&#45;&gt;Node4</title>
<g id="a_edge5_Node000004_Node000006"><a xlink:title=" ">
<path fill="none" stroke="orange" stroke-dasharray="5,2" d="M218.65,-108.67C261.31,-110.01 321.83,-111.9 370.64,-113.43"/>
<polygon fill="orange" stroke="orange" points="219.01,-105.18 208.91,-108.37 218.79,-112.18 219.01,-105.18"/>
</a>
</g>
<text xml:space="preserve" text-anchor="start" x="239.05" y="-134.33" font-family="Helvetica,sans-Serif" font-size="10.00" fill="grey">&lt; std::optional&lt; pcre2cpp</text>
<text xml:space="preserve" text-anchor="start" x="239.05" y="-118.33" font-family="Helvetica,sans-Serif" font-size="10.00" fill="grey">  ::sub_match_value &gt; &gt;</text>
</g>
<!-- Node7 -->
<g id="Node000007" class="node">
<title>Node7</title>
<g id="a_Node000007"><a xlink:title=" ">
<polygon fill="white" stroke="#666666" points="28.8,-90 0,-90 0,-70 28.8,-70 28.8,-90"/>
<text xml:space="preserve" text-anchor="middle" x="14.4" y="-76.5" font-family="Helvetica,sans-Serif" font-size="10.00">T</text>
</a>
</g>
</g>
<!-- Node7&#45;&gt;Node6 -->
<g id="edge6_Node000006_Node000007" class="edge">
<title>Node7&#45;&gt;Node6</title>
<g id="a_edge6_Node000006_Node000007"><a xlink:title=" ">
<path fill="none" stroke="#9a32cd" stroke-dasharray="5,2" d="M40.09,-84.51C62.16,-88.54 94.96,-94.52 121.17,-99.31"/>
<polygon fill="#9a32cd" stroke="#9a32cd" points="41,-81.12 30.54,-82.76 39.75,-88 41,-81.12"/>
</a>
</g>
<text xml:space="preserve" text-anchor="start" x="49.8" y="-99" font-family="Helvetica,sans-Serif" font-size="10.00" fill="grey">elements</text>
</g>
<!-- Node9 -->
<g id="Node000009" class="node">
<title>Node9</title>
<g id="a_Node000009"><a xlink:title=" ">
<polygon fill="white" stroke="#666666" points="216.55,-68 112.05,-68 112.05,-48 216.55,-48 216.55,-68"/>
<text xml:space="preserve" text-anchor="middle" x="164.3" y="-54.5" font-family="Helvetica,sans-Serif" font-size="10.00">std::shared_ptr&lt; T &gt;</text>
</a>
</g>
</g>
<!-- Node7&#45;&gt;Node9 -->
<g id="edge9_Node000009_Node000007" class="edge">
<title>Node7&#45;&gt;Node9</title>
<g id="a_edge9_Node000009_Node000007"><a xlink:title=" ">
<path fill="none" stroke="#9a32cd" stroke-dasharray="5,2" d="M39.35,-67.43C41.82,-66.47 44.33,-65.64 46.8,-65 67.6,-59.63 91.14,-57.5 111.6,-56.86"/>
<polygon fill="#9a32cd" stroke="#9a32cd" points="38.09,-64.15 30.41,-71.46 40.96,-70.54 38.09,-64.15"/>
</a>
</g>
<text xml:space="preserve" text-anchor="start" x="64.05" y="-70.5" font-family="Helvetica,sans-Serif" font-size="10.00" fill="grey">ptr</text>
</g>
<!-- Node8 -->
<g id="Node000008" class="node">
<title>Node8</title>
<g id="a_Node000008"><a xlink:title=" ">
<polygon fill="white" stroke="#666666" points="516.05,-82 391.3,-82 391.3,-50 516.05,-50 516.05,-82"/>
<text xml:space="preserve" text-anchor="start" x="399.3" y="-68.5" font-family="Helvetica,sans-Serif" font-size="10.00">std::shared_ptr&lt; _named</text>
<text xml:space="preserve" text-anchor="middle" x="453.67" y="-56.5" font-family="Helvetica,sans-Serif" font-size="10.00">_sub_values_table &gt;</text>
</a>
</g>
</g>
<!-- Node8&#45;&gt;Node1 -->
<g id="edge7_Node000001_Node000008" class="edge">
<title>Node8&#45;&gt;Node1</title>
<g id="a_edge7_Node000001_Node000008"><a xlink:title=" ">
<path fill="none" stroke="#9a32cd" stroke-dasharray="5,2" d="M527.76,-74.42C563.16,-79.1 606.16,-85.68 644.3,-94 650.04,-95.25 655.99,-96.71 661.91,-98.26"/>
<polygon fill="#9a32cd" stroke="#9a32cd" points="528.42,-70.98 518.05,-73.16 527.52,-77.92 528.42,-70.98"/>
</a>
</g>
<text xml:space="preserve" text-anchor="start" x="557.3" y="-99.5" font-family="Helvetica,sans-Serif" font-size="10.00" fill="grey">named_sub_values</text>
</g>
<!-- Node9&#45;&gt;Node8 -->
<g id="edge8_Node000008_Node000009" class="edge">
<title>Node9&#45;&gt;Node8</title>
<g id="a_edge8_Node000008_Node000009"><a xlink:title=" ">
<path fill="none" stroke="orange" stroke-dasharray="5,2" d="M228.18,-57.32C264.65,-57.18 311.46,-57.43 353.05,-59 365.35,-59.46 378.49,-60.21 391.06,-61.04"/>
<polygon fill="orange" stroke="orange" points="228.21,-53.82 218.23,-57.37 228.25,-60.82 228.21,-53.82"/>
</a>
</g>
<text xml:space="preserve" text-anchor="start" x="245.42" y="-80.5" font-family="Helvetica,sans-Serif" font-size="10.00" fill="grey">&lt; _named_sub_values</text>
<text xml:space="preserve" text-anchor="start" x="245.42" y="-64.5" font-family="Helvetica,sans-Serif" font-size="10.00" fill="grey">  _table &gt;</text>
</g>
<!-- Node10 -->
<g id="Node000010" class="node">
<title>Node10</title>
<g id="a_Node000010"><a xlink:title=" ">
<polygon fill="white" stroke="#666666" points="511.92,-32 395.42,-32 395.42,0 511.92,0 511.92,-32"/>
<text xml:space="preserve" text-anchor="start" x="403.42" y="-18.5" font-family="Helvetica,sans-Serif" font-size="10.00">std::shared_ptr&lt; _code</text>
<text xml:space="preserve" text-anchor="middle" x="453.67" y="-6.5" font-family="Helvetica,sans-Serif" font-size="10.00">_type &gt;</text>
</a>
</g>
</g>
<!-- Node9&#45;&gt;Node10 -->
<g id="edge11_Node000010_Node000009" class="edge">
<title>Node9&#45;&gt;Node10</title>
<g id="a_edge11_Node000010_Node000009"><a xlink:title=" ">
<path fill="none" stroke="orange" stroke-dasharray="5,2" d="M203.36,-43.88C213.83,-40.48 225.27,-37.2 236.05,-35 289.32,-24.15 351.2,-19.5 395.15,-17.5"/>
<polygon fill="orange" stroke="orange" points="202.24,-40.56 193.9,-47.08 204.49,-47.19 202.24,-40.56"/>
</a>
</g>
<text xml:space="preserve" text-anchor="start" x="260.42" y="-40.5" font-family="Helvetica,sans-Serif" font-size="10.00" fill="grey">&lt; _code_type &gt;</text>
</g>
<!-- Node10&#45;&gt;Node1 -->
<g id="edge10_Node000001_Node000010" class="edge">
<title>Node10&#45;&gt;Node1</title>
<g id="a_edge10_Node000001_Node000010"><a xlink:title=" ">
<path fill="none" stroke="#9a32cd" stroke-dasharray="5,2" d="M523.27,-22.7C560.42,-28.22 606.36,-38.17 644.3,-56 664.17,-65.34 683.51,-80.83 697.65,-93.73"/>
<polygon fill="#9a32cd" stroke="#9a32cd" points="523.93,-19.26 513.54,-21.34 522.95,-26.19 523.93,-19.26"/>
</a>
</g>
<text xml:space="preserve" text-anchor="start" x="588.8" y="-61.5" font-family="Helvetica,sans-Serif" font-size="10.00" fill="grey">code</text>
</g>
</g>
</svg>
