<?xml version="1.0" encoding="UTF-8" standalone="no"?>
<!DOCTYPE svg PUBLIC "-//W3C//DTD SVG 1.1//EN"
 "http://www.w3.org/Graphics/SVG/1.1/DTD/svg11.dtd">
<!-- Generated by graphviz version 14.1.1 (20251213.1925)
 -->
<!-- Title: pcre2cpp::basic_pcre2cpp_exception&lt; utf &gt; Pages: 1 -->
<!--zoomable 546 -->

<svg id="main" version="1.1" xmlns="http://www.w3.org/2000/svg" xmlns:xlink="http://www.w3.org/1999/xlink" xml:space="preserve" onload="init(evt)">

<style type="text/css"><![CDATA[
.node, .edge {opacity: 0.7;}
.node.selected, .edge.selected {opacity: 1;}
.edge:hover path { stroke: red; }
.edge:hover polygon { stroke: red; fill: red; }
]]></style>

<defs>
  <circle id="rim" cx="0" cy="0" r="7"/>
  <circle id="rim2" cx="0" cy="0" r="3.5"/>
  <g id="zoomPlus">
    <use xlink:href="#rim" fill="#404040"><set attributeName="fill" to="#808080" begin="zoomplus.mouseover" end="zoomplus.mouseout"/></use>
    <path d="M-4,0h8M0,-4v8" fill="none" stroke="white" stroke-width="1.5" pointer-events="none"/>
  </g>
  <g id="zoomMin">
    <use xlink:href="#rim" fill="#404040"><set attributeName="fill" to="#808080" begin="zoomminus.mouseover" end="zoomminus.mouseout"/></use>
    <path d="M-4,0h8" fill="none" stroke="white" stroke-width="1.5" pointer-events="none"/>
  </g>
  <g id="arrowUp" transform="translate(30 24)">
    <use xlink:href="#rim"/>
    <path pointer-events="none" fill="none" stroke="white" stroke-width="1.5" d="M0,-3.0v7 M-2.5,-0.5L0,-3.0L2.5,-0.5"/>
  </g>
  <g id="arrowRight" transform="rotate(90) translate(36 -43)">
    <use xlink:href="#rim"/>
    <path pointer-events="none" fill="none" stroke="white" stroke-width="1.5" d="M0,-3.0v7 M-2.5,-0.5L0,-3.0L2.5,-0.5"/>
  </g>
  <g id="arrowDown" transform="rotate(180) translate(-30 -48)">
    <use xlink:href="#rim"/>
    <path pointer-events="none" fill="none" stroke="white" stroke-width="1.5" d="M0,-3.0v7 M-2.5,-0.5L0,-3.0L2.5,-0.5"/>
  </g>
  <g id="arrowLeft" transform="rotate(270) translate(-36 17)">
    <use xlink:href="#rim"/>
    <path pointer-events="none" fill="none" stroke="white" stroke-width="1.5" d="M0,-3.0v7 M-2.5,-0.5L0,-3.0L2.5,-0.5"/>
  </g>
  <g id="resetDef">
    <use xlink:href="#rim2" fill="#404040"><set attributeName="fill" to="#808080" begin="reset.mouseover" end="reset.mouseout"/></use>
  </g>
</defs>
<script type="application/ecmascript">
var viewWidth = 930;
var viewHeight = 546;
var sectionId = 'dynsection-0';
</script>
<script type="application/ecmascript" xlink:href="../../svg.min.js"/>
<svg id="graph" class="graph">
<g id="viewport">
<title>pcre2cpp::basic_pcre2cpp_exception&lt; utf &gt;</title>
<!-- Node1 -->
<g id="Node000001" class="node">
<title>Node1</title>
<g id="a_Node000001"><a xlink:title="base pcre2cpp exception class">
<polygon fill="#999999" stroke="#666666" points="374,-275 244,-275 244,-243 374,-243 374,-275"/>
<text xml:space="preserve" text-anchor="start" x="252" y="-261.5" font-family="Helvetica,sans-Serif" font-size="10.00">pcre2cpp::basic_pcre2cpp</text>
<text xml:space="preserve" text-anchor="middle" x="309" y="-249.5" font-family="Helvetica,sans-Serif" font-size="10.00">_exception&lt; utf &gt;</text>
</a>
</g>
</g>
<!-- Node4 -->
<g id="Node000004" class="node">
<title>Node4</title>
<g id="a_Node000004"><a xlink:href="../../d5/dab/classpcre2cpp_1_1basic__match__result__exception.html" target="_top" xlink:title=" ">
<polygon fill="white" stroke="#666666" points="922,-538 804.75,-538 804.75,-494 922,-494 922,-538"/>
<text xml:space="preserve" text-anchor="start" x="812.75" y="-524.5" font-family="Helvetica,sans-Serif" font-size="10.00">pcre2cpp::basic_match</text>
<text xml:space="preserve" text-anchor="start" x="812.75" y="-512.5" font-family="Helvetica,sans-Serif" font-size="10.00">_result_exception&lt; utf</text>
<text xml:space="preserve" text-anchor="middle" x="863.38" y="-500.5" font-family="Helvetica,sans-Serif" font-size="10.00">_type::UTF_8 &gt;</text>
</a>
</g>
</g>
<!-- Node1&#45;&gt;Node4 -->
<g id="edge3_Node000001_Node000004" class="edge">
<title>Node1&#45;&gt;Node4</title>
<g id="a_edge3_Node000001_Node000004"><a xlink:title=" ">
<path fill="none" stroke="#63b8ff" d="M314.89,-286.52C323.45,-326.73 344.93,-401.39 392,-444 506.98,-548.1 706.31,-538.23 804.42,-525.57"/>
<polygon fill="#63b8ff" stroke="#63b8ff" points="318.37,-286.06 312.97,-276.94 311.5,-287.43 318.37,-286.06"/>
</a>
</g>
</g>
<!-- Node5 -->
<g id="Node000005" class="node">
<title>Node5</title>
<g id="a_Node000005"><a xlink:href="../../d5/dab/classpcre2cpp_1_1basic__match__result__exception.html" target="_top" xlink:title=" ">
<polygon fill="white" stroke="#666666" points="922,-476 804.75,-476 804.75,-432 922,-432 922,-476"/>
<text xml:space="preserve" text-anchor="start" x="812.75" y="-462.5" font-family="Helvetica,sans-Serif" font-size="10.00">pcre2cpp::basic_match</text>
<text xml:space="preserve" text-anchor="start" x="812.75" y="-450.5" font-family="Helvetica,sans-Serif" font-size="10.00">_result_exception&lt; utf</text>
<text xml:space="preserve" text-anchor="middle" x="863.38" y="-438.5" font-family="Helvetica,sans-Serif" font-size="10.00">_type::UTF_16 &gt;</text>
</a>
</g>
</g>
<!-- Node1&#45;&gt;Node5 -->
<g id="edge4_Node000001_Node000005" class="edge">
<title>Node1&#45;&gt;Node5</title>
<g id="a_edge4_Node000001_Node000005"><a xlink:title=" ">
<path fill="none" stroke="#63b8ff" d="M334.96,-282.97C350.36,-296.64 371.11,-313.16 392,-324 440.74,-349.3 457.09,-346.22 510.5,-359 571.21,-373.53 728.9,-386.54 786.75,-410 795.66,-413.61 796.54,-417 804.75,-422 809.93,-425.16 815.43,-428.38 820.91,-431.5"/>
<polygon fill="#63b8ff" stroke="#63b8ff" points="337.42,-280.48 327.67,-276.33 332.71,-285.65 337.42,-280.48"/>
</a>
</g>
</g>
<!-- Node6 -->
<g id="Node000006" class="node">
<title>Node6</title>
<g id="a_Node000006"><a xlink:href="../../d5/dab/classpcre2cpp_1_1basic__match__result__exception.html" target="_top" xlink:title=" ">
<polygon fill="white" stroke="#666666" points="922,-413 804.75,-413 804.75,-369 922,-369 922,-413"/>
<text xml:space="preserve" text-anchor="start" x="812.75" y="-399.5" font-family="Helvetica,sans-Serif" font-size="10.00">pcre2cpp::basic_match</text>
<text xml:space="preserve" text-anchor="start" x="812.75" y="-387.5" font-family="Helvetica,sans-Serif" font-size="10.00">_result_exception&lt; utf</text>
<text xml:space="preserve" text-anchor="middle" x="863.38" y="-375.5" font-family="Helvetica,sans-Serif" font-size="10.00">_type::UTF_32 &gt;</text>
</a>
</g>
</g>
<!-- Node1&#45;&gt;Node6 -->
<g id="edge5_Node000001_Node000006" class="edge">
<title>Node1&#45;&gt;Node6</title>
<g id="a_edge5_Node000001_Node000006"><a xlink:title=" ">
<path fill="none" stroke="#63b8ff" d="M352.24,-280.24C364.81,-285.96 378.76,-291.74 392,-296 536.92,-342.67 714.64,-371.12 804.48,-383.58"/>
<polygon fill="#63b8ff" stroke="#63b8ff" points="353.97,-277.19 343.43,-276.13 351.01,-283.53 353.97,-277.19"/>
</a>
</g>
</g>
<!-- Node7 -->
<g id="Node000007" class="node">
<title>Node7</title>
<g id="a_Node000007"><a xlink:href="../../d6/dfe/classpcre2cpp_1_1basic__regex__exception.html" target="_top" xlink:title=" ">
<polygon fill="white" stroke="#666666" points="920.5,-349 806.25,-349 806.25,-305 920.5,-305 920.5,-349"/>
<text xml:space="preserve" text-anchor="start" x="814.25" y="-335.5" font-family="Helvetica,sans-Serif" font-size="10.00">pcre2cpp::basic_regex</text>
<text xml:space="preserve" text-anchor="start" x="814.25" y="-323.5" font-family="Helvetica,sans-Serif" font-size="10.00">_exception&lt; utf_type</text>
<text xml:space="preserve" text-anchor="middle" x="863.38" y="-311.5" font-family="Helvetica,sans-Serif" font-size="10.00">::UTF_8 &gt;</text>
</a>
</g>
</g>
<!-- Node1&#45;&gt;Node7 -->
<g id="edge6_Node000001_Node000007" class="edge">
<title>Node1&#45;&gt;Node7</title>
<g id="a_edge6_Node000001_Node000007"><a xlink:title=" ">
<path fill="none" stroke="#63b8ff" d="M385.78,-271.98C387.87,-272.32 389.95,-272.66 392,-273 522.63,-294.36 554.55,-305.75 686.25,-319 726.15,-323.01 771.33,-325.01 805.94,-326.01"/>
<polygon fill="#63b8ff" stroke="#63b8ff" points="386.38,-268.53 375.94,-270.34 385.23,-275.43 386.38,-268.53"/>
</a>
</g>
</g>
<!-- Node8 -->
<g id="Node000008" class="node">
<title>Node8</title>
<g id="a_Node000008"><a xlink:href="../../d6/dfe/classpcre2cpp_1_1basic__regex__exception.html" target="_top" xlink:title=" ">
<polygon fill="white" stroke="#666666" points="920.5,-272 806.25,-272 806.25,-228 920.5,-228 920.5,-272"/>
<text xml:space="preserve" text-anchor="start" x="814.25" y="-258.5" font-family="Helvetica,sans-Serif" font-size="10.00">pcre2cpp::basic_regex</text>
<text xml:space="preserve" text-anchor="start" x="814.25" y="-246.5" font-family="Helvetica,sans-Serif" font-size="10.00">_exception&lt; utf_type</text>
<text xml:space="preserve" text-anchor="middle" x="863.38" y="-234.5" font-family="Helvetica,sans-Serif" font-size="10.00">::UTF_16 &gt;</text>
</a>
</g>
</g>
<!-- Node1&#45;&gt;Node8 -->
<g id="edge7_Node000001_Node000008" class="edge">
<title>Node1&#45;&gt;Node8</title>
<g id="a_edge7_Node000001_Node000008"><a xlink:title=" ">
<path fill="none" stroke="#63b8ff" d="M361.76,-238.68C450.61,-206.81 637.03,-153.23 786.75,-199 805.38,-204.69 823.56,-216.69 837.43,-227.62"/>
<polygon fill="#63b8ff" stroke="#63b8ff" points="360.78,-235.31 352.58,-242.02 363.18,-241.89 360.78,-235.31"/>
</a>
</g>
</g>
<!-- Node9 -->
<g id="Node000009" class="node">
<title>Node9</title>
<g id="a_Node000009"><a xlink:href="../../d6/dfe/classpcre2cpp_1_1basic__regex__exception.html" target="_top" xlink:title=" ">
<polygon fill="white" stroke="#666666" points="920.5,-192 806.25,-192 806.25,-148 920.5,-148 920.5,-192"/>
<text xml:space="preserve" text-anchor="start" x="814.25" y="-178.5" font-family="Helvetica,sans-Serif" font-size="10.00">pcre2cpp::basic_regex</text>
<text xml:space="preserve" text-anchor="start" x="814.25" y="-166.5" font-family="Helvetica,sans-Serif" font-size="10.00">_exception&lt; utf_type</text>
<text xml:space="preserve" text-anchor="middle" x="863.38" y="-154.5" font-family="Helvetica,sans-Serif" font-size="10.00">::UTF_32 &gt;</text>
</a>
</g>
</g>
<!-- Node1&#45;&gt;Node9 -->
<g id="edge8_Node000001_Node000009" class="edge">
<title>Node1&#45;&gt;Node9</title>
<g id="a_edge8_Node000001_Node000009"><a xlink:title=" ">
<path fill="none" stroke="#63b8ff" d="M335.01,-235.01C350.29,-221.73 370.9,-206.1 392,-197 530.94,-137.06 714.72,-149.65 805.96,-161.25"/>
<polygon fill="#63b8ff" stroke="#63b8ff" points="332.89,-232.21 327.79,-241.49 337.57,-237.42 332.89,-232.21"/>
</a>
</g>
</g>
<!-- Node10 -->
<g id="Node000010" class="node">
<title>Node10</title>
<g id="a_Node000010"><a xlink:href="../../d5/dab/classpcre2cpp_1_1basic__match__result__exception.html" target="_top" xlink:title="match result exception class">
<polygon fill="white" stroke="#666666" points="650.25,-474 528.5,-474 528.5,-442 650.25,-442 650.25,-474"/>
<text xml:space="preserve" text-anchor="start" x="536.5" y="-460.5" font-family="Helvetica,sans-Serif" font-size="10.00">pcre2cpp::basic_match</text>
<text xml:space="preserve" text-anchor="middle" x="589.38" y="-448.5" font-family="Helvetica,sans-Serif" font-size="10.00">_result_exception&lt; utf &gt;</text>
</a>
</g>
</g>
<!-- Node1&#45;&gt;Node10 -->
<g id="edge9_Node000001_Node000010" class="edge">
<title>Node1&#45;&gt;Node10</title>
<g id="a_edge9_Node000001_Node000010"><a xlink:title=" ">
<path fill="none" stroke="#63b8ff" d="M317.28,-286.07C327.9,-320.25 350.99,-378.4 392,-410 431.06,-440.1 486.4,-451.62 528.38,-455.88"/>
<polygon fill="#63b8ff" stroke="#63b8ff" points="320.65,-285.12 314.46,-276.52 313.93,-287.1 320.65,-285.12"/>
</a>
</g>
</g>
<!-- Node11 -->
<g id="Node000011" class="node">
<title>Node11</title>
<g id="a_Node000011"><a xlink:href="../../d6/dfe/classpcre2cpp_1_1basic__regex__exception.html" target="_top" xlink:title="regex exception class">
<polygon fill="white" stroke="#666666" points="646.5,-275 532.25,-275 532.25,-243 646.5,-243 646.5,-275"/>
<text xml:space="preserve" text-anchor="start" x="540.25" y="-261.5" font-family="Helvetica,sans-Serif" font-size="10.00">pcre2cpp::basic_regex</text>
<text xml:space="preserve" text-anchor="middle" x="589.38" y="-249.5" font-family="Helvetica,sans-Serif" font-size="10.00">_exception&lt; utf &gt;</text>
</a>
</g>
</g>
<!-- Node1&#45;&gt;Node11 -->
<g id="edge13_Node000001_Node000011" class="edge">
<title>Node1&#45;&gt;Node11</title>
<g id="a_edge13_Node000001_Node000011"><a xlink:title=" ">
<path fill="none" stroke="#63b8ff" d="M385.68,-259C431.86,-259 489.9,-259 532.03,-259"/>
<polygon fill="#63b8ff" stroke="#63b8ff" points="385.73,-255.5 375.73,-259 385.73,-262.5 385.73,-255.5"/>
</a>
</g>
</g>
<!-- Node12 -->
<g id="Node000012" class="node">
<title>Node12</title>
<g id="a_Node000012"><a xlink:href="../../df/d62/classpcre2cpp_1_1basic__pcre2cpp__exception.html" target="_top" xlink:title=" ">
<polygon fill="white" stroke="#666666" points="665.62,-132 513.12,-132 513.12,-100 665.62,-100 665.62,-132"/>
<text xml:space="preserve" text-anchor="start" x="521.12" y="-118.5" font-family="Helvetica,sans-Serif" font-size="10.00">pcre2cpp::basic_pcre2cpp</text>
<text xml:space="preserve" text-anchor="middle" x="589.38" y="-106.5" font-family="Helvetica,sans-Serif" font-size="10.00">_exception&lt; utf_type::UTF_8 &gt;</text>
</a>
</g>
</g>
<!-- Node1&#45;&gt;Node12 -->
<g id="edge17_Node000001_Node000012" class="edge">
<title>Node1&#45;&gt;Node12</title>
<g id="a_edge17_Node000001_Node000012"><a xlink:title=" ">
<path fill="none" stroke="orange" stroke-dasharray="5,2" d="M318.43,-232.04C329.71,-200.97 352.97,-151.2 392,-128 427.82,-106.71 474.1,-102.99 512.73,-104.92"/>
<polygon fill="orange" stroke="orange" points="315.24,-230.54 315.3,-241.13 321.86,-232.82 315.24,-230.54"/>
</a>
</g>
<text xml:space="preserve" text-anchor="start" x="397.62" y="-133.5" font-family="Helvetica,sans-Serif" font-size="10.00" fill="grey">&lt; utf_type::UTF_8 &gt;</text>
</g>
<!-- Node13 -->
<g id="Node000013" class="node">
<title>Node13</title>
<g id="a_Node000013"><a xlink:href="../../df/d62/classpcre2cpp_1_1basic__pcre2cpp__exception.html" target="_top" xlink:title=" ">
<polygon fill="white" stroke="#666666" points="668.25,-82 510.5,-82 510.5,-50 668.25,-50 668.25,-82"/>
<text xml:space="preserve" text-anchor="start" x="518.5" y="-68.5" font-family="Helvetica,sans-Serif" font-size="10.00">pcre2cpp::basic_pcre2cpp</text>
<text xml:space="preserve" text-anchor="middle" x="589.38" y="-56.5" font-family="Helvetica,sans-Serif" font-size="10.00">_exception&lt; utf_type::UTF_16 &gt;</text>
</a>
</g>
</g>
<!-- Node1&#45;&gt;Node13 -->
<g id="edge18_Node000001_Node000013" class="edge">
<title>Node1&#45;&gt;Node13</title>
<g id="a_edge18_Node000001_Node000013"><a xlink:title=" ">
<path fill="none" stroke="orange" stroke-dasharray="5,2" d="M314.14,-231.41C321.76,-191.31 342.07,-117.94 392,-83 425.93,-59.26 471.65,-54.16 510.44,-55.39"/>
<polygon fill="orange" stroke="orange" points="310.7,-230.76 312.43,-241.21 317.6,-231.96 310.7,-230.76"/>
</a>
</g>
<text xml:space="preserve" text-anchor="start" x="395" y="-88.5" font-family="Helvetica,sans-Serif" font-size="10.00" fill="grey">&lt; utf_type::UTF_16 &gt;</text>
</g>
<!-- Node14 -->
<g id="Node000014" class="node">
<title>Node14</title>
<g id="a_Node000014"><a xlink:href="../../df/d62/classpcre2cpp_1_1basic__pcre2cpp__exception.html" target="_top" xlink:title=" ">
<polygon fill="white" stroke="#666666" points="668.25,-32 510.5,-32 510.5,0 668.25,0 668.25,-32"/>
<text xml:space="preserve" text-anchor="start" x="518.5" y="-18.5" font-family="Helvetica,sans-Serif" font-size="10.00">pcre2cpp::basic_pcre2cpp</text>
<text xml:space="preserve" text-anchor="middle" x="589.38" y="-6.5" font-family="Helvetica,sans-Serif" font-size="10.00">_exception&lt; utf_type::UTF_32 &gt;</text>
</a>
</g>
</g>
<!-- Node1&#45;&gt;Node14 -->
<g id="edge19_Node000001_Node000014" class="edge">
<title>Node1&#45;&gt;Node14</title>
<g id="a_edge19_Node000001_Node000014"><a xlink:title=" ">
<path fill="none" stroke="orange" stroke-dasharray="5,2" d="M310.98,-231.59C314.33,-182.78 328.96,-81.37 392,-33 424.98,-7.69 470.89,-2.57 510.03,-4.19"/>
<polygon fill="orange" stroke="orange" points="307.5,-231.11 310.43,-241.29 314.49,-231.51 307.5,-231.11"/>
</a>
</g>
<text xml:space="preserve" text-anchor="start" x="395" y="-38.5" font-family="Helvetica,sans-Serif" font-size="10.00" fill="grey">&lt; utf_type::UTF_32 &gt;</text>
</g>
<!-- Node2 -->
<g id="Node000002" class="node">
<title>Node2</title>
<g id="a_Node000002"><a xlink:title=" ">
<polygon fill="white" stroke="#666666" points="207,-269 114.5,-269 114.5,-249 207,-249 207,-269"/>
<text xml:space="preserve" text-anchor="middle" x="160.75" y="-255.5" font-family="Helvetica,sans-Serif" font-size="10.00">std::runtime_error</text>
</a>
</g>
</g>
<!-- Node2&#45;&gt;Node1 -->
<g id="edge1_Node000001_Node000002" class="edge">
<title>Node2&#45;&gt;Node1</title>
<g id="a_edge1_Node000001_Node000002"><a xlink:title=" ">
<path fill="none" stroke="#63b8ff" d="M218.63,-259C226.87,-259 235.39,-259 243.76,-259"/>
<polygon fill="#63b8ff" stroke="#63b8ff" points="218.74,-255.5 208.74,-259 218.74,-262.5 218.74,-255.5"/>
</a>
</g>
</g>
<!-- Node3 -->
<g id="Node000003" class="node">
<title>Node3</title>
<g id="a_Node000003"><a xlink:title=" ">
<polygon fill="white" stroke="#666666" points="77.5,-269 0,-269 0,-249 77.5,-249 77.5,-269"/>
<text xml:space="preserve" text-anchor="middle" x="38.75" y="-255.5" font-family="Helvetica,sans-Serif" font-size="10.00">std::exception</text>
</a>
</g>
</g>
<!-- Node3&#45;&gt;Node2 -->
<g id="edge2_Node000002_Node000003" class="edge">
<title>Node3&#45;&gt;Node2</title>
<g id="a_edge2_Node000002_Node000003"><a xlink:title=" ">
<path fill="none" stroke="#63b8ff" d="M89.12,-259C97.37,-259 105.89,-259 114.04,-259"/>
<polygon fill="#63b8ff" stroke="#63b8ff" points="89.23,-255.5 79.23,-259 89.23,-262.5 89.23,-255.5"/>
</a>
</g>
</g>
<!-- Node10&#45;&gt;Node4 -->
<g id="edge10_Node000010_Node000004" class="edge">
<title>Node10&#45;&gt;Node4</title>
<g id="a_edge10_Node000010_Node000004"><a xlink:title=" ">
<path fill="none" stroke="orange" stroke-dasharray="5,2" d="M661.78,-473.23C706.29,-482.72 762.81,-494.77 804.51,-503.66"/>
<polygon fill="orange" stroke="orange" points="662.73,-469.85 652.22,-471.19 661.27,-476.7 662.73,-469.85"/>
</a>
</g>
<text xml:space="preserve" text-anchor="start" x="691.88" y="-504.36" font-family="Helvetica,sans-Serif" font-size="10.00" fill="grey">&lt; utf_type::UTF_8 &gt;</text>
</g>
<!-- Node10&#45;&gt;Node5 -->
<g id="edge11_Node000010_Node000005" class="edge">
<title>Node10&#45;&gt;Node5</title>
<g id="a_edge11_Node000010_Node000005"><a xlink:title=" ">
<path fill="none" stroke="orange" stroke-dasharray="5,2" d="M662.06,-456.95C706.52,-456.29 762.9,-455.46 804.51,-454.85"/>
<polygon fill="orange" stroke="orange" points="662.2,-453.44 652.25,-457.09 662.3,-460.44 662.2,-453.44"/>
</a>
</g>
<text xml:space="preserve" text-anchor="start" x="689.25" y="-461.98" font-family="Helvetica,sans-Serif" font-size="10.00" fill="grey">&lt; utf_type::UTF_16 &gt;</text>
</g>
<!-- Node10&#45;&gt;Node6 -->
<g id="edge12_Node000010_Node000006" class="edge">
<title>Node10&#45;&gt;Node6</title>
<g id="a_edge12_Node000010_Node000006"><a xlink:title=" ">
<path fill="none" stroke="orange" stroke-dasharray="5,2" d="M661.55,-439.26C669.87,-437.13 678.24,-435 686.25,-433 725.59,-423.18 770.01,-412.59 804.39,-404.5"/>
<polygon fill="orange" stroke="orange" points="660.95,-435.8 652.14,-441.69 662.7,-442.58 660.95,-435.8"/>
</a>
</g>
<text xml:space="preserve" text-anchor="start" x="689.25" y="-438.5" font-family="Helvetica,sans-Serif" font-size="10.00" fill="grey">&lt; utf_type::UTF_32 &gt;</text>
</g>
<!-- Node11&#45;&gt;Node7 -->
<g id="edge14_Node000011_Node000007" class="edge">
<title>Node11&#45;&gt;Node7</title>
<g id="a_edge14_Node000011_Node000007"><a xlink:title=" ">
<path fill="none" stroke="orange" stroke-dasharray="5,2" d="M657.77,-272.51C704.62,-282.08 762.8,-294.35 786.75,-301 793.04,-302.75 799.57,-304.73 806.03,-306.8"/>
<polygon fill="orange" stroke="orange" points="658.72,-269.13 648.22,-270.57 657.32,-275.99 658.72,-269.13"/>
</a>
</g>
<text xml:space="preserve" text-anchor="start" x="691.88" y="-306.5" font-family="Helvetica,sans-Serif" font-size="10.00" fill="grey">&lt; utf_type::UTF_8 &gt;</text>
</g>
<!-- Node11&#45;&gt;Node8 -->
<g id="edge15_Node000011_Node000008" class="edge">
<title>Node11&#45;&gt;Node8</title>
<g id="a_edge15_Node000011_Node000008"><a xlink:title=" ">
<path fill="none" stroke="orange" stroke-dasharray="5,2" d="M658.01,-256.76C703.61,-255.25 763.07,-253.29 806.09,-251.86"/>
<polygon fill="orange" stroke="orange" points="658.13,-253.26 648.25,-257.09 658.36,-260.25 658.13,-253.26"/>
</a>
</g>
<text xml:space="preserve" text-anchor="start" x="689.25" y="-261.07" font-family="Helvetica,sans-Serif" font-size="10.00" fill="grey">&lt; utf_type::UTF_16 &gt;</text>
</g>
<!-- Node11&#45;&gt;Node9 -->
<g id="edge16_Node000011_Node000009" class="edge">
<title>Node11&#45;&gt;Node9</title>
<g id="a_edge16_Node000011_Node000009"><a xlink:title=" ">
<path fill="none" stroke="orange" stroke-dasharray="5,2" d="M651.37,-239.04C697.64,-223.9 760.76,-203.25 805.89,-188.48"/>
<polygon fill="orange" stroke="orange" points="650.44,-235.67 642.02,-242.1 652.61,-242.32 650.44,-235.67"/>
</a>
</g>
<text xml:space="preserve" text-anchor="start" x="689.25" y="-230.59" font-family="Helvetica,sans-Serif" font-size="10.00" fill="grey">&lt; utf_type::UTF_32 &gt;</text>
</g>
</g>
</svg>

<g id="navigator" transform="translate(0 0)" fill="#404254">
  <rect fill="#f2f5e9" fill-opacity="0.5" stroke="#606060" stroke-width=".5" x="0" y="0" width="60" height="60"/>
  <use id="zoomplus" xlink:href="#zoomPlus" x="17" y="9" onmousedown="handleZoom(evt,'in')"/>
  <use id="zoomminus" xlink:href="#zoomMin" x="42" y="9" onmousedown="handleZoom(evt,'out')"/>
  <use id="reset" xlink:href="#resetDef" x="30" y="36" onmousedown="handleReset()"/>
   <use id="arrowup" xlink:href="#arrowUp" x="0" y="0" onmousedown="handlePan(0,-1)"/>
  <use id="arrowright" xlink:href="#arrowRight" x="0" y="0" onmousedown="handlePan(1,0)"/>
  <use id="arrowdown" xlink:href="#arrowDown" x="0" y="0" onmousedown="handlePan(0,1)"/>
  <use id="arrowleft" xlink:href="#arrowLeft" x="0" y="0" onmousedown="handlePan(-1,0)"/>
</g>
<svg viewBox="0 0 15 15" width="100%" height="30px" preserveAspectRatio="xMaxYMin meet">
 <g id="arrow_out" transform="scale(0.3 0.3)">
  <a xlink:href="classpcre2cpp_1_1basic__pcre2cpp__exception__inherit__graph_org.svg" target="_base">
   <rect id="button" ry="5" rx="5" y="6" x="6" height="38" width="38"
        fill="#f2f5e9" fill-opacity="0.5" stroke="#606060" stroke-width="1.0"/>
   <path id="arrow"
     d="M 11.500037,31.436501 C 11.940474,20.09759 22.043105,11.32322 32.158766,21.979434 L 37.068811,17.246167 C 37.068811,17.246167 37.088388,32 37.088388,32 L 22.160133,31.978069 C 22.160133,31.978069 26.997745,27.140456 26.997745,27.140456 C 18.528582,18.264221 13.291696,25.230495 11.500037,31.436501 z"
     style="fill:#404040;"/>
  </a>
 </g>
</svg>

<style type='text/css'>
<![CDATA[
[data-mouse-over-selected='false'] { opacity: 0.7; }
[data-mouse-over-selected='true']  { opacity: 1.0; }
]]>
</style>
<script type="application/ecmascript"><![CDATA[
document.addEventListener('DOMContentLoaded', (event) => {
  highlightEdges();
  highlightAdjacentNodes();
});
]]></script>
</svg>
