<?xml version="1.0" encoding="UTF-8" standalone="no"?>
<!DOCTYPE svg PUBLIC "-//W3C//DTD SVG 1.1//EN"
 "http://www.w3.org/Graphics/SVG/1.1/DTD/svg11.dtd">
<!-- Generated by graphviz version 14.1.1 (20251213.1925)
 -->
<!-- Title: pcre2cpp::basic_pcre2cpp_exception&lt; utf &gt; Pages: 1 -->
<svg width="944pt" height="750pt"
 viewBox="0.00 0.00 944.00 750.00" xmlns="http://www.w3.org/2000/svg" xmlns:xlink="http://www.w3.org/1999/xlink">
<g id="graph0" class="graph" transform="scale(1 1) rotate(0) translate(4 745.91)">
<title>pcre2cpp::basic_pcre2cpp_exception&lt; utf &gt;</title>
<!-- Node1 -->
<g id="Node000001" class="node">
<title>Node1</title>
<g id="a_Node000001"><a xlink:title="base pcre2cpp exception class">
<polygon fill="#999999" stroke="#666666" points="374,-411.91 244,-411.91 244,-379.91 374,-379.91 374,-411.91"/>
<text xml:space="preserve" text-anchor="start" x="252" y="-398.41" font-family="Helvetica,sans-Serif" font-size="10.00">pcre2cpp::basic_pcre2cpp</text>
<text xml:space="preserve" text-anchor="middle" x="309" y="-386.41" font-family="Helvetica,sans-Serif" font-size="10.00">_exception&lt; utf &gt;</text>
</a>
</g>
</g>
<!-- Node4 -->
<g id="Node000004" class="node">
<title>Node4</title>
<g id="a_Node000004"><a xlink:href="../../d5/dab/classpcre2cpp_1_1basic__match__result__exception.html" target="_top" xlink:title=" ">
<polygon fill="white" stroke="#666666" points="928.75,-657.91 811.5,-657.91 811.5,-613.91 928.75,-613.91 928.75,-657.91"/>
<text xml:space="preserve" text-anchor="start" x="819.5" y="-644.41" font-family="Helvetica,sans-Serif" font-size="10.00">pcre2cpp::basic_match</text>
<text xml:space="preserve" text-anchor="start" x="819.5" y="-632.41" font-family="Helvetica,sans-Serif" font-size="10.00">_result_exception&lt; utf</text>
<text xml:space="preserve" text-anchor="middle" x="870.12" y="-620.41" font-family="Helvetica,sans-Serif" font-size="10.00">_type::UTF_8 &gt;</text>
</a>
</g>
</g>
<!-- Node1&#45;&gt;Node4 -->
<g id="edge3_Node000001_Node000004" class="edge">
<title>Node1&#45;&gt;Node4</title>
<g id="a_edge3_Node000001_Node000004"><a xlink:title=" ">
<path fill="none" stroke="#63b8ff" d="M315.8,-423.59C325.29,-462.4 347.68,-532.92 392,-574.91 494.05,-671.59 548.15,-664.67 686.25,-690.91 730.13,-699.24 744,-703.87 786.75,-690.91 807.98,-684.47 828.73,-670.56 844.09,-658.33"/>
<polygon fill="#63b8ff" stroke="#63b8ff" points="319.22,-422.83 313.55,-413.88 312.4,-424.41 319.22,-422.83"/>
</a>
</g>
</g>
<!-- Node5 -->
<g id="Node000005" class="node">
<title>Node5</title>
<g id="a_Node000005"><a xlink:href="../../d5/dab/classpcre2cpp_1_1basic__match__result__exception.html" target="_top" xlink:title=" ">
<polygon fill="white" stroke="#666666" points="928.75,-741.91 811.5,-741.91 811.5,-697.91 928.75,-697.91 928.75,-741.91"/>
<text xml:space="preserve" text-anchor="start" x="819.5" y="-728.41" font-family="Helvetica,sans-Serif" font-size="10.00">pcre2cpp::basic_match</text>
<text xml:space="preserve" text-anchor="start" x="819.5" y="-716.41" font-family="Helvetica,sans-Serif" font-size="10.00">_result_exception&lt; utf</text>
<text xml:space="preserve" text-anchor="middle" x="870.12" y="-704.41" font-family="Helvetica,sans-Serif" font-size="10.00">_type::UTF_16 &gt;</text>
</a>
</g>
</g>
<!-- Node1&#45;&gt;Node5 -->
<g id="edge4_Node000001_Node000005" class="edge">
<title>Node1&#45;&gt;Node5</title>
<g id="a_edge4_Node000001_Node000005"><a xlink:title=" ">
<path fill="none" stroke="#63b8ff" d="M313.19,-423.4C319.93,-470.06 339.55,-565.46 392,-624.91 498.03,-745.08 709.01,-739.3 811.11,-728.26"/>
<polygon fill="#63b8ff" stroke="#63b8ff" points="316.68,-423.07 311.88,-413.62 309.74,-424 316.68,-423.07"/>
</a>
</g>
</g>
<!-- Node6 -->
<g id="Node000006" class="node">
<title>Node6</title>
<g id="a_Node000006"><a xlink:href="../../d5/dab/classpcre2cpp_1_1basic__match__result__exception.html" target="_top" xlink:title=" ">
<polygon fill="white" stroke="#666666" points="928.75,-532.91 811.5,-532.91 811.5,-488.91 928.75,-488.91 928.75,-532.91"/>
<text xml:space="preserve" text-anchor="start" x="819.5" y="-519.41" font-family="Helvetica,sans-Serif" font-size="10.00">pcre2cpp::basic_match</text>
<text xml:space="preserve" text-anchor="start" x="819.5" y="-507.41" font-family="Helvetica,sans-Serif" font-size="10.00">_result_exception&lt; utf</text>
<text xml:space="preserve" text-anchor="middle" x="870.12" y="-495.41" font-family="Helvetica,sans-Serif" font-size="10.00">_type::UTF_32 &gt;</text>
</a>
</g>
</g>
<!-- Node1&#45;&gt;Node6 -->
<g id="edge5_Node000001_Node000006" class="edge">
<title>Node1&#45;&gt;Node6</title>
<g id="a_edge5_Node000001_Node000006"><a xlink:title=" ">
<path fill="none" stroke="#63b8ff" d="M337.95,-418.94C353.05,-430.14 372.54,-442.7 392,-449.91 411.45,-457.11 688.29,-489.9 811.13,-504.2"/>
<polygon fill="#63b8ff" stroke="#63b8ff" points="340.43,-416.43 330.36,-413.13 336.17,-421.99 340.43,-416.43"/>
</a>
</g>
</g>
<!-- Node7 -->
<g id="Node000007" class="node">
<title>Node7</title>
<g id="a_Node000007"><a xlink:href="../../d5/dab/classpcre2cpp_1_1basic__match__result__exception.html" target="_top" xlink:title=" ">
<polygon fill="white" stroke="#666666" points="935.5,-595.91 804.75,-595.91 804.75,-551.91 935.5,-551.91 935.5,-595.91"/>
<text xml:space="preserve" text-anchor="start" x="812.75" y="-582.41" font-family="Helvetica,sans-Serif" font-size="10.00">pcre2cpp::basic_match</text>
<text xml:space="preserve" text-anchor="start" x="812.75" y="-570.41" font-family="Helvetica,sans-Serif" font-size="10.00">_result_exception&lt; default</text>
<text xml:space="preserve" text-anchor="middle" x="870.12" y="-558.41" font-family="Helvetica,sans-Serif" font-size="10.00">_utf_type &gt;</text>
</a>
</g>
</g>
<!-- Node1&#45;&gt;Node7 -->
<g id="edge6_Node000001_Node000007" class="edge">
<title>Node1&#45;&gt;Node7</title>
<g id="a_edge6_Node000001_Node000007"><a xlink:title=" ">
<path fill="none" stroke="#63b8ff" d="M330.13,-420.67C345.32,-437.59 367.64,-459.02 392,-470.91 551.42,-548.71 620.99,-466.73 786.75,-529.91 795.73,-533.33 796.43,-537.09 804.75,-541.91 810.37,-545.16 816.36,-548.41 822.34,-551.53"/>
<polygon fill="#63b8ff" stroke="#63b8ff" points="333.07,-418.71 323.87,-413.45 327.78,-423.3 333.07,-418.71"/>
</a>
</g>
</g>
<!-- Node8 -->
<g id="Node000008" class="node">
<title>Node8</title>
<g id="a_Node000008"><a xlink:href="../../d6/dfe/classpcre2cpp_1_1basic__regex__exception.html" target="_top" xlink:title=" ">
<polygon fill="white" stroke="#666666" points="927.25,-402.91 813,-402.91 813,-358.91 927.25,-358.91 927.25,-402.91"/>
<text xml:space="preserve" text-anchor="start" x="821" y="-389.41" font-family="Helvetica,sans-Serif" font-size="10.00">pcre2cpp::basic_regex</text>
<text xml:space="preserve" text-anchor="start" x="821" y="-377.41" font-family="Helvetica,sans-Serif" font-size="10.00">_exception&lt; utf_type</text>
<text xml:space="preserve" text-anchor="middle" x="870.12" y="-365.41" font-family="Helvetica,sans-Serif" font-size="10.00">::UTF_8 &gt;</text>
</a>
</g>
</g>
<!-- Node1&#45;&gt;Node8 -->
<g id="edge7_Node000001_Node000008" class="edge">
<title>Node1&#45;&gt;Node8</title>
<g id="a_edge7_Node000001_Node000008"><a xlink:title=" ">
<path fill="none" stroke="#63b8ff" d="M385.38,-407.74C479.94,-420.42 646.67,-435.62 786.75,-410.91 796.34,-409.22 806.29,-406.49 815.81,-403.36"/>
<polygon fill="#63b8ff" stroke="#63b8ff" points="386.1,-404.3 375.71,-406.41 385.15,-411.24 386.1,-404.3"/>
</a>
</g>
</g>
<!-- Node9 -->
<g id="Node000009" class="node">
<title>Node9</title>
<g id="a_Node000009"><a xlink:href="../../d6/dfe/classpcre2cpp_1_1basic__regex__exception.html" target="_top" xlink:title=" ">
<polygon fill="white" stroke="#666666" points="927.25,-468.91 813,-468.91 813,-424.91 927.25,-424.91 927.25,-468.91"/>
<text xml:space="preserve" text-anchor="start" x="821" y="-455.41" font-family="Helvetica,sans-Serif" font-size="10.00">pcre2cpp::basic_regex</text>
<text xml:space="preserve" text-anchor="start" x="821" y="-443.41" font-family="Helvetica,sans-Serif" font-size="10.00">_exception&lt; utf_type</text>
<text xml:space="preserve" text-anchor="middle" x="870.12" y="-431.41" font-family="Helvetica,sans-Serif" font-size="10.00">::UTF_16 &gt;</text>
</a>
</g>
</g>
<!-- Node1&#45;&gt;Node9 -->
<g id="edge8_Node000001_Node000009" class="edge">
<title>Node1&#45;&gt;Node9</title>
<g id="a_edge8_Node000001_Node000009"><a xlink:title=" ">
<path fill="none" stroke="#63b8ff" d="M355.56,-416.52C367.23,-421 379.9,-425.2 392,-427.91 541.07,-461.2 722.71,-456.41 812.82,-451.11"/>
<polygon fill="#63b8ff" stroke="#63b8ff" points="357.17,-413.39 346.59,-412.92 354.57,-419.89 357.17,-413.39"/>
</a>
</g>
</g>
<!-- Node10 -->
<g id="Node000010" class="node">
<title>Node10</title>
<g id="a_Node000010"><a xlink:href="../../d6/dfe/classpcre2cpp_1_1basic__regex__exception.html" target="_top" xlink:title=" ">
<polygon fill="white" stroke="#666666" points="927.25,-242.91 813,-242.91 813,-198.91 927.25,-198.91 927.25,-242.91"/>
<text xml:space="preserve" text-anchor="start" x="821" y="-229.41" font-family="Helvetica,sans-Serif" font-size="10.00">pcre2cpp::basic_regex</text>
<text xml:space="preserve" text-anchor="start" x="821" y="-217.41" font-family="Helvetica,sans-Serif" font-size="10.00">_exception&lt; utf_type</text>
<text xml:space="preserve" text-anchor="middle" x="870.12" y="-205.41" font-family="Helvetica,sans-Serif" font-size="10.00">::UTF_32 &gt;</text>
</a>
</g>
</g>
<!-- Node1&#45;&gt;Node10 -->
<g id="edge9_Node000001_Node000010" class="edge">
<title>Node1&#45;&gt;Node10</title>
<g id="a_edge9_Node000001_Node000010"><a xlink:title=" ">
<path fill="none" stroke="#63b8ff" d="M328.69,-370.83C344.06,-351.5 367.27,-325.09 392,-306.91 438.93,-272.41 454.24,-266.02 510.5,-250.91 614.58,-222.94 741.23,-219.04 812.77,-219.48"/>
<polygon fill="#63b8ff" stroke="#63b8ff" points="326.11,-368.45 322.73,-378.49 331.63,-372.75 326.11,-368.45"/>
</a>
</g>
</g>
<!-- Node11 -->
<g id="Node000011" class="node">
<title>Node11</title>
<g id="a_Node000011"><a xlink:href="../../d6/dfe/classpcre2cpp_1_1basic__regex__exception.html" target="_top" xlink:title=" ">
<polygon fill="white" stroke="#666666" points="929.12,-322.91 811.12,-322.91 811.12,-278.91 929.12,-278.91 929.12,-322.91"/>
<text xml:space="preserve" text-anchor="start" x="819.12" y="-309.41" font-family="Helvetica,sans-Serif" font-size="10.00">pcre2cpp::basic_regex</text>
<text xml:space="preserve" text-anchor="start" x="819.12" y="-297.41" font-family="Helvetica,sans-Serif" font-size="10.00">_exception&lt; default_utf</text>
<text xml:space="preserve" text-anchor="middle" x="870.12" y="-285.41" font-family="Helvetica,sans-Serif" font-size="10.00">_type &gt;</text>
</a>
</g>
</g>
<!-- Node1&#45;&gt;Node11 -->
<g id="edge10_Node000001_Node000011" class="edge">
<title>Node1&#45;&gt;Node11</title>
<g id="a_edge10_Node000001_Node000011"><a xlink:title=" ">
<path fill="none" stroke="#63b8ff" d="M350.73,-374.22C418.2,-339.67 558.4,-273.61 686.25,-249.91 730.17,-241.76 743.79,-237.68 786.75,-249.91 806.65,-255.57 826.44,-267.56 841.64,-278.5"/>
<polygon fill="#63b8ff" stroke="#63b8ff" points="349.17,-371.09 341.89,-378.79 352.38,-377.31 349.17,-371.09"/>
</a>
</g>
</g>
<!-- Node12 -->
<g id="Node000012" class="node">
<title>Node12</title>
<g id="a_Node000012"><a xlink:href="../../d5/dab/classpcre2cpp_1_1basic__match__result__exception.html" target="_top" xlink:title="match result exception class">
<polygon fill="white" stroke="#666666" points="650.25,-605.91 528.5,-605.91 528.5,-573.91 650.25,-573.91 650.25,-605.91"/>
<text xml:space="preserve" text-anchor="start" x="536.5" y="-592.41" font-family="Helvetica,sans-Serif" font-size="10.00">pcre2cpp::basic_match</text>
<text xml:space="preserve" text-anchor="middle" x="589.38" y="-580.41" font-family="Helvetica,sans-Serif" font-size="10.00">_result_exception&lt; utf &gt;</text>
</a>
</g>
</g>
<!-- Node1&#45;&gt;Node12 -->
<g id="edge11_Node000001_Node000012" class="edge">
<title>Node1&#45;&gt;Node12</title>
<g id="a_edge11_Node000001_Node000012"><a xlink:title=" ">
<path fill="none" stroke="#63b8ff" d="M318.03,-422.7C329.23,-455.38 352.7,-509.96 392,-539.91 431.17,-569.76 486.23,-581.92 528.08,-586.8"/>
<polygon fill="#63b8ff" stroke="#63b8ff" points="321.48,-421.99 315.05,-413.57 314.82,-424.16 321.48,-421.99"/>
</a>
</g>
</g>
<!-- Node13 -->
<g id="Node000013" class="node">
<title>Node13</title>
<g id="a_Node000013"><a xlink:href="../../d6/dfe/classpcre2cpp_1_1basic__regex__exception.html" target="_top" xlink:title="regex exception class">
<polygon fill="white" stroke="#666666" points="646.5,-366.91 532.25,-366.91 532.25,-334.91 646.5,-334.91 646.5,-366.91"/>
<text xml:space="preserve" text-anchor="start" x="540.25" y="-353.41" font-family="Helvetica,sans-Serif" font-size="10.00">pcre2cpp::basic_regex</text>
<text xml:space="preserve" text-anchor="middle" x="589.38" y="-341.41" font-family="Helvetica,sans-Serif" font-size="10.00">_exception&lt; utf &gt;</text>
</a>
</g>
</g>
<!-- Node1&#45;&gt;Node13 -->
<g id="edge16_Node000001_Node000013" class="edge">
<title>Node1&#45;&gt;Node13</title>
<g id="a_edge16_Node000001_Node000013"><a xlink:title=" ">
<path fill="none" stroke="#63b8ff" d="M385.39,-383.72C431.61,-376.25 489.81,-366.84 532.03,-360.02"/>
<polygon fill="#63b8ff" stroke="#63b8ff" points="385.02,-380.23 375.71,-385.29 386.14,-387.14 385.02,-380.23"/>
</a>
</g>
</g>
<!-- Node14 -->
<g id="Node000014" class="node">
<title>Node14</title>
<g id="a_Node000014"><a xlink:href="../../df/d62/classpcre2cpp_1_1basic__pcre2cpp__exception.html" target="_top" xlink:title=" ">
<polygon fill="white" stroke="#666666" points="665.62,-182.91 513.12,-182.91 513.12,-150.91 665.62,-150.91 665.62,-182.91"/>
<text xml:space="preserve" text-anchor="start" x="521.12" y="-169.41" font-family="Helvetica,sans-Serif" font-size="10.00">pcre2cpp::basic_pcre2cpp</text>
<text xml:space="preserve" text-anchor="middle" x="589.38" y="-157.41" font-family="Helvetica,sans-Serif" font-size="10.00">_exception&lt; utf_type::UTF_8 &gt;</text>
</a>
</g>
</g>
<!-- Node1&#45;&gt;Node14 -->
<g id="edge21_Node000001_Node000014" class="edge">
<title>Node1&#45;&gt;Node14</title>
<g id="a_edge21_Node000001_Node000014"><a xlink:title=" ">
<path fill="none" stroke="orange" stroke-dasharray="5,2" d="M311.32,-368.41C315.23,-320.87 330.72,-224.09 392,-178.91 426.09,-153.77 473.23,-150.17 512.78,-153.14"/>
<polygon fill="orange" stroke="orange" points="307.84,-367.91 310.64,-378.13 314.83,-368.4 307.84,-367.91"/>
</a>
</g>
<text xml:space="preserve" text-anchor="start" x="397.62" y="-184.41" font-family="Helvetica,sans-Serif" font-size="10.00" fill="grey">&lt; utf_type::UTF_8 &gt;</text>
</g>
<!-- Node15 -->
<g id="Node000015" class="node">
<title>Node15</title>
<g id="a_Node000015"><a xlink:href="../../df/d62/classpcre2cpp_1_1basic__pcre2cpp__exception.html" target="_top" xlink:title=" ">
<polygon fill="white" stroke="#666666" points="668.25,-132.91 510.5,-132.91 510.5,-100.91 668.25,-100.91 668.25,-132.91"/>
<text xml:space="preserve" text-anchor="start" x="518.5" y="-119.41" font-family="Helvetica,sans-Serif" font-size="10.00">pcre2cpp::basic_pcre2cpp</text>
<text xml:space="preserve" text-anchor="middle" x="589.38" y="-107.41" font-family="Helvetica,sans-Serif" font-size="10.00">_exception&lt; utf_type::UTF_16 &gt;</text>
</a>
</g>
</g>
<!-- Node1&#45;&gt;Node15 -->
<g id="edge22_Node000001_Node000015" class="edge">
<title>Node1&#45;&gt;Node15</title>
<g id="a_edge22_Node000001_Node000015"><a xlink:title=" ">
<path fill="none" stroke="orange" stroke-dasharray="5,2" d="M309.16,-368.35C309.13,-312.98 317.81,-188.56 392,-129.91 424.7,-104.06 470.83,-99.89 510.17,-102.62"/>
<polygon fill="orange" stroke="orange" points="305.65,-368.19 309.27,-378.15 312.65,-368.11 305.65,-368.19"/>
</a>
</g>
<text xml:space="preserve" text-anchor="start" x="395" y="-135.41" font-family="Helvetica,sans-Serif" font-size="10.00" fill="grey">&lt; utf_type::UTF_16 &gt;</text>
</g>
<!-- Node16 -->
<g id="Node000016" class="node">
<title>Node16</title>
<g id="a_Node000016"><a xlink:href="../../df/d62/classpcre2cpp_1_1basic__pcre2cpp__exception.html" target="_top" xlink:title=" ">
<polygon fill="white" stroke="#666666" points="668.25,-82.91 510.5,-82.91 510.5,-50.91 668.25,-50.91 668.25,-82.91"/>
<text xml:space="preserve" text-anchor="start" x="518.5" y="-69.41" font-family="Helvetica,sans-Serif" font-size="10.00">pcre2cpp::basic_pcre2cpp</text>
<text xml:space="preserve" text-anchor="middle" x="589.38" y="-57.41" font-family="Helvetica,sans-Serif" font-size="10.00">_exception&lt; utf_type::UTF_32 &gt;</text>
</a>
</g>
</g>
<!-- Node1&#45;&gt;Node16 -->
<g id="edge23_Node000001_Node000016" class="edge">
<title>Node1&#45;&gt;Node16</title>
<g id="a_edge23_Node000001_Node000016"><a xlink:title=" ">
<path fill="none" stroke="orange" stroke-dasharray="5,2" d="M313.06,-368.36C321.42,-298.45 347.11,-117.07 392,-79.91 424.24,-53.22 470.59,-49.09 510.17,-52.05"/>
<polygon fill="orange" stroke="orange" points="309.59,-367.85 311.91,-378.19 316.55,-368.66 309.59,-367.85"/>
</a>
</g>
<text xml:space="preserve" text-anchor="start" x="395" y="-85.41" font-family="Helvetica,sans-Serif" font-size="10.00" fill="grey">&lt; utf_type::UTF_32 &gt;</text>
</g>
<!-- Node17 -->
<g id="Node000017" class="node">
<title>Node17</title>
<g id="a_Node000017"><a xlink:href="../../df/d62/classpcre2cpp_1_1basic__pcre2cpp__exception.html" target="_top" xlink:title=" ">
<polygon fill="white" stroke="#666666" points="664.88,-32.91 513.88,-32.91 513.88,-0.91 664.88,-0.91 664.88,-32.91"/>
<text xml:space="preserve" text-anchor="start" x="521.88" y="-19.41" font-family="Helvetica,sans-Serif" font-size="10.00">pcre2cpp::basic_pcre2cpp</text>
<text xml:space="preserve" text-anchor="middle" x="589.38" y="-7.41" font-family="Helvetica,sans-Serif" font-size="10.00">_exception&lt; default_utf_type &gt;</text>
</a>
</g>
</g>
<!-- Node1&#45;&gt;Node17 -->
<g id="edge24_Node000001_Node000017" class="edge">
<title>Node1&#45;&gt;Node17</title>
<g id="a_edge24_Node000001_Node000017"><a xlink:title=" ">
<path fill="none" stroke="orange" stroke-dasharray="5,2" d="M311.96,-368.68C318.12,-291.39 339.89,-73.34 392,-28.91 424.88,-0.87 473.21,2.38 513.7,-1.49"/>
<polygon fill="orange" stroke="orange" points="308.49,-368.08 311.22,-378.32 315.47,-368.62 308.49,-368.08"/>
</a>
</g>
<text xml:space="preserve" text-anchor="start" x="398.38" y="-34.41" font-family="Helvetica,sans-Serif" font-size="10.00" fill="grey">&lt; default_utf_type &gt;</text>
</g>
<!-- Node2 -->
<g id="Node000002" class="node">
<title>Node2</title>
<g id="a_Node000002"><a xlink:title=" ">
<polygon fill="white" stroke="#666666" points="207,-405.91 114.5,-405.91 114.5,-385.91 207,-385.91 207,-405.91"/>
<text xml:space="preserve" text-anchor="middle" x="160.75" y="-392.41" font-family="Helvetica,sans-Serif" font-size="10.00">std::runtime_error</text>
</a>
</g>
</g>
<!-- Node2&#45;&gt;Node1 -->
<g id="edge1_Node000001_Node000002" class="edge">
<title>Node2&#45;&gt;Node1</title>
<g id="a_edge1_Node000001_Node000002"><a xlink:title=" ">
<path fill="none" stroke="#63b8ff" d="M218.63,-395.91C226.87,-395.91 235.39,-395.91 243.76,-395.91"/>
<polygon fill="#63b8ff" stroke="#63b8ff" points="218.74,-392.41 208.74,-395.91 218.74,-399.41 218.74,-392.41"/>
</a>
</g>
</g>
<!-- Node3 -->
<g id="Node000003" class="node">
<title>Node3</title>
<g id="a_Node000003"><a xlink:title=" ">
<polygon fill="white" stroke="#666666" points="77.5,-405.91 0,-405.91 0,-385.91 77.5,-385.91 77.5,-405.91"/>
<text xml:space="preserve" text-anchor="middle" x="38.75" y="-392.41" font-family="Helvetica,sans-Serif" font-size="10.00">std::exception</text>
</a>
</g>
</g>
<!-- Node3&#45;&gt;Node2 -->
<g id="edge2_Node000002_Node000003" class="edge">
<title>Node3&#45;&gt;Node2</title>
<g id="a_edge2_Node000002_Node000003"><a xlink:title=" ">
<path fill="none" stroke="#63b8ff" d="M89.12,-395.91C97.37,-395.91 105.89,-395.91 114.04,-395.91"/>
<polygon fill="#63b8ff" stroke="#63b8ff" points="89.23,-392.41 79.23,-395.91 89.23,-399.41 89.23,-392.41"/>
</a>
</g>
</g>
<!-- Node12&#45;&gt;Node4 -->
<g id="edge12_Node000012_Node000004" class="edge">
<title>Node12&#45;&gt;Node4</title>
<g id="a_edge12_Node000012_Node000004"><a xlink:title=" ">
<path fill="none" stroke="orange" stroke-dasharray="5,2" d="M661.87,-601.86C670.09,-603.23 678.35,-604.6 686.25,-605.91 727.99,-612.81 775.1,-620.54 811.05,-626.42"/>
<polygon fill="orange" stroke="orange" points="662.65,-598.44 652.21,-600.25 661.5,-605.35 662.65,-598.44"/>
</a>
</g>
<text xml:space="preserve" text-anchor="start" x="691.88" y="-627.78" font-family="Helvetica,sans-Serif" font-size="10.00" fill="grey">&lt; utf_type::UTF_8 &gt;</text>
</g>
<!-- Node12&#45;&gt;Node5 -->
<g id="edge13_Node000012_Node000005" class="edge">
<title>Node12&#45;&gt;Node5</title>
<g id="a_edge13_Node000012_Node000005"><a xlink:title=" ">
<path fill="none" stroke="orange" stroke-dasharray="5,2" d="M627.45,-612.15C645.01,-622.34 666.44,-634.25 686.25,-643.91 727.2,-663.86 774.75,-683.52 811.1,-697.84"/>
<polygon fill="orange" stroke="orange" points="629.31,-609.18 618.91,-607.15 625.77,-615.22 629.31,-609.18"/>
</a>
</g>
<text xml:space="preserve" text-anchor="start" x="689.25" y="-692.81" font-family="Helvetica,sans-Serif" font-size="10.00" fill="grey">&lt; utf_type::UTF_16 &gt;</text>
</g>
<!-- Node12&#45;&gt;Node6 -->
<g id="edge14_Node000012_Node000006" class="edge">
<title>Node12&#45;&gt;Node6</title>
<g id="a_edge14_Node000012_Node000006"><a xlink:title=" ">
<path fill="none" stroke="orange" stroke-dasharray="5,2" d="M646.22,-569.79C659.28,-565.33 673.2,-560.79 686.25,-556.91 727.67,-544.59 775,-532.75 811.13,-524.16"/>
<polygon fill="orange" stroke="orange" points="645.22,-566.43 636.91,-573.01 647.5,-573.05 645.22,-566.43"/>
</a>
</g>
<text xml:space="preserve" text-anchor="start" x="689.25" y="-562.41" font-family="Helvetica,sans-Serif" font-size="10.00" fill="grey">&lt; utf_type::UTF_32 &gt;</text>
</g>
<!-- Node12&#45;&gt;Node7 -->
<g id="edge15_Node000012_Node000007" class="edge">
<title>Node12&#45;&gt;Node7</title>
<g id="a_edge15_Node000012_Node000007"><a xlink:title=" ">
<path fill="none" stroke="orange" stroke-dasharray="5,2" d="M661.74,-585.81C705.84,-583.28 761.98,-580.06 804.72,-577.6"/>
<polygon fill="orange" stroke="orange" points="661.81,-582.3 652.03,-586.37 662.21,-589.29 661.81,-582.3"/>
</a>
</g>
<text xml:space="preserve" text-anchor="start" x="692.62" y="-589.78" font-family="Helvetica,sans-Serif" font-size="10.00" fill="grey">&lt; default_utf_type &gt;</text>
</g>
<!-- Node13&#45;&gt;Node8 -->
<g id="edge17_Node000013_Node000008" class="edge">
<title>Node13&#45;&gt;Node8</title>
<g id="a_edge17_Node000013_Node000008"><a xlink:title=" ">
<path fill="none" stroke="orange" stroke-dasharray="5,2" d="M658.15,-345.74C696.22,-344.21 744.44,-344.57 786.75,-351.91 795.56,-353.44 804.69,-355.8 813.52,-358.54"/>
<polygon fill="orange" stroke="orange" points="658.02,-342.24 648.19,-346.2 658.34,-349.23 658.02,-342.24"/>
</a>
</g>
<text xml:space="preserve" text-anchor="start" x="691.88" y="-357.41" font-family="Helvetica,sans-Serif" font-size="10.00" fill="grey">&lt; utf_type::UTF_8 &gt;</text>
</g>
<!-- Node13&#45;&gt;Node9 -->
<g id="edge18_Node000013_Node000009" class="edge">
<title>Node13&#45;&gt;Node9</title>
<g id="a_edge18_Node000013_Node000009"><a xlink:title=" ">
<path fill="none" stroke="orange" stroke-dasharray="5,2" d="M649.73,-370.99C688.71,-384.22 740.8,-401.98 786.75,-417.91 795.2,-420.84 804.13,-423.96 812.87,-427.02"/>
<polygon fill="orange" stroke="orange" points="650.87,-367.68 640.27,-367.78 648.62,-374.31 650.87,-367.68"/>
</a>
</g>
<text xml:space="preserve" text-anchor="start" x="689.25" y="-423.41" font-family="Helvetica,sans-Serif" font-size="10.00" fill="grey">&lt; utf_type::UTF_16 &gt;</text>
</g>
<!-- Node13&#45;&gt;Node10 -->
<g id="edge19_Node000013_Node000010" class="edge">
<title>Node13&#45;&gt;Node10</title>
<g id="a_edge19_Node000013_Node000010"><a xlink:title=" ">
<path fill="none" stroke="orange" stroke-dasharray="5,2" d="M620.12,-327.84C638.46,-314.37 662.87,-297.74 686.25,-285.91 726.98,-265.29 775.83,-248.28 812.79,-236.85"/>
<polygon fill="orange" stroke="orange" points="618.25,-324.87 612.33,-333.65 622.44,-330.48 618.25,-324.87"/>
</a>
</g>
<text xml:space="preserve" text-anchor="start" x="689.25" y="-291.41" font-family="Helvetica,sans-Serif" font-size="10.00" fill="grey">&lt; utf_type::UTF_32 &gt;</text>
</g>
<!-- Node13&#45;&gt;Node11 -->
<g id="edge20_Node000013_Node000011" class="edge">
<title>Node13&#45;&gt;Node11</title>
<g id="a_edge20_Node000013_Node000011"><a xlink:title=" ">
<path fill="none" stroke="orange" stroke-dasharray="5,2" d="M651.54,-331.42C662.99,-328.24 674.92,-325.23 686.25,-322.91 727.45,-314.47 774.57,-308.9 810.67,-305.47"/>
<polygon fill="orange" stroke="orange" points="650.84,-327.98 642.19,-334.1 652.77,-334.71 650.84,-327.98"/>
</a>
</g>
<text xml:space="preserve" text-anchor="start" x="692.62" y="-328.41" font-family="Helvetica,sans-Serif" font-size="10.00" fill="grey">&lt; default_utf_type &gt;</text>
</g>
</g>
</svg>
