<?xml version="1.0" encoding="UTF-8" standalone="no"?>
<!DOCTYPE svg PUBLIC "-//W3C//DTD SVG 1.1//EN"
 "http://www.w3.org/Graphics/SVG/1.1/DTD/svg11.dtd">
<!-- Generated by graphviz version 14.1.1 (20251213.1925)
 -->
<!-- Title: Graphical Class Hierarchy Pages: 1 -->
<svg width="566pt" height="462pt"
 viewBox="0.00 0.00 566.00 462.00" xmlns="http://www.w3.org/2000/svg" xmlns:xlink="http://www.w3.org/1999/xlink">
<g id="graph0" class="graph" transform="scale(1 1) rotate(0) translate(4 458)">
<title>Graphical Class Hierarchy</title>
<!-- Node0 -->
<g id="Node000000" class="node">
<title>Node0</title>
<g id="a_Node000000"><a xlink:title=" ">
<polygon fill="#e0e0e0" stroke="#999999" points="77.5,-300 0,-300 0,-280 77.5,-280 77.5,-300"/>
<text xml:space="preserve" text-anchor="middle" x="38.75" y="-286.5" font-family="Helvetica,sans-Serif" font-size="10.00">std::exception</text>
</a>
</g>
</g>
<!-- Node1 -->
<g id="Node000001" class="node">
<title>Node1</title>
<g id="a_Node000001"><a xlink:title=" ">
<polygon fill="#e0e0e0" stroke="#999999" points="206,-300 113.5,-300 113.5,-280 206,-280 206,-300"/>
<text xml:space="preserve" text-anchor="middle" x="159.75" y="-286.5" font-family="Helvetica,sans-Serif" font-size="10.00">std::runtime_error</text>
</a>
</g>
</g>
<!-- Node0&#45;&gt;Node1 -->
<g id="edge1_Node000000_Node000001" class="edge">
<title>Node0&#45;&gt;Node1</title>
<g id="a_edge1_Node000000_Node000001"><a xlink:title=" ">
<path fill="none" stroke="#63b8ff" d="M89.16,-290C97.13,-290 105.35,-290 113.23,-290"/>
<polygon fill="#63b8ff" stroke="#63b8ff" points="89.24,-286.5 79.24,-290 89.24,-293.5 89.24,-286.5"/>
</a>
</g>
</g>
<!-- Node2 -->
<g id="Node000002" class="node">
<title>Node2</title>
<g id="a_Node000002"><a xlink:href="df/d62/classpcre2cpp_1_1basic__pcre2cpp__exception.html" target="_top" xlink:title=" ">
<polygon fill="white" stroke="#666666" points="397.12,-381 244.62,-381 244.62,-349 397.12,-349 397.12,-381"/>
<text xml:space="preserve" text-anchor="start" x="252.62" y="-367.5" font-family="Helvetica,sans-Serif" font-size="10.00">pcre2cpp::basic_pcre2cpp</text>
<text xml:space="preserve" text-anchor="middle" x="320.88" y="-355.5" font-family="Helvetica,sans-Serif" font-size="10.00">_exception&lt; utf_type::UTF_8 &gt;</text>
</a>
</g>
</g>
<!-- Node1&#45;&gt;Node2 -->
<g id="edge2_Node000001_Node000002" class="edge">
<title>Node1&#45;&gt;Node2</title>
<g id="a_edge2_Node000001_Node000002"><a xlink:title=" ">
<path fill="none" stroke="#63b8ff" d="M184.6,-306.8C200.35,-317.35 221.76,-330.69 242,-340 248.71,-343.09 255.9,-345.95 263.11,-348.55"/>
<polygon fill="#63b8ff" stroke="#63b8ff" points="186.61,-303.94 176.38,-301.19 182.66,-309.72 186.61,-303.94"/>
</a>
</g>
</g>
<!-- Node3 -->
<g id="Node000003" class="node">
<title>Node3</title>
<g id="a_Node000003"><a xlink:href="df/d62/classpcre2cpp_1_1basic__pcre2cpp__exception.html" target="_top" xlink:title=" ">
<polygon fill="white" stroke="#666666" points="399.75,-331 242,-331 242,-299 399.75,-299 399.75,-331"/>
<text xml:space="preserve" text-anchor="start" x="250" y="-317.5" font-family="Helvetica,sans-Serif" font-size="10.00">pcre2cpp::basic_pcre2cpp</text>
<text xml:space="preserve" text-anchor="middle" x="320.88" y="-305.5" font-family="Helvetica,sans-Serif" font-size="10.00">_exception&lt; utf_type::UTF_16 &gt;</text>
</a>
</g>
</g>
<!-- Node1&#45;&gt;Node3 -->
<g id="edge3_Node000001_Node000003" class="edge">
<title>Node1&#45;&gt;Node3</title>
<g id="a_edge3_Node000001_Node000003"><a xlink:title=" ">
<path fill="none" stroke="#63b8ff" d="M217.5,-298.92C225.3,-300.14 233.42,-301.42 241.51,-302.69"/>
<polygon fill="#63b8ff" stroke="#63b8ff" points="218.27,-295.49 207.84,-297.4 217.18,-302.41 218.27,-295.49"/>
</a>
</g>
</g>
<!-- Node4 -->
<g id="Node000004" class="node">
<title>Node4</title>
<g id="a_Node000004"><a xlink:href="df/d62/classpcre2cpp_1_1basic__pcre2cpp__exception.html" target="_top" xlink:title=" ">
<polygon fill="white" stroke="#666666" points="399.75,-281 242,-281 242,-249 399.75,-249 399.75,-281"/>
<text xml:space="preserve" text-anchor="start" x="250" y="-267.5" font-family="Helvetica,sans-Serif" font-size="10.00">pcre2cpp::basic_pcre2cpp</text>
<text xml:space="preserve" text-anchor="middle" x="320.88" y="-255.5" font-family="Helvetica,sans-Serif" font-size="10.00">_exception&lt; utf_type::UTF_32 &gt;</text>
</a>
</g>
</g>
<!-- Node1&#45;&gt;Node4 -->
<g id="edge4_Node000001_Node000004" class="edge">
<title>Node1&#45;&gt;Node4</title>
<g id="a_edge4_Node000001_Node000004"><a xlink:title=" ">
<path fill="none" stroke="#63b8ff" d="M217.5,-281.08C225.3,-279.86 233.42,-278.58 241.51,-277.31"/>
<polygon fill="#63b8ff" stroke="#63b8ff" points="217.18,-277.59 207.84,-282.6 218.27,-284.51 217.18,-277.59"/>
</a>
</g>
</g>
<!-- Node5 -->
<g id="Node000005" class="node">
<title>Node5</title>
<g id="a_Node000005"><a xlink:href="df/d62/classpcre2cpp_1_1basic__pcre2cpp__exception.html" target="_top" xlink:title="base pcre2cpp exception class">
<polygon fill="white" stroke="#666666" points="385.88,-231 255.88,-231 255.88,-199 385.88,-199 385.88,-231"/>
<text xml:space="preserve" text-anchor="start" x="263.88" y="-217.5" font-family="Helvetica,sans-Serif" font-size="10.00">pcre2cpp::basic_pcre2cpp</text>
<text xml:space="preserve" text-anchor="middle" x="320.88" y="-205.5" font-family="Helvetica,sans-Serif" font-size="10.00">_exception&lt; utf &gt;</text>
</a>
</g>
</g>
<!-- Node1&#45;&gt;Node5 -->
<g id="edge5_Node000001_Node000005" class="edge">
<title>Node1&#45;&gt;Node5</title>
<g id="a_edge5_Node000001_Node000005"><a xlink:title=" ">
<path fill="none" stroke="#63b8ff" d="M184.6,-273.2C200.35,-262.65 221.76,-249.31 242,-240 248.71,-236.91 255.9,-234.05 263.11,-231.45"/>
<polygon fill="#63b8ff" stroke="#63b8ff" points="182.66,-270.28 176.38,-278.81 186.61,-276.06 182.66,-270.28"/>
</a>
</g>
</g>
<!-- Node6 -->
<g id="Node000006" class="node">
<title>Node6</title>
<g id="a_Node000006"><a xlink:href="d5/dab/classpcre2cpp_1_1basic__match__result__exception.html" target="_top" xlink:title=" ">
<polygon fill="white" stroke="#666666" points="555.25,-454 438,-454 438,-410 555.25,-410 555.25,-454"/>
<text xml:space="preserve" text-anchor="start" x="446" y="-440.5" font-family="Helvetica,sans-Serif" font-size="10.00">pcre2cpp::basic_match</text>
<text xml:space="preserve" text-anchor="start" x="446" y="-428.5" font-family="Helvetica,sans-Serif" font-size="10.00">_result_exception&lt; utf</text>
<text xml:space="preserve" text-anchor="middle" x="496.62" y="-416.5" font-family="Helvetica,sans-Serif" font-size="10.00">_type::UTF_8 &gt;</text>
</a>
</g>
</g>
<!-- Node5&#45;&gt;Node6 -->
<g id="edge6_Node000005_Node000006" class="edge">
<title>Node5&#45;&gt;Node6</title>
<g id="a_edge6_Node000005_Node000006"><a xlink:title=" ">
<path fill="none" stroke="#63b8ff" d="M395.45,-235.82C396.96,-237.13 398.4,-238.52 399.75,-240 449.19,-294.14 391,-342.92 435.75,-401 438.18,-404.15 441.02,-407.01 444.12,-409.61"/>
<polygon fill="#63b8ff" stroke="#63b8ff" points="397.51,-232.99 387.32,-230.06 393.46,-238.7 397.51,-232.99"/>
</a>
</g>
</g>
<!-- Node7 -->
<g id="Node000007" class="node">
<title>Node7</title>
<g id="a_Node000007"><a xlink:href="d5/dab/classpcre2cpp_1_1basic__match__result__exception.html" target="_top" xlink:title=" ">
<polygon fill="white" stroke="#666666" points="555.25,-392 438,-392 438,-348 555.25,-348 555.25,-392"/>
<text xml:space="preserve" text-anchor="start" x="446" y="-378.5" font-family="Helvetica,sans-Serif" font-size="10.00">pcre2cpp::basic_match</text>
<text xml:space="preserve" text-anchor="start" x="446" y="-366.5" font-family="Helvetica,sans-Serif" font-size="10.00">_result_exception&lt; utf</text>
<text xml:space="preserve" text-anchor="middle" x="496.62" y="-354.5" font-family="Helvetica,sans-Serif" font-size="10.00">_type::UTF_16 &gt;</text>
</a>
</g>
</g>
<!-- Node5&#45;&gt;Node7 -->
<g id="edge7_Node000005_Node000007" class="edge">
<title>Node5&#45;&gt;Node7</title>
<g id="a_edge7_Node000005_Node000007"><a xlink:title=" ">
<path fill="none" stroke="#63b8ff" d="M395.44,-236.24C396.94,-237.43 398.38,-238.68 399.75,-240 433.48,-272.47 404.85,-303.83 435.75,-339 438.53,-342.17 441.71,-345.05 445.13,-347.68"/>
<polygon fill="#63b8ff" stroke="#63b8ff" points="397.8,-233.62 387.54,-231 393.93,-239.45 397.8,-233.62"/>
</a>
</g>
</g>
<!-- Node8 -->
<g id="Node000008" class="node">
<title>Node8</title>
<g id="a_Node000008"><a xlink:href="d5/dab/classpcre2cpp_1_1basic__match__result__exception.html" target="_top" xlink:title=" ">
<polygon fill="white" stroke="#666666" points="555.25,-330 438,-330 438,-286 555.25,-286 555.25,-330"/>
<text xml:space="preserve" text-anchor="start" x="446" y="-316.5" font-family="Helvetica,sans-Serif" font-size="10.00">pcre2cpp::basic_match</text>
<text xml:space="preserve" text-anchor="start" x="446" y="-304.5" font-family="Helvetica,sans-Serif" font-size="10.00">_result_exception&lt; utf</text>
<text xml:space="preserve" text-anchor="middle" x="496.62" y="-292.5" font-family="Helvetica,sans-Serif" font-size="10.00">_type::UTF_32 &gt;</text>
</a>
</g>
</g>
<!-- Node5&#45;&gt;Node8 -->
<g id="edge8_Node000005_Node000008" class="edge">
<title>Node5&#45;&gt;Node8</title>
<g id="a_edge8_Node000005_Node000008"><a xlink:title=" ">
<path fill="none" stroke="#63b8ff" d="M393.48,-236.4C395.63,-237.54 397.72,-238.74 399.75,-240 419.25,-252.09 417.33,-263.33 435.75,-277 439.79,-280 444.17,-282.87 448.64,-285.56"/>
<polygon fill="#63b8ff" stroke="#63b8ff" points="395.01,-233.26 384.48,-232.09 391.99,-239.57 395.01,-233.26"/>
</a>
</g>
</g>
<!-- Node9 -->
<g id="Node000009" class="node">
<title>Node9</title>
<g id="a_Node000009"><a xlink:href="d6/dfe/classpcre2cpp_1_1basic__regex__exception.html" target="_top" xlink:title=" ">
<polygon fill="white" stroke="#666666" points="553.75,-268 439.5,-268 439.5,-224 553.75,-224 553.75,-268"/>
<text xml:space="preserve" text-anchor="start" x="447.5" y="-254.5" font-family="Helvetica,sans-Serif" font-size="10.00">pcre2cpp::basic_regex</text>
<text xml:space="preserve" text-anchor="start" x="447.5" y="-242.5" font-family="Helvetica,sans-Serif" font-size="10.00">_exception&lt; utf_type</text>
<text xml:space="preserve" text-anchor="middle" x="496.62" y="-230.5" font-family="Helvetica,sans-Serif" font-size="10.00">::UTF_8 &gt;</text>
</a>
</g>
</g>
<!-- Node5&#45;&gt;Node9 -->
<g id="edge9_Node000005_Node000009" class="edge">
<title>Node5&#45;&gt;Node9</title>
<g id="a_edge9_Node000005_Node000009"><a xlink:title=" ">
<path fill="none" stroke="#63b8ff" d="M397.24,-228.45C411.29,-230.95 425.76,-233.53 439.13,-235.92"/>
<polygon fill="#63b8ff" stroke="#63b8ff" points="398.03,-225.03 387.57,-226.72 396.8,-231.92 398.03,-225.03"/>
</a>
</g>
</g>
<!-- Node10 -->
<g id="Node000010" class="node">
<title>Node10</title>
<g id="a_Node000010"><a xlink:href="d6/dfe/classpcre2cpp_1_1basic__regex__exception.html" target="_top" xlink:title=" ">
<polygon fill="white" stroke="#666666" points="553.75,-206 439.5,-206 439.5,-162 553.75,-162 553.75,-206"/>
<text xml:space="preserve" text-anchor="start" x="447.5" y="-192.5" font-family="Helvetica,sans-Serif" font-size="10.00">pcre2cpp::basic_regex</text>
<text xml:space="preserve" text-anchor="start" x="447.5" y="-180.5" font-family="Helvetica,sans-Serif" font-size="10.00">_exception&lt; utf_type</text>
<text xml:space="preserve" text-anchor="middle" x="496.62" y="-168.5" font-family="Helvetica,sans-Serif" font-size="10.00">::UTF_16 &gt;</text>
</a>
</g>
</g>
<!-- Node5&#45;&gt;Node10 -->
<g id="edge10_Node000005_Node000010" class="edge">
<title>Node5&#45;&gt;Node10</title>
<g id="a_edge10_Node000005_Node000010"><a xlink:title=" ">
<path fill="none" stroke="#63b8ff" d="M397.24,-201.55C411.29,-199.05 425.76,-196.47 439.13,-194.08"/>
<polygon fill="#63b8ff" stroke="#63b8ff" points="396.8,-198.08 387.57,-203.28 398.03,-204.97 396.8,-198.08"/>
</a>
</g>
</g>
<!-- Node11 -->
<g id="Node000011" class="node">
<title>Node11</title>
<g id="a_Node000011"><a xlink:href="d6/dfe/classpcre2cpp_1_1basic__regex__exception.html" target="_top" xlink:title=" ">
<polygon fill="white" stroke="#666666" points="553.75,-144 439.5,-144 439.5,-100 553.75,-100 553.75,-144"/>
<text xml:space="preserve" text-anchor="start" x="447.5" y="-130.5" font-family="Helvetica,sans-Serif" font-size="10.00">pcre2cpp::basic_regex</text>
<text xml:space="preserve" text-anchor="start" x="447.5" y="-118.5" font-family="Helvetica,sans-Serif" font-size="10.00">_exception&lt; utf_type</text>
<text xml:space="preserve" text-anchor="middle" x="496.62" y="-106.5" font-family="Helvetica,sans-Serif" font-size="10.00">::UTF_32 &gt;</text>
</a>
</g>
</g>
<!-- Node5&#45;&gt;Node11 -->
<g id="edge11_Node000005_Node000011" class="edge">
<title>Node5&#45;&gt;Node11</title>
<g id="a_edge11_Node000005_Node000011"><a xlink:title=" ">
<path fill="none" stroke="#63b8ff" d="M361.65,-193.08C383.47,-181.12 411.04,-166.12 435.75,-153 441.02,-150.2 446.57,-147.29 452.08,-144.41"/>
<polygon fill="#63b8ff" stroke="#63b8ff" points="360.16,-189.9 353.08,-197.78 363.53,-196.04 360.16,-189.9"/>
</a>
</g>
</g>
<!-- Node12 -->
<g id="Node000012" class="node">
<title>Node12</title>
<g id="a_Node000012"><a xlink:href="d5/dab/classpcre2cpp_1_1basic__match__result__exception.html" target="_top" xlink:title="match result exception class">
<polygon fill="white" stroke="#666666" points="557.5,-82 435.75,-82 435.75,-50 557.5,-50 557.5,-82"/>
<text xml:space="preserve" text-anchor="start" x="443.75" y="-68.5" font-family="Helvetica,sans-Serif" font-size="10.00">pcre2cpp::basic_match</text>
<text xml:space="preserve" text-anchor="middle" x="496.62" y="-56.5" font-family="Helvetica,sans-Serif" font-size="10.00">_result_exception&lt; utf &gt;</text>
</a>
</g>
</g>
<!-- Node5&#45;&gt;Node12 -->
<g id="edge12_Node000005_Node000012" class="edge">
<title>Node5&#45;&gt;Node12</title>
<g id="a_edge12_Node000005_Node000012"><a xlink:title=" ">
<path fill="none" stroke="#63b8ff" d="M339.66,-189.88C360.16,-162.46 396.15,-118.78 435.75,-91 440.27,-87.83 445.25,-84.96 450.35,-82.39"/>
<polygon fill="#63b8ff" stroke="#63b8ff" points="337.07,-187.49 333.98,-197.62 342.72,-191.63 337.07,-187.49"/>
</a>
</g>
</g>
<!-- Node13 -->
<g id="Node000013" class="node">
<title>Node13</title>
<g id="a_Node000013"><a xlink:href="d6/dfe/classpcre2cpp_1_1basic__regex__exception.html" target="_top" xlink:title="regex exception class">
<polygon fill="white" stroke="#666666" points="553.75,-32 439.5,-32 439.5,0 553.75,0 553.75,-32"/>
<text xml:space="preserve" text-anchor="start" x="447.5" y="-18.5" font-family="Helvetica,sans-Serif" font-size="10.00">pcre2cpp::basic_regex</text>
<text xml:space="preserve" text-anchor="middle" x="496.62" y="-6.5" font-family="Helvetica,sans-Serif" font-size="10.00">_exception&lt; utf &gt;</text>
</a>
</g>
</g>
<!-- Node5&#45;&gt;Node13 -->
<g id="edge13_Node000005_Node000013" class="edge">
<title>Node5&#45;&gt;Node13</title>
<g id="a_edge13_Node000005_Node000013"><a xlink:title=" ">
<path fill="none" stroke="#63b8ff" d="M333.14,-188.36C350.24,-150.8 386.09,-82.27 435.75,-41 439.65,-37.76 444.03,-34.89 448.59,-32.35"/>
<polygon fill="#63b8ff" stroke="#63b8ff" points="330.1,-186.58 329.24,-197.14 336.5,-189.42 330.1,-186.58"/>
</a>
</g>
</g>
</g>
</svg>
