<?xml version="1.0" encoding="UTF-8" standalone="no"?>
<!DOCTYPE svg PUBLIC "-//W3C//DTD SVG 1.1//EN"
 "http://www.w3.org/Graphics/SVG/1.1/DTD/svg11.dtd">
<!-- Generated by graphviz version 14.1.1 (20251213.1925)
 -->
<!-- Title: Graphical Class Hierarchy Pages: 1 -->
<svg width="575pt" height="586pt"
 viewBox="0.00 0.00 575.00 586.00" xmlns="http://www.w3.org/2000/svg" xmlns:xlink="http://www.w3.org/1999/xlink">
<g id="graph0" class="graph" transform="scale(1 1) rotate(0) translate(4 582)">
<title>Graphical Class Hierarchy</title>
<!-- Node0 -->
<g id="Node000000" class="node">
<title>Node0</title>
<g id="a_Node000000"><a xlink:title=" ">
<polygon fill="#e0e0e0" stroke="#999999" points="77.5,-387 0,-387 0,-367 77.5,-367 77.5,-387"/>
<text xml:space="preserve" text-anchor="middle" x="38.75" y="-373.5" font-family="Helvetica,sans-Serif" font-size="10.00">std::exception</text>
</a>
</g>
</g>
<!-- Node1 -->
<g id="Node000001" class="node">
<title>Node1</title>
<g id="a_Node000001"><a xlink:title=" ">
<polygon fill="#e0e0e0" stroke="#999999" points="206,-387 113.5,-387 113.5,-367 206,-367 206,-387"/>
<text xml:space="preserve" text-anchor="middle" x="159.75" y="-373.5" font-family="Helvetica,sans-Serif" font-size="10.00">std::runtime_error</text>
</a>
</g>
</g>
<!-- Node0&#45;&gt;Node1 -->
<g id="edge1_Node000000_Node000001" class="edge">
<title>Node0&#45;&gt;Node1</title>
<g id="a_edge1_Node000000_Node000001"><a xlink:title=" ">
<path fill="none" stroke="#63b8ff" d="M89.16,-377C97.13,-377 105.35,-377 113.23,-377"/>
<polygon fill="#63b8ff" stroke="#63b8ff" points="89.24,-373.5 79.24,-377 89.24,-380.5 89.24,-373.5"/>
</a>
</g>
</g>
<!-- Node2 -->
<g id="Node000002" class="node">
<title>Node2</title>
<g id="a_Node000002"><a xlink:href="df/d62/classpcre2cpp_1_1basic__pcre2cpp__exception.html" target="_top" xlink:title=" ">
<polygon fill="white" stroke="#666666" points="397.12,-493 244.62,-493 244.62,-461 397.12,-461 397.12,-493"/>
<text xml:space="preserve" text-anchor="start" x="252.62" y="-479.5" font-family="Helvetica,sans-Serif" font-size="10.00">pcre2cpp::basic_pcre2cpp</text>
<text xml:space="preserve" text-anchor="middle" x="320.88" y="-467.5" font-family="Helvetica,sans-Serif" font-size="10.00">_exception&lt; utf_type::UTF_8 &gt;</text>
</a>
</g>
</g>
<!-- Node1&#45;&gt;Node2 -->
<g id="edge2_Node000001_Node000002" class="edge">
<title>Node1&#45;&gt;Node2</title>
<g id="a_edge2_Node000001_Node000002"><a xlink:title=" ">
<path fill="none" stroke="#63b8ff" d="M176.88,-396C192.12,-412.86 216.4,-437.07 242,-452 247.52,-455.22 253.5,-458.08 259.62,-460.61"/>
<polygon fill="#63b8ff" stroke="#63b8ff" points="179.63,-393.83 170.4,-388.64 174.38,-398.46 179.63,-393.83"/>
</a>
</g>
</g>
<!-- Node3 -->
<g id="Node000003" class="node">
<title>Node3</title>
<g id="a_Node000003"><a xlink:href="df/d62/classpcre2cpp_1_1basic__pcre2cpp__exception.html" target="_top" xlink:title=" ">
<polygon fill="white" stroke="#666666" points="399.75,-443 242,-443 242,-411 399.75,-411 399.75,-443"/>
<text xml:space="preserve" text-anchor="start" x="250" y="-429.5" font-family="Helvetica,sans-Serif" font-size="10.00">pcre2cpp::basic_pcre2cpp</text>
<text xml:space="preserve" text-anchor="middle" x="320.88" y="-417.5" font-family="Helvetica,sans-Serif" font-size="10.00">_exception&lt; utf_type::UTF_16 &gt;</text>
</a>
</g>
</g>
<!-- Node1&#45;&gt;Node3 -->
<g id="edge3_Node000001_Node000003" class="edge">
<title>Node1&#45;&gt;Node3</title>
<g id="a_edge3_Node000001_Node000003"><a xlink:title=" ">
<path fill="none" stroke="#63b8ff" d="M205.06,-390.92C224.41,-397 247.26,-404.18 267.46,-410.53"/>
<polygon fill="#63b8ff" stroke="#63b8ff" points="206.14,-387.59 195.55,-387.94 204.04,-394.27 206.14,-387.59"/>
</a>
</g>
</g>
<!-- Node4 -->
<g id="Node000004" class="node">
<title>Node4</title>
<g id="a_Node000004"><a xlink:href="df/d62/classpcre2cpp_1_1basic__pcre2cpp__exception.html" target="_top" xlink:title=" ">
<polygon fill="white" stroke="#666666" points="399.75,-393 242,-393 242,-361 399.75,-361 399.75,-393"/>
<text xml:space="preserve" text-anchor="start" x="250" y="-379.5" font-family="Helvetica,sans-Serif" font-size="10.00">pcre2cpp::basic_pcre2cpp</text>
<text xml:space="preserve" text-anchor="middle" x="320.88" y="-367.5" font-family="Helvetica,sans-Serif" font-size="10.00">_exception&lt; utf_type::UTF_32 &gt;</text>
</a>
</g>
</g>
<!-- Node1&#45;&gt;Node4 -->
<g id="edge4_Node000001_Node000004" class="edge">
<title>Node1&#45;&gt;Node4</title>
<g id="a_edge4_Node000001_Node000004"><a xlink:title=" ">
<path fill="none" stroke="#63b8ff" d="M217.78,-377C225.49,-377 233.51,-377 241.51,-377"/>
<polygon fill="#63b8ff" stroke="#63b8ff" points="217.86,-373.5 207.86,-377 217.86,-380.5 217.86,-373.5"/>
</a>
</g>
</g>
<!-- Node5 -->
<g id="Node000005" class="node">
<title>Node5</title>
<g id="a_Node000005"><a xlink:href="df/d62/classpcre2cpp_1_1basic__pcre2cpp__exception.html" target="_top" xlink:title=" ">
<polygon fill="white" stroke="#666666" points="396.38,-343 245.38,-343 245.38,-311 396.38,-311 396.38,-343"/>
<text xml:space="preserve" text-anchor="start" x="253.38" y="-329.5" font-family="Helvetica,sans-Serif" font-size="10.00">pcre2cpp::basic_pcre2cpp</text>
<text xml:space="preserve" text-anchor="middle" x="320.88" y="-317.5" font-family="Helvetica,sans-Serif" font-size="10.00">_exception&lt; default_utf_type &gt;</text>
</a>
</g>
</g>
<!-- Node1&#45;&gt;Node5 -->
<g id="edge5_Node000001_Node000005" class="edge">
<title>Node1&#45;&gt;Node5</title>
<g id="a_edge5_Node000001_Node000005"><a xlink:title=" ">
<path fill="none" stroke="#63b8ff" d="M205.06,-363.08C224.41,-357 247.26,-349.82 267.46,-343.47"/>
<polygon fill="#63b8ff" stroke="#63b8ff" points="204.04,-359.73 195.55,-366.06 206.14,-366.41 204.04,-359.73"/>
</a>
</g>
</g>
<!-- Node6 -->
<g id="Node000006" class="node">
<title>Node6</title>
<g id="a_Node000006"><a xlink:href="df/d62/classpcre2cpp_1_1basic__pcre2cpp__exception.html" target="_top" xlink:title="base pcre2cpp exception class">
<polygon fill="white" stroke="#666666" points="385.88,-293 255.88,-293 255.88,-261 385.88,-261 385.88,-293"/>
<text xml:space="preserve" text-anchor="start" x="263.88" y="-279.5" font-family="Helvetica,sans-Serif" font-size="10.00">pcre2cpp::basic_pcre2cpp</text>
<text xml:space="preserve" text-anchor="middle" x="320.88" y="-267.5" font-family="Helvetica,sans-Serif" font-size="10.00">_exception&lt; utf &gt;</text>
</a>
</g>
</g>
<!-- Node1&#45;&gt;Node6 -->
<g id="edge6_Node000001_Node000006" class="edge">
<title>Node1&#45;&gt;Node6</title>
<g id="a_edge6_Node000001_Node000006"><a xlink:title=" ">
<path fill="none" stroke="#63b8ff" d="M176.88,-358C192.12,-341.14 216.4,-316.93 242,-302 247.52,-298.78 253.5,-295.92 259.62,-293.39"/>
<polygon fill="#63b8ff" stroke="#63b8ff" points="174.38,-355.54 170.4,-365.36 179.63,-360.17 174.38,-355.54"/>
</a>
</g>
</g>
<!-- Node7 -->
<g id="Node000007" class="node">
<title>Node7</title>
<g id="a_Node000007"><a xlink:href="d5/dab/classpcre2cpp_1_1basic__match__result__exception.html" target="_top" xlink:title=" ">
<polygon fill="white" stroke="#666666" points="559.75,-578 442.5,-578 442.5,-534 559.75,-534 559.75,-578"/>
<text xml:space="preserve" text-anchor="start" x="450.5" y="-564.5" font-family="Helvetica,sans-Serif" font-size="10.00">pcre2cpp::basic_match</text>
<text xml:space="preserve" text-anchor="start" x="450.5" y="-552.5" font-family="Helvetica,sans-Serif" font-size="10.00">_result_exception&lt; utf</text>
<text xml:space="preserve" text-anchor="middle" x="501.12" y="-540.5" font-family="Helvetica,sans-Serif" font-size="10.00">_type::UTF_8 &gt;</text>
</a>
</g>
</g>
<!-- Node6&#45;&gt;Node7 -->
<g id="edge7_Node000006_Node000007" class="edge">
<title>Node6&#45;&gt;Node7</title>
<g id="a_edge7_Node000006_Node000007"><a xlink:title=" ">
<path fill="none" stroke="#63b8ff" d="M395.57,-297.72C397.05,-299.06 398.45,-300.48 399.75,-302 465.2,-378.13 375.71,-444.54 435.75,-525 438.12,-528.18 440.91,-531.05 443.97,-533.64"/>
<polygon fill="#63b8ff" stroke="#63b8ff" points="397.71,-294.95 387.59,-291.84 393.56,-300.58 397.71,-294.95"/>
</a>
</g>
</g>
<!-- Node8 -->
<g id="Node000008" class="node">
<title>Node8</title>
<g id="a_Node000008"><a xlink:href="d5/dab/classpcre2cpp_1_1basic__match__result__exception.html" target="_top" xlink:title=" ">
<polygon fill="white" stroke="#666666" points="559.75,-516 442.5,-516 442.5,-472 559.75,-472 559.75,-516"/>
<text xml:space="preserve" text-anchor="start" x="450.5" y="-502.5" font-family="Helvetica,sans-Serif" font-size="10.00">pcre2cpp::basic_match</text>
<text xml:space="preserve" text-anchor="start" x="450.5" y="-490.5" font-family="Helvetica,sans-Serif" font-size="10.00">_result_exception&lt; utf</text>
<text xml:space="preserve" text-anchor="middle" x="501.12" y="-478.5" font-family="Helvetica,sans-Serif" font-size="10.00">_type::UTF_16 &gt;</text>
</a>
</g>
</g>
<!-- Node6&#45;&gt;Node8 -->
<g id="edge8_Node000006_Node000008" class="edge">
<title>Node6&#45;&gt;Node8</title>
<g id="a_edge8_Node000006_Node000008"><a xlink:title=" ">
<path fill="none" stroke="#63b8ff" d="M395.45,-297.82C396.96,-299.13 398.4,-300.52 399.75,-302 449.19,-356.14 390.16,-405.57 435.75,-463 438.3,-466.21 441.25,-469.1 444.48,-471.71"/>
<polygon fill="#63b8ff" stroke="#63b8ff" points="397.51,-294.99 387.32,-292.06 393.46,-300.7 397.51,-294.99"/>
</a>
</g>
</g>
<!-- Node9 -->
<g id="Node000009" class="node">
<title>Node9</title>
<g id="a_Node000009"><a xlink:href="d5/dab/classpcre2cpp_1_1basic__match__result__exception.html" target="_top" xlink:title=" ">
<polygon fill="white" stroke="#666666" points="559.75,-454 442.5,-454 442.5,-410 559.75,-410 559.75,-454"/>
<text xml:space="preserve" text-anchor="start" x="450.5" y="-440.5" font-family="Helvetica,sans-Serif" font-size="10.00">pcre2cpp::basic_match</text>
<text xml:space="preserve" text-anchor="start" x="450.5" y="-428.5" font-family="Helvetica,sans-Serif" font-size="10.00">_result_exception&lt; utf</text>
<text xml:space="preserve" text-anchor="middle" x="501.12" y="-416.5" font-family="Helvetica,sans-Serif" font-size="10.00">_type::UTF_32 &gt;</text>
</a>
</g>
</g>
<!-- Node6&#45;&gt;Node9 -->
<g id="edge9_Node000006_Node000009" class="edge">
<title>Node6&#45;&gt;Node9</title>
<g id="a_edge9_Node000006_Node000009"><a xlink:title=" ">
<path fill="none" stroke="#63b8ff" d="M395.44,-298.24C396.94,-299.43 398.38,-300.68 399.75,-302 433.48,-334.47 404.34,-366.28 435.75,-401 438.58,-404.13 441.79,-406.97 445.24,-409.55"/>
<polygon fill="#63b8ff" stroke="#63b8ff" points="397.8,-295.62 387.54,-293 393.93,-301.45 397.8,-295.62"/>
</a>
</g>
</g>
<!-- Node10 -->
<g id="Node000010" class="node">
<title>Node10</title>
<g id="a_Node000010"><a xlink:href="d5/dab/classpcre2cpp_1_1basic__match__result__exception.html" target="_top" xlink:title=" ">
<polygon fill="white" stroke="#666666" points="566.5,-392 435.75,-392 435.75,-348 566.5,-348 566.5,-392"/>
<text xml:space="preserve" text-anchor="start" x="443.75" y="-378.5" font-family="Helvetica,sans-Serif" font-size="10.00">pcre2cpp::basic_match</text>
<text xml:space="preserve" text-anchor="start" x="443.75" y="-366.5" font-family="Helvetica,sans-Serif" font-size="10.00">_result_exception&lt; default</text>
<text xml:space="preserve" text-anchor="middle" x="501.12" y="-354.5" font-family="Helvetica,sans-Serif" font-size="10.00">_utf_type &gt;</text>
</a>
</g>
</g>
<!-- Node6&#45;&gt;Node10 -->
<g id="edge10_Node000006_Node000010" class="edge">
<title>Node6&#45;&gt;Node10</title>
<g id="a_edge10_Node000006_Node000010"><a xlink:title=" ">
<path fill="none" stroke="#63b8ff" d="M393.48,-298.4C395.63,-299.54 397.72,-300.74 399.75,-302 419.25,-314.09 417.13,-325.6 435.75,-339 439.98,-342.04 444.55,-344.92 449.24,-347.61"/>
<polygon fill="#63b8ff" stroke="#63b8ff" points="395.01,-295.26 384.48,-294.09 391.99,-301.57 395.01,-295.26"/>
</a>
</g>
</g>
<!-- Node11 -->
<g id="Node000011" class="node">
<title>Node11</title>
<g id="a_Node000011"><a xlink:href="d6/dfe/classpcre2cpp_1_1basic__regex__exception.html" target="_top" xlink:title=" ">
<polygon fill="white" stroke="#666666" points="558.25,-330 444,-330 444,-286 558.25,-286 558.25,-330"/>
<text xml:space="preserve" text-anchor="start" x="452" y="-316.5" font-family="Helvetica,sans-Serif" font-size="10.00">pcre2cpp::basic_regex</text>
<text xml:space="preserve" text-anchor="start" x="452" y="-304.5" font-family="Helvetica,sans-Serif" font-size="10.00">_exception&lt; utf_type</text>
<text xml:space="preserve" text-anchor="middle" x="501.12" y="-292.5" font-family="Helvetica,sans-Serif" font-size="10.00">::UTF_8 &gt;</text>
</a>
</g>
</g>
<!-- Node6&#45;&gt;Node11 -->
<g id="edge11_Node000006_Node000011" class="edge">
<title>Node6&#45;&gt;Node11</title>
<g id="a_edge11_Node000006_Node000011"><a xlink:title=" ">
<path fill="none" stroke="#63b8ff" d="M397.37,-290.13C412.84,-292.82 428.87,-295.61 443.54,-298.16"/>
<polygon fill="#63b8ff" stroke="#63b8ff" points="398.17,-286.72 387.72,-288.45 396.97,-293.61 398.17,-286.72"/>
</a>
</g>
</g>
<!-- Node12 -->
<g id="Node000012" class="node">
<title>Node12</title>
<g id="a_Node000012"><a xlink:href="d6/dfe/classpcre2cpp_1_1basic__regex__exception.html" target="_top" xlink:title=" ">
<polygon fill="white" stroke="#666666" points="558.25,-268 444,-268 444,-224 558.25,-224 558.25,-268"/>
<text xml:space="preserve" text-anchor="start" x="452" y="-254.5" font-family="Helvetica,sans-Serif" font-size="10.00">pcre2cpp::basic_regex</text>
<text xml:space="preserve" text-anchor="start" x="452" y="-242.5" font-family="Helvetica,sans-Serif" font-size="10.00">_exception&lt; utf_type</text>
<text xml:space="preserve" text-anchor="middle" x="501.12" y="-230.5" font-family="Helvetica,sans-Serif" font-size="10.00">::UTF_16 &gt;</text>
</a>
</g>
</g>
<!-- Node6&#45;&gt;Node12 -->
<g id="edge12_Node000006_Node000012" class="edge">
<title>Node6&#45;&gt;Node12</title>
<g id="a_edge12_Node000006_Node000012"><a xlink:title=" ">
<path fill="none" stroke="#63b8ff" d="M397.37,-263.87C412.84,-261.18 428.87,-258.39 443.54,-255.84"/>
<polygon fill="#63b8ff" stroke="#63b8ff" points="396.97,-260.39 387.72,-265.55 398.17,-267.28 396.97,-260.39"/>
</a>
</g>
</g>
<!-- Node13 -->
<g id="Node000013" class="node">
<title>Node13</title>
<g id="a_Node000013"><a xlink:href="d6/dfe/classpcre2cpp_1_1basic__regex__exception.html" target="_top" xlink:title=" ">
<polygon fill="white" stroke="#666666" points="558.25,-206 444,-206 444,-162 558.25,-162 558.25,-206"/>
<text xml:space="preserve" text-anchor="start" x="452" y="-192.5" font-family="Helvetica,sans-Serif" font-size="10.00">pcre2cpp::basic_regex</text>
<text xml:space="preserve" text-anchor="start" x="452" y="-180.5" font-family="Helvetica,sans-Serif" font-size="10.00">_exception&lt; utf_type</text>
<text xml:space="preserve" text-anchor="middle" x="501.12" y="-168.5" font-family="Helvetica,sans-Serif" font-size="10.00">::UTF_32 &gt;</text>
</a>
</g>
</g>
<!-- Node6&#45;&gt;Node13 -->
<g id="edge13_Node000006_Node000013" class="edge">
<title>Node6&#45;&gt;Node13</title>
<g id="a_edge13_Node000006_Node000013"><a xlink:title=" ">
<path fill="none" stroke="#63b8ff" d="M361.05,-255.04C382.9,-242.96 410.68,-227.85 435.75,-215 441.27,-212.17 447.09,-209.26 452.88,-206.42"/>
<polygon fill="#63b8ff" stroke="#63b8ff" points="359.52,-251.89 352.48,-259.8 362.92,-258.01 359.52,-251.89"/>
</a>
</g>
</g>
<!-- Node14 -->
<g id="Node000014" class="node">
<title>Node14</title>
<g id="a_Node000014"><a xlink:href="d6/dfe/classpcre2cpp_1_1basic__regex__exception.html" target="_top" xlink:title=" ">
<polygon fill="white" stroke="#666666" points="560.12,-144 442.12,-144 442.12,-100 560.12,-100 560.12,-144"/>
<text xml:space="preserve" text-anchor="start" x="450.12" y="-130.5" font-family="Helvetica,sans-Serif" font-size="10.00">pcre2cpp::basic_regex</text>
<text xml:space="preserve" text-anchor="start" x="450.12" y="-118.5" font-family="Helvetica,sans-Serif" font-size="10.00">_exception&lt; default_utf</text>
<text xml:space="preserve" text-anchor="middle" x="501.12" y="-106.5" font-family="Helvetica,sans-Serif" font-size="10.00">_type &gt;</text>
</a>
</g>
</g>
<!-- Node6&#45;&gt;Node14 -->
<g id="edge14_Node000006_Node000014" class="edge">
<title>Node6&#45;&gt;Node14</title>
<g id="a_edge14_Node000006_Node000014"><a xlink:title=" ">
<path fill="none" stroke="#63b8ff" d="M340.28,-251.83C361.09,-224.73 397.12,-181.67 435.75,-153 439.83,-149.97 444.26,-147.11 448.82,-144.46"/>
<polygon fill="#63b8ff" stroke="#63b8ff" points="337.73,-249.4 334.49,-259.49 343.32,-253.62 337.73,-249.4"/>
</a>
</g>
</g>
<!-- Node15 -->
<g id="Node000015" class="node">
<title>Node15</title>
<g id="a_Node000015"><a xlink:href="d5/dab/classpcre2cpp_1_1basic__match__result__exception.html" target="_top" xlink:title="match result exception class">
<polygon fill="white" stroke="#666666" points="562,-82 440.25,-82 440.25,-50 562,-50 562,-82"/>
<text xml:space="preserve" text-anchor="start" x="448.25" y="-68.5" font-family="Helvetica,sans-Serif" font-size="10.00">pcre2cpp::basic_match</text>
<text xml:space="preserve" text-anchor="middle" x="501.12" y="-56.5" font-family="Helvetica,sans-Serif" font-size="10.00">_result_exception&lt; utf &gt;</text>
</a>
</g>
</g>
<!-- Node6&#45;&gt;Node15 -->
<g id="edge15_Node000006_Node000015" class="edge">
<title>Node6&#45;&gt;Node15</title>
<g id="a_edge15_Node000006_Node000015"><a xlink:title=" ">
<path fill="none" stroke="#63b8ff" d="M331.79,-250.11C347.81,-210.15 383.01,-135.06 435.75,-91 439.61,-87.77 443.94,-84.93 448.48,-82.43"/>
<polygon fill="#63b8ff" stroke="#63b8ff" points="328.61,-248.63 328.25,-259.22 335.14,-251.17 328.61,-248.63"/>
</a>
</g>
</g>
<!-- Node16 -->
<g id="Node000016" class="node">
<title>Node16</title>
<g id="a_Node000016"><a xlink:href="d6/dfe/classpcre2cpp_1_1basic__regex__exception.html" target="_top" xlink:title="regex exception class">
<polygon fill="white" stroke="#666666" points="558.25,-32 444,-32 444,0 558.25,0 558.25,-32"/>
<text xml:space="preserve" text-anchor="start" x="452" y="-18.5" font-family="Helvetica,sans-Serif" font-size="10.00">pcre2cpp::basic_regex</text>
<text xml:space="preserve" text-anchor="middle" x="501.12" y="-6.5" font-family="Helvetica,sans-Serif" font-size="10.00">_exception&lt; utf &gt;</text>
</a>
</g>
</g>
<!-- Node6&#45;&gt;Node16 -->
<g id="edge16_Node000006_Node000016" class="edge">
<title>Node6&#45;&gt;Node16</title>
<g id="a_edge16_Node000006_Node000016"><a xlink:title=" ">
<path fill="none" stroke="#63b8ff" d="M328.04,-249.65C340.32,-201.14 372.29,-99.62 435.75,-41 439.27,-37.75 443.27,-34.9 447.5,-32.41"/>
<polygon fill="#63b8ff" stroke="#63b8ff" points="324.65,-248.77 325.69,-259.32 331.45,-250.42 324.65,-248.77"/>
</a>
</g>
</g>
</g>
</svg>
