<?xml version="1.0" encoding="UTF-8" standalone="no"?>
<!DOCTYPE svg PUBLIC "-//W3C//DTD SVG 1.1//EN"
 "http://www.w3.org/Graphics/SVG/1.1/DTD/svg11.dtd">
<!-- Generated by graphviz version 14.1.1 (20251213.1925)
 -->
<!-- Title: pcre2cpp::basic_pcre2cpp_exception&lt; utf &gt; Pages: 1 -->
<svg width="193pt" height="171pt"
 viewBox="0.00 0.00 193.00 171.00" xmlns="http://www.w3.org/2000/svg" xmlns:xlink="http://www.w3.org/1999/xlink">
<g id="graph0" class="graph" transform="scale(1 1) rotate(0) translate(4 167)">
<title>pcre2cpp::basic_pcre2cpp_exception&lt; utf &gt;</title>
<!-- Node1 -->
<g id="Node000001" class="node">
<title>Node1</title>
<g id="a_Node000001"><a xlink:title="base pcre2cpp exception class">
<polygon fill="#999999" stroke="#666666" points="183.25,-32 53.25,-32 53.25,0 183.25,0 183.25,-32"/>
<text xml:space="preserve" text-anchor="start" x="61.25" y="-18.5" font-family="Helvetica,sans-Serif" font-size="10.00">pcre2cpp::basic_pcre2cpp</text>
<text xml:space="preserve" text-anchor="middle" x="118.25" y="-6.5" font-family="Helvetica,sans-Serif" font-size="10.00">_exception&lt; utf &gt;</text>
</a>
</g>
</g>
<!-- Node2 -->
<g id="Node000002" class="node">
<title>Node2</title>
<g id="a_Node000002"><a xlink:title=" ">
<polygon fill="white" stroke="#666666" points="92.5,-106 0,-106 0,-86 92.5,-86 92.5,-106"/>
<text xml:space="preserve" text-anchor="middle" x="46.25" y="-92.5" font-family="Helvetica,sans-Serif" font-size="10.00">std::runtime_error</text>
</a>
</g>
</g>
<!-- Node2&#45;&gt;Node1 -->
<g id="edge1_Node000001_Node000002" class="edge">
<title>Node2&#45;&gt;Node1</title>
<g id="a_edge1_Node000001_Node000002"><a xlink:title=" ">
<path fill="none" stroke="#63b8ff" d="M62.59,-77.3C75.07,-63.78 92.09,-45.34 104.02,-32.42"/>
<polygon fill="#63b8ff" stroke="#63b8ff" points="60.03,-74.91 55.82,-84.63 65.17,-79.66 60.03,-74.91"/>
</a>
</g>
</g>
<!-- Node3 -->
<g id="Node000003" class="node">
<title>Node3</title>
<g id="a_Node000003"><a xlink:title=" ">
<polygon fill="white" stroke="#666666" points="85,-163 7.5,-163 7.5,-143 85,-143 85,-163"/>
<text xml:space="preserve" text-anchor="middle" x="46.25" y="-149.5" font-family="Helvetica,sans-Serif" font-size="10.00">std::exception</text>
</a>
</g>
</g>
<!-- Node3&#45;&gt;Node2 -->
<g id="edge2_Node000002_Node000003" class="edge">
<title>Node3&#45;&gt;Node2</title>
<g id="a_edge2_Node000002_Node000003"><a xlink:title=" ">
<path fill="none" stroke="#63b8ff" d="M46.25,-131.69C46.25,-122.97 46.25,-113.22 46.25,-106.28"/>
<polygon fill="#63b8ff" stroke="#63b8ff" points="42.75,-131.4 46.25,-141.4 49.75,-131.4 42.75,-131.4"/>
</a>
</g>
</g>
<!-- Node4 -->
<g id="Node000004" class="node">
<title>Node4</title>
<g id="a_Node000004"><a xlink:title=" ">
<polygon fill="white" stroke="#666666" points="174.25,-106 110.25,-106 110.25,-86 174.25,-86 174.25,-106"/>
<text xml:space="preserve" text-anchor="middle" x="142.25" y="-92.5" font-family="Helvetica,sans-Serif" font-size="10.00">string_type</text>
</a>
</g>
</g>
<!-- Node4&#45;&gt;Node1 -->
<g id="edge3_Node000001_Node000004" class="edge">
<title>Node4&#45;&gt;Node1</title>
<g id="a_edge3_Node000001_Node000004"><a xlink:title=" ">
<path fill="none" stroke="#9a32cd" stroke-dasharray="5,2" d="M136.07,-74.91C132,-61.67 126.74,-44.59 122.99,-32.42"/>
<polygon fill="#9a32cd" stroke="#9a32cd" points="132.67,-75.77 138.96,-84.3 139.36,-73.71 132.67,-75.77"/>
</a>
</g>
<text xml:space="preserve" text-anchor="start" x="136.8" y="-55.5" font-family="Helvetica,sans-Serif" font-size="10.00" fill="grey">_message</text>
</g>
</g>
</svg>
