<?xml version="1.0" encoding="UTF-8" standalone="no"?>
<!DOCTYPE svg PUBLIC "-//W3C//DTD SVG 1.1//EN"
 "http://www.w3.org/Graphics/SVG/1.1/DTD/svg11.dtd">
<!-- Generated by graphviz version 14.1.1 (20251213.1925)
 -->
<!-- Title: pcre2cpp::basic_match_result&lt; utf &gt; Pages: 1 -->
<svg width="402pt" height="140pt"
 viewBox="0.00 0.00 402.00 140.00" xmlns="http://www.w3.org/2000/svg" xmlns:xlink="http://www.w3.org/1999/xlink">
<g id="graph0" class="graph" transform="scale(1 1) rotate(0) translate(4 136)">
<title>pcre2cpp::basic_match_result&lt; utf &gt;</title>
<!-- Node1 -->
<g id="Node000001" class="node">
<title>Node1</title>
<g id="a_Node000001"><a xlink:title="Basic container to result data of match function.">
<polygon fill="#999999" stroke="#666666" points="117.25,-82 0,-82 0,-50 117.25,-50 117.25,-82"/>
<text xml:space="preserve" text-anchor="start" x="8" y="-68.5" font-family="Helvetica,sans-Serif" font-size="10.00">pcre2cpp::basic_match</text>
<text xml:space="preserve" text-anchor="middle" x="58.62" y="-56.5" font-family="Helvetica,sans-Serif" font-size="10.00">_result&lt; utf &gt;</text>
</a>
</g>
</g>
<!-- Node2 -->
<g id="Node000002" class="node">
<title>Node2</title>
<g id="a_Node000002"><a xlink:href="../../d1/d9f/classpcre2cpp_1_1basic__match__result.html" target="_top" xlink:title=" ">
<polygon fill="white" stroke="#666666" points="390.88,-132 256.38,-132 256.38,-100 390.88,-100 390.88,-132"/>
<text xml:space="preserve" text-anchor="start" x="264.38" y="-118.5" font-family="Helvetica,sans-Serif" font-size="10.00">pcre2cpp::basic_match</text>
<text xml:space="preserve" text-anchor="middle" x="323.62" y="-106.5" font-family="Helvetica,sans-Serif" font-size="10.00">_result&lt; utf_type::UTF_8 &gt;</text>
</a>
</g>
</g>
<!-- Node1&#45;&gt;Node2 -->
<g id="edge1_Node000001_Node000002" class="edge">
<title>Node1&#45;&gt;Node2</title>
<g id="a_edge1_Node000001_Node000002"><a xlink:title=" ">
<path fill="none" stroke="orange" stroke-dasharray="5,2" d="M123.69,-85.28C127.59,-86.25 131.46,-87.17 135.25,-88 174.93,-96.69 219.93,-103.52 255.89,-108.25"/>
<polygon fill="orange" stroke="orange" points="124.72,-81.93 114.16,-82.79 122.95,-88.71 124.72,-81.93"/>
</a>
</g>
<text xml:space="preserve" text-anchor="start" x="140.88" y="-110.45" font-family="Helvetica,sans-Serif" font-size="10.00" fill="grey">&lt; utf_type::UTF_8 &gt;</text>
</g>
<!-- Node3 -->
<g id="Node000003" class="node">
<title>Node3</title>
<g id="a_Node000003"><a xlink:href="../../d1/d9f/classpcre2cpp_1_1basic__match__result.html" target="_top" xlink:title=" ">
<polygon fill="white" stroke="#666666" points="393.5,-82 253.75,-82 253.75,-50 393.5,-50 393.5,-82"/>
<text xml:space="preserve" text-anchor="start" x="261.75" y="-68.5" font-family="Helvetica,sans-Serif" font-size="10.00">pcre2cpp::basic_match</text>
<text xml:space="preserve" text-anchor="middle" x="323.62" y="-56.5" font-family="Helvetica,sans-Serif" font-size="10.00">_result&lt; utf_type::UTF_16 &gt;</text>
</a>
</g>
</g>
<!-- Node1&#45;&gt;Node3 -->
<g id="edge2_Node000001_Node000003" class="edge">
<title>Node1&#45;&gt;Node3</title>
<g id="a_edge2_Node000001_Node000003"><a xlink:title=" ">
<path fill="none" stroke="orange" stroke-dasharray="5,2" d="M128.78,-66C167.28,-66 215.05,-66 253.54,-66"/>
<polygon fill="orange" stroke="orange" points="129.18,-62.5 119.18,-66 129.18,-69.5 129.18,-62.5"/>
</a>
</g>
<text xml:space="preserve" text-anchor="start" x="138.25" y="-71.5" font-family="Helvetica,sans-Serif" font-size="10.00" fill="grey">&lt; utf_type::UTF_16 &gt;</text>
</g>
<!-- Node4 -->
<g id="Node000004" class="node">
<title>Node4</title>
<g id="a_Node000004"><a xlink:href="../../d1/d9f/classpcre2cpp_1_1basic__match__result.html" target="_top" xlink:title=" ">
<polygon fill="white" stroke="#666666" points="393.5,-32 253.75,-32 253.75,0 393.5,0 393.5,-32"/>
<text xml:space="preserve" text-anchor="start" x="261.75" y="-18.5" font-family="Helvetica,sans-Serif" font-size="10.00">pcre2cpp::basic_match</text>
<text xml:space="preserve" text-anchor="middle" x="323.62" y="-6.5" font-family="Helvetica,sans-Serif" font-size="10.00">_result&lt; utf_type::UTF_32 &gt;</text>
</a>
</g>
</g>
<!-- Node1&#45;&gt;Node4 -->
<g id="edge3_Node000001_Node000004" class="edge">
<title>Node1&#45;&gt;Node4</title>
<g id="a_edge3_Node000001_Node000004"><a xlink:title=" ">
<path fill="none" stroke="orange" stroke-dasharray="5,2" d="M123.69,-46.72C127.59,-45.75 131.46,-44.83 135.25,-44 173.97,-35.52 217.75,-28.82 253.25,-24.1"/>
<polygon fill="orange" stroke="orange" points="122.95,-43.29 114.16,-49.21 124.72,-50.07 122.95,-43.29"/>
</a>
</g>
<text xml:space="preserve" text-anchor="start" x="138.25" y="-49.5" font-family="Helvetica,sans-Serif" font-size="10.00" fill="grey">&lt; utf_type::UTF_32 &gt;</text>
</g>
</g>
</svg>
