<?xml version="1.0" encoding="UTF-8" standalone="no"?>
<!DOCTYPE svg PUBLIC "-//W3C//DTD SVG 1.1//EN"
 "http://www.w3.org/Graphics/SVG/1.1/DTD/svg11.dtd">
<!-- Generated by graphviz version 14.1.1 (20251213.1925)
 -->
<!-- Title: pcre2cpp::basic_match_result&lt; utf &gt; Pages: 1 -->
<svg width="402pt" height="202pt"
 viewBox="0.00 0.00 402.00 202.00" xmlns="http://www.w3.org/2000/svg" xmlns:xlink="http://www.w3.org/1999/xlink">
<g id="graph0" class="graph" transform="scale(1 1) rotate(0) translate(4 198)">
<title>pcre2cpp::basic_match_result&lt; utf &gt;</title>
<!-- Node1 -->
<g id="Node000001" class="node">
<title>Node1</title>
<g id="a_Node000001"><a xlink:title="Basic container to result data of match function.">
<polygon fill="#999999" stroke="#666666" points="117.25,-119 0,-119 0,-87 117.25,-87 117.25,-119"/>
<text xml:space="preserve" text-anchor="start" x="8" y="-105.5" font-family="Helvetica,sans-Serif" font-size="10.00">pcre2cpp::basic_match</text>
<text xml:space="preserve" text-anchor="middle" x="58.62" y="-93.5" font-family="Helvetica,sans-Serif" font-size="10.00">_result&lt; utf &gt;</text>
</a>
</g>
</g>
<!-- Node2 -->
<g id="Node000002" class="node">
<title>Node2</title>
<g id="a_Node000002"><a xlink:href="../../d1/d9f/classpcre2cpp_1_1basic__match__result.html" target="_top" xlink:title=" ">
<polygon fill="white" stroke="#666666" points="390.88,-194 256.38,-194 256.38,-162 390.88,-162 390.88,-194"/>
<text xml:space="preserve" text-anchor="start" x="264.38" y="-180.5" font-family="Helvetica,sans-Serif" font-size="10.00">pcre2cpp::basic_match</text>
<text xml:space="preserve" text-anchor="middle" x="323.62" y="-168.5" font-family="Helvetica,sans-Serif" font-size="10.00">_result&lt; utf_type::UTF_8 &gt;</text>
</a>
</g>
</g>
<!-- Node1&#45;&gt;Node2 -->
<g id="edge1_Node000001_Node000002" class="edge">
<title>Node1&#45;&gt;Node2</title>
<g id="a_edge1_Node000001_Node000002"><a xlink:title=" ">
<path fill="none" stroke="orange" stroke-dasharray="5,2" d="M97.51,-124.55C109.31,-130.57 122.56,-136.65 135.25,-141 174.3,-154.39 219.69,-163.51 256.01,-169.34"/>
<polygon fill="orange" stroke="orange" points="99.38,-121.58 88.9,-120.02 96.12,-127.78 99.38,-121.58"/>
</a>
</g>
<text xml:space="preserve" text-anchor="start" x="140.88" y="-170.53" font-family="Helvetica,sans-Serif" font-size="10.00" fill="grey">&lt; utf_type::UTF_8 &gt;</text>
</g>
<!-- Node3 -->
<g id="Node000003" class="node">
<title>Node3</title>
<g id="a_Node000003"><a xlink:href="../../d1/d9f/classpcre2cpp_1_1basic__match__result.html" target="_top" xlink:title=" ">
<polygon fill="white" stroke="#666666" points="393.5,-144 253.75,-144 253.75,-112 393.5,-112 393.5,-144"/>
<text xml:space="preserve" text-anchor="start" x="261.75" y="-130.5" font-family="Helvetica,sans-Serif" font-size="10.00">pcre2cpp::basic_match</text>
<text xml:space="preserve" text-anchor="middle" x="323.62" y="-118.5" font-family="Helvetica,sans-Serif" font-size="10.00">_result&lt; utf_type::UTF_16 &gt;</text>
</a>
</g>
</g>
<!-- Node1&#45;&gt;Node3 -->
<g id="edge2_Node000001_Node000003" class="edge">
<title>Node1&#45;&gt;Node3</title>
<g id="a_edge2_Node000001_Node000003"><a xlink:title=" ">
<path fill="none" stroke="orange" stroke-dasharray="5,2" d="M128.78,-109.57C167.28,-113.23 215.05,-117.77 253.54,-121.43"/>
<polygon fill="orange" stroke="orange" points="129.46,-106.12 119.17,-108.66 128.8,-113.09 129.46,-106.12"/>
</a>
</g>
<text xml:space="preserve" text-anchor="start" x="138.25" y="-124.7" font-family="Helvetica,sans-Serif" font-size="10.00" fill="grey">&lt; utf_type::UTF_16 &gt;</text>
</g>
<!-- Node4 -->
<g id="Node000004" class="node">
<title>Node4</title>
<g id="a_Node000004"><a xlink:href="../../d1/d9f/classpcre2cpp_1_1basic__match__result.html" target="_top" xlink:title=" ">
<polygon fill="white" stroke="#666666" points="393.5,-94 253.75,-94 253.75,-62 393.5,-62 393.5,-94"/>
<text xml:space="preserve" text-anchor="start" x="261.75" y="-80.5" font-family="Helvetica,sans-Serif" font-size="10.00">pcre2cpp::basic_match</text>
<text xml:space="preserve" text-anchor="middle" x="323.62" y="-68.5" font-family="Helvetica,sans-Serif" font-size="10.00">_result&lt; utf_type::UTF_32 &gt;</text>
</a>
</g>
</g>
<!-- Node1&#45;&gt;Node4 -->
<g id="edge3_Node000001_Node000004" class="edge">
<title>Node1&#45;&gt;Node4</title>
<g id="a_edge3_Node000001_Node000004"><a xlink:title=" ">
<path fill="none" stroke="orange" stroke-dasharray="5,2" d="M129.02,-88.84C131.12,-88.54 133.2,-88.26 135.25,-88 174.2,-83.12 218,-80.62 253.45,-79.34"/>
<polygon fill="orange" stroke="orange" points="128.54,-85.37 119.2,-90.38 129.62,-92.29 128.54,-85.37"/>
</a>
</g>
<text xml:space="preserve" text-anchor="start" x="138.25" y="-93.5" font-family="Helvetica,sans-Serif" font-size="10.00" fill="grey">&lt; utf_type::UTF_32 &gt;</text>
</g>
<!-- Node5 -->
<g id="Node000005" class="node">
<title>Node5</title>
<g id="a_Node000005"><a xlink:href="../../d1/d9f/classpcre2cpp_1_1basic__match__result.html" target="_top" xlink:title=" ">
<polygon fill="white" stroke="#666666" points="382.25,-44 265,-44 265,0 382.25,0 382.25,-44"/>
<text xml:space="preserve" text-anchor="start" x="273" y="-30.5" font-family="Helvetica,sans-Serif" font-size="10.00">pcre2cpp::basic_match</text>
<text xml:space="preserve" text-anchor="start" x="273" y="-18.5" font-family="Helvetica,sans-Serif" font-size="10.00">_result&lt; default_utf</text>
<text xml:space="preserve" text-anchor="middle" x="323.62" y="-6.5" font-family="Helvetica,sans-Serif" font-size="10.00">_type &gt;</text>
</a>
</g>
</g>
<!-- Node1&#45;&gt;Node5 -->
<g id="edge4_Node000001_Node000005" class="edge">
<title>Node1&#45;&gt;Node5</title>
<g id="a_edge4_Node000001_Node000005"><a xlink:title=" ">
<path fill="none" stroke="orange" stroke-dasharray="5,2" d="M91.8,-80.49C104.78,-72.33 120.23,-63.71 135.25,-58 177.05,-42.11 226.87,-32.97 264.63,-27.87"/>
<polygon fill="orange" stroke="orange" points="90.15,-77.39 83.67,-85.77 93.96,-83.26 90.15,-77.39"/>
</a>
</g>
<text xml:space="preserve" text-anchor="start" x="141.62" y="-63.5" font-family="Helvetica,sans-Serif" font-size="10.00" fill="grey">&lt; default_utf_type &gt;</text>
</g>
</g>
</svg>
