<?xml version="1.0" encoding="UTF-8" standalone="no"?>
<!DOCTYPE svg PUBLIC "-//W3C//DTD SVG 1.1//EN"
 "http://www.w3.org/Graphics/SVG/1.1/DTD/svg11.dtd">
<!-- Generated by graphviz version 14.1.1 (20251213.1925)
 -->
<!-- Title: pcre2cpp::basic_regex&lt; utf &gt; Pages: 1 -->
<svg width="373pt" height="190pt"
 viewBox="0.00 0.00 373.00 190.00" xmlns="http://www.w3.org/2000/svg" xmlns:xlink="http://www.w3.org/1999/xlink">
<g id="graph0" class="graph" transform="scale(1 1) rotate(0) translate(4 186)">
<title>pcre2cpp::basic_regex&lt; utf &gt;</title>
<!-- Node1 -->
<g id="Node000001" class="node">
<title>Node1</title>
<g id="a_Node000001"><a xlink:title="Basic PCRE2 Regex container.">
<polygon fill="#999999" stroke="#666666" points="114.25,-107 0,-107 0,-75 114.25,-75 114.25,-107"/>
<text xml:space="preserve" text-anchor="start" x="8" y="-93.5" font-family="Helvetica,sans-Serif" font-size="10.00">pcre2cpp::basic_regex</text>
<text xml:space="preserve" text-anchor="middle" x="57.12" y="-81.5" font-family="Helvetica,sans-Serif" font-size="10.00">&lt; utf &gt;</text>
</a>
</g>
</g>
<!-- Node2 -->
<g id="Node000002" class="node">
<title>Node2</title>
<g id="a_Node000002"><a xlink:href="../../de/d88/classpcre2cpp_1_1basic__regex.html" target="_top" xlink:title=" ">
<polygon fill="white" stroke="#666666" points="365,-182 250.75,-182 250.75,-150 365,-150 365,-182"/>
<text xml:space="preserve" text-anchor="start" x="258.75" y="-168.5" font-family="Helvetica,sans-Serif" font-size="10.00">pcre2cpp::basic_regex</text>
<text xml:space="preserve" text-anchor="middle" x="307.88" y="-156.5" font-family="Helvetica,sans-Serif" font-size="10.00">&lt; utf_type::UTF_8 &gt;</text>
</a>
</g>
</g>
<!-- Node1&#45;&gt;Node2 -->
<g id="edge1_Node000001_Node000002" class="edge">
<title>Node1&#45;&gt;Node2</title>
<g id="a_edge1_Node000001_Node000002"><a xlink:title=" ">
<path fill="none" stroke="orange" stroke-dasharray="5,2" d="M94.6,-112.79C106.31,-119.07 119.54,-125.45 132.25,-130 170.57,-143.72 215.6,-152.84 250.33,-158.47"/>
<polygon fill="orange" stroke="orange" points="96.52,-109.86 86.07,-108.08 93.13,-115.98 96.52,-109.86"/>
</a>
</g>
<text xml:space="preserve" text-anchor="start" x="137.88" y="-160.54" font-family="Helvetica,sans-Serif" font-size="10.00" fill="grey">&lt; utf_type::UTF_8 &gt;</text>
</g>
<!-- Node3 -->
<g id="Node000003" class="node">
<title>Node3</title>
<g id="a_Node000003"><a xlink:href="../../de/d88/classpcre2cpp_1_1basic__regex.html" target="_top" xlink:title=" ">
<polygon fill="white" stroke="#666666" points="365,-132 250.75,-132 250.75,-100 365,-100 365,-132"/>
<text xml:space="preserve" text-anchor="start" x="258.75" y="-118.5" font-family="Helvetica,sans-Serif" font-size="10.00">pcre2cpp::basic_regex</text>
<text xml:space="preserve" text-anchor="middle" x="307.88" y="-106.5" font-family="Helvetica,sans-Serif" font-size="10.00">&lt; utf_type::UTF_16 &gt;</text>
</a>
</g>
</g>
<!-- Node1&#45;&gt;Node3 -->
<g id="edge2_Node000001_Node000003" class="edge">
<title>Node1&#45;&gt;Node3</title>
<g id="a_edge2_Node000001_Node000003"><a xlink:title=" ">
<path fill="none" stroke="orange" stroke-dasharray="5,2" d="M125.86,-97.81C165,-101.74 213.65,-106.63 250.65,-110.35"/>
<polygon fill="orange" stroke="orange" points="126.38,-94.34 116.08,-96.82 125.68,-101.31 126.38,-94.34"/>
</a>
</g>
<text xml:space="preserve" text-anchor="start" x="135.25" y="-113.41" font-family="Helvetica,sans-Serif" font-size="10.00" fill="grey">&lt; utf_type::UTF_16 &gt;</text>
</g>
<!-- Node4 -->
<g id="Node000004" class="node">
<title>Node4</title>
<g id="a_Node000004"><a xlink:href="../../de/d88/classpcre2cpp_1_1basic__regex.html" target="_top" xlink:title=" ">
<polygon fill="white" stroke="#666666" points="365,-82 250.75,-82 250.75,-50 365,-50 365,-82"/>
<text xml:space="preserve" text-anchor="start" x="258.75" y="-68.5" font-family="Helvetica,sans-Serif" font-size="10.00">pcre2cpp::basic_regex</text>
<text xml:space="preserve" text-anchor="middle" x="307.88" y="-56.5" font-family="Helvetica,sans-Serif" font-size="10.00">&lt; utf_type::UTF_32 &gt;</text>
</a>
</g>
</g>
<!-- Node1&#45;&gt;Node4 -->
<g id="edge3_Node000001_Node000004" class="edge">
<title>Node1&#45;&gt;Node4</title>
<g id="a_edge3_Node000001_Node000004"><a xlink:title=" ">
<path fill="none" stroke="orange" stroke-dasharray="5,2" d="M126.01,-77.83C128.11,-77.54 130.2,-77.26 132.25,-77 171.58,-72.07 216.19,-69.3 250.48,-67.78"/>
<polygon fill="orange" stroke="orange" points="125.52,-74.37 116.17,-79.34 126.58,-81.29 125.52,-74.37"/>
</a>
</g>
<text xml:space="preserve" text-anchor="start" x="135.25" y="-82.5" font-family="Helvetica,sans-Serif" font-size="10.00" fill="grey">&lt; utf_type::UTF_32 &gt;</text>
</g>
<!-- Node5 -->
<g id="Node000005" class="node">
<title>Node5</title>
<g id="a_Node000005"><a xlink:href="../../de/d88/classpcre2cpp_1_1basic__regex.html" target="_top" xlink:title=" ">
<polygon fill="white" stroke="#666666" points="365,-32 250.75,-32 250.75,0 365,0 365,-32"/>
<text xml:space="preserve" text-anchor="start" x="258.75" y="-18.5" font-family="Helvetica,sans-Serif" font-size="10.00">pcre2cpp::basic_regex</text>
<text xml:space="preserve" text-anchor="middle" x="307.88" y="-6.5" font-family="Helvetica,sans-Serif" font-size="10.00">&lt; default_utf_type &gt;</text>
</a>
</g>
</g>
<!-- Node1&#45;&gt;Node5 -->
<g id="edge4_Node000001_Node000005" class="edge">
<title>Node1&#45;&gt;Node5</title>
<g id="a_edge4_Node000001_Node000005"><a xlink:title=" ">
<path fill="none" stroke="orange" stroke-dasharray="5,2" d="M90.29,-68.47C102.87,-60.6 117.75,-52.39 132.25,-47 170.35,-32.85 215.59,-25.05 250.47,-20.81"/>
<polygon fill="orange" stroke="orange" points="88.5,-65.46 82.01,-73.83 92.31,-71.34 88.5,-65.46"/>
</a>
</g>
<text xml:space="preserve" text-anchor="start" x="138.62" y="-52.5" font-family="Helvetica,sans-Serif" font-size="10.00" fill="grey">&lt; default_utf_type &gt;</text>
</g>
</g>
</svg>
