<?xml version="1.0" encoding="UTF-8" standalone="no"?>
<!DOCTYPE svg PUBLIC "-//W3C//DTD SVG 1.1//EN"
 "http://www.w3.org/Graphics/SVG/1.1/DTD/svg11.dtd">
<!-- Generated by graphviz version 14.1.1 (20251213.1925)
 -->
<!-- Title: pcre2cpp::basic_match_value&lt; utf &gt; Pages: 1 -->
<svg width="401pt" height="190pt"
 viewBox="0.00 0.00 401.00 190.00" xmlns="http://www.w3.org/2000/svg" xmlns:xlink="http://www.w3.org/1999/xlink">
<g id="graph0" class="graph" transform="scale(1 1) rotate(0) translate(4 186)">
<title>pcre2cpp::basic_match_value&lt; utf &gt;</title>
<!-- Node1 -->
<g id="Node000001" class="node">
<title>Node1</title>
<g id="a_Node000001"><a xlink:title="Match value container.">
<polygon fill="#999999" stroke="#666666" points="117.25,-107 0,-107 0,-75 117.25,-75 117.25,-107"/>
<text xml:space="preserve" text-anchor="start" x="8" y="-93.5" font-family="Helvetica,sans-Serif" font-size="10.00">pcre2cpp::basic_match</text>
<text xml:space="preserve" text-anchor="middle" x="58.62" y="-81.5" font-family="Helvetica,sans-Serif" font-size="10.00">_value&lt; utf &gt;</text>
</a>
</g>
</g>
<!-- Node2 -->
<g id="Node000002" class="node">
<title>Node2</title>
<g id="a_Node000002"><a xlink:href="../../df/d63/structpcre2cpp_1_1basic__match__value.html" target="_top" xlink:title=" ">
<polygon fill="white" stroke="#666666" points="390.12,-182 256.38,-182 256.38,-150 390.12,-150 390.12,-182"/>
<text xml:space="preserve" text-anchor="start" x="264.38" y="-168.5" font-family="Helvetica,sans-Serif" font-size="10.00">pcre2cpp::basic_match</text>
<text xml:space="preserve" text-anchor="middle" x="323.25" y="-156.5" font-family="Helvetica,sans-Serif" font-size="10.00">_value&lt; utf_type::UTF_8 &gt;</text>
</a>
</g>
</g>
<!-- Node1&#45;&gt;Node2 -->
<g id="edge1_Node000001_Node000002" class="edge">
<title>Node1&#45;&gt;Node2</title>
<g id="a_edge1_Node000001_Node000002"><a xlink:title=" ">
<path fill="none" stroke="orange" stroke-dasharray="5,2" d="M97.51,-112.55C109.31,-118.57 122.57,-124.65 135.25,-129 174.38,-142.42 219.88,-151.56 256.2,-157.4"/>
<polygon fill="orange" stroke="orange" points="99.38,-109.58 88.9,-108.02 96.12,-115.77 99.38,-109.58"/>
</a>
</g>
<text xml:space="preserve" text-anchor="start" x="140.88" y="-159.4" font-family="Helvetica,sans-Serif" font-size="10.00" fill="grey">&lt; utf_type::UTF_8 &gt;</text>
</g>
<!-- Node3 -->
<g id="Node000003" class="node">
<title>Node3</title>
<g id="a_Node000003"><a xlink:href="../../df/d63/structpcre2cpp_1_1basic__match__value.html" target="_top" xlink:title=" ">
<polygon fill="white" stroke="#666666" points="392.75,-132 253.75,-132 253.75,-100 392.75,-100 392.75,-132"/>
<text xml:space="preserve" text-anchor="start" x="261.75" y="-118.5" font-family="Helvetica,sans-Serif" font-size="10.00">pcre2cpp::basic_match</text>
<text xml:space="preserve" text-anchor="middle" x="323.25" y="-106.5" font-family="Helvetica,sans-Serif" font-size="10.00">_value&lt; utf_type::UTF_16 &gt;</text>
</a>
</g>
</g>
<!-- Node1&#45;&gt;Node3 -->
<g id="edge2_Node000001_Node000003" class="edge">
<title>Node1&#45;&gt;Node3</title>
<g id="a_edge2_Node000001_Node000003"><a xlink:title=" ">
<path fill="none" stroke="orange" stroke-dasharray="5,2" d="M128.68,-97.57C167.12,-101.23 214.83,-105.77 253.26,-109.43"/>
<polygon fill="orange" stroke="orange" points="129.38,-94.12 119.09,-96.66 128.71,-101.09 129.38,-94.12"/>
</a>
</g>
<text xml:space="preserve" text-anchor="start" x="138.25" y="-112.7" font-family="Helvetica,sans-Serif" font-size="10.00" fill="grey">&lt; utf_type::UTF_16 &gt;</text>
</g>
<!-- Node4 -->
<g id="Node000004" class="node">
<title>Node4</title>
<g id="a_Node000004"><a xlink:href="../../df/d63/structpcre2cpp_1_1basic__match__value.html" target="_top" xlink:title=" ">
<polygon fill="white" stroke="#666666" points="392.75,-82 253.75,-82 253.75,-50 392.75,-50 392.75,-82"/>
<text xml:space="preserve" text-anchor="start" x="261.75" y="-68.5" font-family="Helvetica,sans-Serif" font-size="10.00">pcre2cpp::basic_match</text>
<text xml:space="preserve" text-anchor="middle" x="323.25" y="-56.5" font-family="Helvetica,sans-Serif" font-size="10.00">_value&lt; utf_type::UTF_32 &gt;</text>
</a>
</g>
</g>
<!-- Node1&#45;&gt;Node4 -->
<g id="edge3_Node000001_Node000004" class="edge">
<title>Node1&#45;&gt;Node4</title>
<g id="a_edge3_Node000001_Node000004"><a xlink:title=" ">
<path fill="none" stroke="orange" stroke-dasharray="5,2" d="M129.02,-76.84C131.12,-76.54 133.2,-76.26 135.25,-76 174.28,-71.11 218.2,-68.61 253.65,-67.33"/>
<polygon fill="orange" stroke="orange" points="128.54,-73.37 119.2,-78.38 129.62,-80.29 128.54,-73.37"/>
</a>
</g>
<text xml:space="preserve" text-anchor="start" x="138.25" y="-81.5" font-family="Helvetica,sans-Serif" font-size="10.00" fill="grey">&lt; utf_type::UTF_32 &gt;</text>
</g>
<!-- Node5 -->
<g id="Node000005" class="node">
<title>Node5</title>
<g id="a_Node000005"><a xlink:href="../../df/d63/structpcre2cpp_1_1basic__match__value.html" target="_top" xlink:title=" ">
<polygon fill="white" stroke="#666666" points="389.38,-32 257.12,-32 257.12,0 389.38,0 389.38,-32"/>
<text xml:space="preserve" text-anchor="start" x="265.12" y="-18.5" font-family="Helvetica,sans-Serif" font-size="10.00">pcre2cpp::basic_match</text>
<text xml:space="preserve" text-anchor="middle" x="323.25" y="-6.5" font-family="Helvetica,sans-Serif" font-size="10.00">_value&lt; default_utf_type &gt;</text>
</a>
</g>
</g>
<!-- Node1&#45;&gt;Node5 -->
<g id="edge4_Node000001_Node000005" class="edge">
<title>Node1&#45;&gt;Node5</title>
<g id="a_edge4_Node000001_Node000005"><a xlink:title=" ">
<path fill="none" stroke="orange" stroke-dasharray="5,2" d="M91.42,-68.44C104.45,-60.18 120.03,-51.52 135.25,-46 174.2,-31.88 220.11,-24.39 256.69,-20.42"/>
<polygon fill="orange" stroke="orange" points="89.7,-65.38 83.26,-73.79 93.54,-71.23 89.7,-65.38"/>
</a>
</g>
<text xml:space="preserve" text-anchor="start" x="141.62" y="-51.5" font-family="Helvetica,sans-Serif" font-size="10.00" fill="grey">&lt; default_utf_type &gt;</text>
</g>
</g>
</svg>
