<?xml version="1.0" encoding="UTF-8" standalone="no"?>
<!DOCTYPE svg PUBLIC "-//W3C//DTD SVG 1.1//EN"
 "http://www.w3.org/Graphics/SVG/1.1/DTD/svg11.dtd">
<!-- Generated by graphviz version 14.1.1 (20251213.1925)
 -->
<!-- Title: pcre2cpp::basic_match_result_exception&lt; utf &gt; Pages: 1 -->
<!--zoomable 238 -->

<svg id="main" version="1.1" xmlns="http://www.w3.org/2000/svg" xmlns:xlink="http://www.w3.org/1999/xlink" xml:space="preserve" onload="init(evt)">

<style type="text/css"><![CDATA[
.node, .edge {opacity: 0.7;}
.node.selected, .edge.selected {opacity: 1;}
.edge:hover path { stroke: red; }
.edge:hover polygon { stroke: red; fill: red; }
]]></style>

<defs>
  <circle id="rim" cx="0" cy="0" r="7"/>
  <circle id="rim2" cx="0" cy="0" r="3.5"/>
  <g id="zoomPlus">
    <use xlink:href="#rim" fill="#404040"><set attributeName="fill" to="#808080" begin="zoomplus.mouseover" end="zoomplus.mouseout"/></use>
    <path d="M-4,0h8M0,-4v8" fill="none" stroke="white" stroke-width="1.5" pointer-events="none"/>
  </g>
  <g id="zoomMin">
    <use xlink:href="#rim" fill="#404040"><set attributeName="fill" to="#808080" begin="zoomminus.mouseover" end="zoomminus.mouseout"/></use>
    <path d="M-4,0h8" fill="none" stroke="white" stroke-width="1.5" pointer-events="none"/>
  </g>
  <g id="arrowUp" transform="translate(30 24)">
    <use xlink:href="#rim"/>
    <path pointer-events="none" fill="none" stroke="white" stroke-width="1.5" d="M0,-3.0v7 M-2.5,-0.5L0,-3.0L2.5,-0.5"/>
  </g>
  <g id="arrowRight" transform="rotate(90) translate(36 -43)">
    <use xlink:href="#rim"/>
    <path pointer-events="none" fill="none" stroke="white" stroke-width="1.5" d="M0,-3.0v7 M-2.5,-0.5L0,-3.0L2.5,-0.5"/>
  </g>
  <g id="arrowDown" transform="rotate(180) translate(-30 -48)">
    <use xlink:href="#rim"/>
    <path pointer-events="none" fill="none" stroke="white" stroke-width="1.5" d="M0,-3.0v7 M-2.5,-0.5L0,-3.0L2.5,-0.5"/>
  </g>
  <g id="arrowLeft" transform="rotate(270) translate(-36 17)">
    <use xlink:href="#rim"/>
    <path pointer-events="none" fill="none" stroke="white" stroke-width="1.5" d="M0,-3.0v7 M-2.5,-0.5L0,-3.0L2.5,-0.5"/>
  </g>
  <g id="resetDef">
    <use xlink:href="#rim2" fill="#404040"><set attributeName="fill" to="#808080" begin="reset.mouseover" end="reset.mouseout"/></use>
  </g>
</defs>
<script type="application/ecmascript">
var viewWidth = 808;
var viewHeight = 238;
var sectionId = 'dynsection-0';
</script>
<script type="application/ecmascript" xlink:href="../../svg.min.js"/>
<svg id="graph" class="graph">
<g id="viewport">
<title>pcre2cpp::basic_match_result_exception&lt; utf &gt;</title>
<!-- Node1 -->
<g id="Node000001" class="node">
<title>Node1</title>
<g id="a_Node000001"><a xlink:title="match result exception class">
<polygon fill="#999999" stroke="#666666" points="532.75,-131 411,-131 411,-99 532.75,-99 532.75,-131"/>
<text xml:space="preserve" text-anchor="start" x="419" y="-117.5" font-family="Helvetica,sans-Serif" font-size="10.00">pcre2cpp::basic_match</text>
<text xml:space="preserve" text-anchor="middle" x="471.88" y="-105.5" font-family="Helvetica,sans-Serif" font-size="10.00">_result_exception&lt; utf &gt;</text>
</a>
</g>
</g>
<!-- Node5 -->
<g id="Node000005" class="node">
<title>Node5</title>
<g id="a_Node000005"><a xlink:href="../../d5/dab/classpcre2cpp_1_1basic__match__result__exception.html" target="_top" xlink:title=" ">
<polygon fill="white" stroke="#666666" points="793.25,-230 676,-230 676,-186 793.25,-186 793.25,-230"/>
<text xml:space="preserve" text-anchor="start" x="684" y="-216.5" font-family="Helvetica,sans-Serif" font-size="10.00">pcre2cpp::basic_match</text>
<text xml:space="preserve" text-anchor="start" x="684" y="-204.5" font-family="Helvetica,sans-Serif" font-size="10.00">_result_exception&lt; utf</text>
<text xml:space="preserve" text-anchor="middle" x="734.62" y="-192.5" font-family="Helvetica,sans-Serif" font-size="10.00">_type::UTF_8 &gt;</text>
</a>
</g>
</g>
<!-- Node1&#45;&gt;Node5 -->
<g id="edge4_Node000001_Node000005" class="edge">
<title>Node1&#45;&gt;Node5</title>
<g id="a_edge4_Node000001_Node000005"><a xlink:title=" ">
<path fill="none" stroke="orange" stroke-dasharray="5,2" d="M508.67,-137.1C521.6,-144.45 536.52,-152.22 550.75,-158 591.31,-174.47 639.09,-187.32 675.63,-195.87"/>
<polygon fill="orange" stroke="orange" points="510.49,-134.11 500.08,-132.1 506.97,-140.16 510.49,-134.11"/>
</a>
</g>
<text xml:space="preserve" text-anchor="start" x="556.38" y="-194.79" font-family="Helvetica,sans-Serif" font-size="10.00" fill="grey">&lt; utf_type::UTF_8 &gt;</text>
</g>
<!-- Node6 -->
<g id="Node000006" class="node">
<title>Node6</title>
<g id="a_Node000006"><a xlink:href="../../d5/dab/classpcre2cpp_1_1basic__match__result__exception.html" target="_top" xlink:title=" ">
<polygon fill="white" stroke="#666666" points="793.25,-168 676,-168 676,-124 793.25,-124 793.25,-168"/>
<text xml:space="preserve" text-anchor="start" x="684" y="-154.5" font-family="Helvetica,sans-Serif" font-size="10.00">pcre2cpp::basic_match</text>
<text xml:space="preserve" text-anchor="start" x="684" y="-142.5" font-family="Helvetica,sans-Serif" font-size="10.00">_result_exception&lt; utf</text>
<text xml:space="preserve" text-anchor="middle" x="734.62" y="-130.5" font-family="Helvetica,sans-Serif" font-size="10.00">_type::UTF_16 &gt;</text>
</a>
</g>
</g>
<!-- Node1&#45;&gt;Node6 -->
<g id="edge5_Node000001_Node000006" class="edge">
<title>Node1&#45;&gt;Node6</title>
<g id="a_edge5_Node000001_Node000006"><a xlink:title=" ">
<path fill="none" stroke="orange" stroke-dasharray="5,2" d="M544.38,-123.5C585.63,-128.4 636.83,-134.49 675.57,-139.1"/>
<polygon fill="orange" stroke="orange" points="544.87,-120.03 534.53,-122.33 544.04,-126.99 544.87,-120.03"/>
</a>
</g>
<text xml:space="preserve" text-anchor="start" x="553.75" y="-141.47" font-family="Helvetica,sans-Serif" font-size="10.00" fill="grey">&lt; utf_type::UTF_16 &gt;</text>
</g>
<!-- Node7 -->
<g id="Node000007" class="node">
<title>Node7</title>
<g id="a_Node000007"><a xlink:href="../../d5/dab/classpcre2cpp_1_1basic__match__result__exception.html" target="_top" xlink:title=" ">
<polygon fill="white" stroke="#666666" points="793.25,-106 676,-106 676,-62 793.25,-62 793.25,-106"/>
<text xml:space="preserve" text-anchor="start" x="684" y="-92.5" font-family="Helvetica,sans-Serif" font-size="10.00">pcre2cpp::basic_match</text>
<text xml:space="preserve" text-anchor="start" x="684" y="-80.5" font-family="Helvetica,sans-Serif" font-size="10.00">_result_exception&lt; utf</text>
<text xml:space="preserve" text-anchor="middle" x="734.62" y="-68.5" font-family="Helvetica,sans-Serif" font-size="10.00">_type::UTF_32 &gt;</text>
</a>
</g>
</g>
<!-- Node1&#45;&gt;Node7 -->
<g id="edge6_Node000001_Node000007" class="edge">
<title>Node1&#45;&gt;Node7</title>
<g id="a_edge6_Node000001_Node000007"><a xlink:title=" ">
<path fill="none" stroke="orange" stroke-dasharray="5,2" d="M544.53,-103.82C546.63,-103.54 548.7,-103.26 550.75,-103 592.54,-97.61 639.85,-92.73 675.89,-89.26"/>
<polygon fill="orange" stroke="orange" points="544.12,-100.34 534.7,-105.19 545.09,-107.28 544.12,-100.34"/>
</a>
</g>
<text xml:space="preserve" text-anchor="start" x="553.75" y="-108.5" font-family="Helvetica,sans-Serif" font-size="10.00" fill="grey">&lt; utf_type::UTF_32 &gt;</text>
</g>
<!-- Node8 -->
<g id="Node000008" class="node">
<title>Node8</title>
<g id="a_Node000008"><a xlink:href="../../d5/dab/classpcre2cpp_1_1basic__match__result__exception.html" target="_top" xlink:title=" ">
<polygon fill="white" stroke="#666666" points="800,-44 669.25,-44 669.25,0 800,0 800,-44"/>
<text xml:space="preserve" text-anchor="start" x="677.25" y="-30.5" font-family="Helvetica,sans-Serif" font-size="10.00">pcre2cpp::basic_match</text>
<text xml:space="preserve" text-anchor="start" x="677.25" y="-18.5" font-family="Helvetica,sans-Serif" font-size="10.00">_result_exception&lt; default</text>
<text xml:space="preserve" text-anchor="middle" x="734.62" y="-6.5" font-family="Helvetica,sans-Serif" font-size="10.00">_utf_type &gt;</text>
</a>
</g>
</g>
<!-- Node1&#45;&gt;Node8 -->
<g id="edge7_Node000001_Node000008" class="edge">
<title>Node1&#45;&gt;Node8</title>
<g id="a_edge7_Node000001_Node000008"><a xlink:title=" ">
<path fill="none" stroke="orange" stroke-dasharray="5,2" d="M506.91,-92.69C520.19,-84.7 535.79,-76.15 550.75,-70 588.69,-54.39 633.18,-42.58 668.78,-34.58"/>
<polygon fill="orange" stroke="orange" points="505.22,-89.62 498.55,-97.85 508.89,-95.57 505.22,-89.62"/>
</a>
</g>
<text xml:space="preserve" text-anchor="start" x="557.12" y="-75.5" font-family="Helvetica,sans-Serif" font-size="10.00" fill="grey">&lt; default_utf_type &gt;</text>
</g>
<!-- Node2 -->
<g id="Node000002" class="node">
<title>Node2</title>
<g id="a_Node000002"><a xlink:href="../../df/d62/classpcre2cpp_1_1basic__pcre2cpp__exception.html" target="_top" xlink:title="base pcre2cpp exception class">
<polygon fill="white" stroke="#666666" points="374,-131 244,-131 244,-99 374,-99 374,-131"/>
<text xml:space="preserve" text-anchor="start" x="252" y="-117.5" font-family="Helvetica,sans-Serif" font-size="10.00">pcre2cpp::basic_pcre2cpp</text>
<text xml:space="preserve" text-anchor="middle" x="309" y="-105.5" font-family="Helvetica,sans-Serif" font-size="10.00">_exception&lt; utf &gt;</text>
</a>
</g>
</g>
<!-- Node2&#45;&gt;Node1 -->
<g id="edge1_Node000001_Node000002" class="edge">
<title>Node2&#45;&gt;Node1</title>
<g id="a_edge1_Node000001_Node000002"><a xlink:title=" ">
<path fill="none" stroke="#63b8ff" d="M385.5,-115C393.95,-115 402.48,-115 410.71,-115"/>
<polygon fill="#63b8ff" stroke="#63b8ff" points="385.56,-111.5 375.56,-115 385.56,-118.5 385.56,-111.5"/>
</a>
</g>
</g>
<!-- Node3 -->
<g id="Node000003" class="node">
<title>Node3</title>
<g id="a_Node000003"><a xlink:title=" ">
<polygon fill="white" stroke="#666666" points="207,-125 114.5,-125 114.5,-105 207,-105 207,-125"/>
<text xml:space="preserve" text-anchor="middle" x="160.75" y="-111.5" font-family="Helvetica,sans-Serif" font-size="10.00">std::runtime_error</text>
</a>
</g>
</g>
<!-- Node3&#45;&gt;Node2 -->
<g id="edge2_Node000002_Node000003" class="edge">
<title>Node3&#45;&gt;Node2</title>
<g id="a_edge2_Node000002_Node000003"><a xlink:title=" ">
<path fill="none" stroke="#63b8ff" d="M218.63,-115C226.87,-115 235.39,-115 243.76,-115"/>
<polygon fill="#63b8ff" stroke="#63b8ff" points="218.74,-111.5 208.74,-115 218.74,-118.5 218.74,-111.5"/>
</a>
</g>
</g>
<!-- Node4 -->
<g id="Node000004" class="node">
<title>Node4</title>
<g id="a_Node000004"><a xlink:title=" ">
<polygon fill="white" stroke="#666666" points="77.5,-125 0,-125 0,-105 77.5,-105 77.5,-125"/>
<text xml:space="preserve" text-anchor="middle" x="38.75" y="-111.5" font-family="Helvetica,sans-Serif" font-size="10.00">std::exception</text>
</a>
</g>
</g>
<!-- Node4&#45;&gt;Node3 -->
<g id="edge3_Node000003_Node000004" class="edge">
<title>Node4&#45;&gt;Node3</title>
<g id="a_edge3_Node000003_Node000004"><a xlink:title=" ">
<path fill="none" stroke="#63b8ff" d="M89.12,-115C97.37,-115 105.89,-115 114.04,-115"/>
<polygon fill="#63b8ff" stroke="#63b8ff" points="89.23,-111.5 79.23,-115 89.23,-118.5 89.23,-111.5"/>
</a>
</g>
</g>
</g>
</svg>

<g id="navigator" transform="translate(0 0)" fill="#404254">
  <rect fill="#f2f5e9" fill-opacity="0.5" stroke="#606060" stroke-width=".5" x="0" y="0" width="60" height="60"/>
  <use id="zoomplus" xlink:href="#zoomPlus" x="17" y="9" onmousedown="handleZoom(evt,'in')"/>
  <use id="zoomminus" xlink:href="#zoomMin" x="42" y="9" onmousedown="handleZoom(evt,'out')"/>
  <use id="reset" xlink:href="#resetDef" x="30" y="36" onmousedown="handleReset()"/>
   <use id="arrowup" xlink:href="#arrowUp" x="0" y="0" onmousedown="handlePan(0,-1)"/>
  <use id="arrowright" xlink:href="#arrowRight" x="0" y="0" onmousedown="handlePan(1,0)"/>
  <use id="arrowdown" xlink:href="#arrowDown" x="0" y="0" onmousedown="handlePan(0,1)"/>
  <use id="arrowleft" xlink:href="#arrowLeft" x="0" y="0" onmousedown="handlePan(-1,0)"/>
</g>
<svg viewBox="0 0 15 15" width="100%" height="30px" preserveAspectRatio="xMaxYMin meet">
 <g id="arrow_out" transform="scale(0.3 0.3)">
  <a xlink:href="classpcre2cpp_1_1basic__match__result__exception__inherit__graph_org.svg" target="_base">
   <rect id="button" ry="5" rx="5" y="6" x="6" height="38" width="38"
        fill="#f2f5e9" fill-opacity="0.5" stroke="#606060" stroke-width="1.0"/>
   <path id="arrow"
     d="M 11.500037,31.436501 C 11.940474,20.09759 22.043105,11.32322 32.158766,21.979434 L 37.068811,17.246167 C 37.068811,17.246167 37.088388,32 37.088388,32 L 22.160133,31.978069 C 22.160133,31.978069 26.997745,27.140456 26.997745,27.140456 C 18.528582,18.264221 13.291696,25.230495 11.500037,31.436501 z"
     style="fill:#404040;"/>
  </a>
 </g>
</svg>

<style type='text/css'>
<![CDATA[
[data-mouse-over-selected='false'] { opacity: 0.7; }
[data-mouse-over-selected='true']  { opacity: 1.0; }
]]>
</style>
<script type="application/ecmascript"><![CDATA[
document.addEventListener('DOMContentLoaded', (event) => {
  highlightEdges();
  highlightAdjacentNodes();
});
]]></script>
</svg>
