<?xml version="1.0" encoding="UTF-8" standalone="no"?>
<!DOCTYPE svg PUBLIC "-//W3C//DTD SVG 1.1//EN"
 "http://www.w3.org/Graphics/SVG/1.1/DTD/svg11.dtd">
<!-- Generated by graphviz version 14.1.1 (20251213.1925)
 -->
<!-- Title: pcre2cpp::basic_match_result_exception&lt; utf &gt; Pages: 1 -->
<svg width="795pt" height="176pt"
 viewBox="0.00 0.00 795.00 176.00" xmlns="http://www.w3.org/2000/svg" xmlns:xlink="http://www.w3.org/1999/xlink">
<g id="graph0" class="graph" transform="scale(1 1) rotate(0) translate(4 172)">
<title>pcre2cpp::basic_match_result_exception&lt; utf &gt;</title>
<!-- Node1 -->
<g id="Node000001" class="node">
<title>Node1</title>
<g id="a_Node000001"><a xlink:title="match result exception class">
<polygon fill="#999999" stroke="#666666" points="532.75,-100 411,-100 411,-68 532.75,-68 532.75,-100"/>
<text xml:space="preserve" text-anchor="start" x="419" y="-86.5" font-family="Helvetica,sans-Serif" font-size="10.00">pcre2cpp::basic_match</text>
<text xml:space="preserve" text-anchor="middle" x="471.88" y="-74.5" font-family="Helvetica,sans-Serif" font-size="10.00">_result_exception&lt; utf &gt;</text>
</a>
</g>
</g>
<!-- Node5 -->
<g id="Node000005" class="node">
<title>Node5</title>
<g id="a_Node000005"><a xlink:href="../../d5/dab/classpcre2cpp_1_1basic__match__result__exception.html" target="_top" xlink:title=" ">
<polygon fill="white" stroke="#666666" points="786.5,-168 669.25,-168 669.25,-124 786.5,-124 786.5,-168"/>
<text xml:space="preserve" text-anchor="start" x="677.25" y="-154.5" font-family="Helvetica,sans-Serif" font-size="10.00">pcre2cpp::basic_match</text>
<text xml:space="preserve" text-anchor="start" x="677.25" y="-142.5" font-family="Helvetica,sans-Serif" font-size="10.00">_result_exception&lt; utf</text>
<text xml:space="preserve" text-anchor="middle" x="727.88" y="-130.5" font-family="Helvetica,sans-Serif" font-size="10.00">_type::UTF_8 &gt;</text>
</a>
</g>
</g>
<!-- Node1&#45;&gt;Node5 -->
<g id="edge4_Node000001_Node000005" class="edge">
<title>Node1&#45;&gt;Node5</title>
<g id="a_edge4_Node000001_Node000005"><a xlink:title=" ">
<path fill="none" stroke="orange" stroke-dasharray="5,2" d="M540.68,-103.38C544.08,-104.28 547.45,-105.16 550.75,-106 589.95,-115.98 634.36,-126.06 668.79,-133.6"/>
<polygon fill="orange" stroke="orange" points="541.8,-100.06 531.24,-100.84 539.98,-106.82 541.8,-100.06"/>
</a>
</g>
<text xml:space="preserve" text-anchor="start" x="556.38" y="-135.14" font-family="Helvetica,sans-Serif" font-size="10.00" fill="grey">&lt; utf_type::UTF_8 &gt;</text>
</g>
<!-- Node6 -->
<g id="Node000006" class="node">
<title>Node6</title>
<g id="a_Node000006"><a xlink:href="../../d5/dab/classpcre2cpp_1_1basic__match__result__exception.html" target="_top" xlink:title=" ">
<polygon fill="white" stroke="#666666" points="786.5,-106 669.25,-106 669.25,-62 786.5,-62 786.5,-106"/>
<text xml:space="preserve" text-anchor="start" x="677.25" y="-92.5" font-family="Helvetica,sans-Serif" font-size="10.00">pcre2cpp::basic_match</text>
<text xml:space="preserve" text-anchor="start" x="677.25" y="-80.5" font-family="Helvetica,sans-Serif" font-size="10.00">_result_exception&lt; utf</text>
<text xml:space="preserve" text-anchor="middle" x="727.88" y="-68.5" font-family="Helvetica,sans-Serif" font-size="10.00">_type::UTF_16 &gt;</text>
</a>
</g>
</g>
<!-- Node1&#45;&gt;Node6 -->
<g id="edge5_Node000001_Node000006" class="edge">
<title>Node1&#45;&gt;Node6</title>
<g id="a_edge5_Node000001_Node000006"><a xlink:title=" ">
<path fill="none" stroke="orange" stroke-dasharray="5,2" d="M544.44,-84C583.76,-84 631.9,-84 668.86,-84"/>
<polygon fill="orange" stroke="orange" points="544.58,-80.5 534.58,-84 544.58,-87.5 544.58,-80.5"/>
</a>
</g>
<text xml:space="preserve" text-anchor="start" x="553.75" y="-89.5" font-family="Helvetica,sans-Serif" font-size="10.00" fill="grey">&lt; utf_type::UTF_16 &gt;</text>
</g>
<!-- Node7 -->
<g id="Node000007" class="node">
<title>Node7</title>
<g id="a_Node000007"><a xlink:href="../../d5/dab/classpcre2cpp_1_1basic__match__result__exception.html" target="_top" xlink:title=" ">
<polygon fill="white" stroke="#666666" points="786.5,-44 669.25,-44 669.25,0 786.5,0 786.5,-44"/>
<text xml:space="preserve" text-anchor="start" x="677.25" y="-30.5" font-family="Helvetica,sans-Serif" font-size="10.00">pcre2cpp::basic_match</text>
<text xml:space="preserve" text-anchor="start" x="677.25" y="-18.5" font-family="Helvetica,sans-Serif" font-size="10.00">_result_exception&lt; utf</text>
<text xml:space="preserve" text-anchor="middle" x="727.88" y="-6.5" font-family="Helvetica,sans-Serif" font-size="10.00">_type::UTF_32 &gt;</text>
</a>
</g>
</g>
<!-- Node1&#45;&gt;Node7 -->
<g id="edge6_Node000001_Node000007" class="edge">
<title>Node1&#45;&gt;Node7</title>
<g id="a_edge6_Node000001_Node000007"><a xlink:title=" ">
<path fill="none" stroke="orange" stroke-dasharray="5,2" d="M540.68,-64.62C544.08,-63.72 547.45,-62.84 550.75,-62 589.95,-52.02 634.36,-41.94 668.79,-34.4"/>
<polygon fill="orange" stroke="orange" points="539.98,-61.18 531.24,-67.16 541.8,-67.94 539.98,-61.18"/>
</a>
</g>
<text xml:space="preserve" text-anchor="start" x="553.75" y="-67.5" font-family="Helvetica,sans-Serif" font-size="10.00" fill="grey">&lt; utf_type::UTF_32 &gt;</text>
</g>
<!-- Node2 -->
<g id="Node000002" class="node">
<title>Node2</title>
<g id="a_Node000002"><a xlink:href="../../df/d62/classpcre2cpp_1_1basic__pcre2cpp__exception.html" target="_top" xlink:title="base pcre2cpp exception class">
<polygon fill="white" stroke="#666666" points="374,-100 244,-100 244,-68 374,-68 374,-100"/>
<text xml:space="preserve" text-anchor="start" x="252" y="-86.5" font-family="Helvetica,sans-Serif" font-size="10.00">pcre2cpp::basic_pcre2cpp</text>
<text xml:space="preserve" text-anchor="middle" x="309" y="-74.5" font-family="Helvetica,sans-Serif" font-size="10.00">_exception&lt; utf &gt;</text>
</a>
</g>
</g>
<!-- Node2&#45;&gt;Node1 -->
<g id="edge1_Node000001_Node000002" class="edge">
<title>Node2&#45;&gt;Node1</title>
<g id="a_edge1_Node000001_Node000002"><a xlink:title=" ">
<path fill="none" stroke="#63b8ff" d="M385.5,-84C393.95,-84 402.48,-84 410.71,-84"/>
<polygon fill="#63b8ff" stroke="#63b8ff" points="385.56,-80.5 375.56,-84 385.56,-87.5 385.56,-80.5"/>
</a>
</g>
</g>
<!-- Node3 -->
<g id="Node000003" class="node">
<title>Node3</title>
<g id="a_Node000003"><a xlink:title=" ">
<polygon fill="white" stroke="#666666" points="207,-94 114.5,-94 114.5,-74 207,-74 207,-94"/>
<text xml:space="preserve" text-anchor="middle" x="160.75" y="-80.5" font-family="Helvetica,sans-Serif" font-size="10.00">std::runtime_error</text>
</a>
</g>
</g>
<!-- Node3&#45;&gt;Node2 -->
<g id="edge2_Node000002_Node000003" class="edge">
<title>Node3&#45;&gt;Node2</title>
<g id="a_edge2_Node000002_Node000003"><a xlink:title=" ">
<path fill="none" stroke="#63b8ff" d="M218.63,-84C226.87,-84 235.39,-84 243.76,-84"/>
<polygon fill="#63b8ff" stroke="#63b8ff" points="218.74,-80.5 208.74,-84 218.74,-87.5 218.74,-80.5"/>
</a>
</g>
</g>
<!-- Node4 -->
<g id="Node000004" class="node">
<title>Node4</title>
<g id="a_Node000004"><a xlink:title=" ">
<polygon fill="white" stroke="#666666" points="77.5,-94 0,-94 0,-74 77.5,-74 77.5,-94"/>
<text xml:space="preserve" text-anchor="middle" x="38.75" y="-80.5" font-family="Helvetica,sans-Serif" font-size="10.00">std::exception</text>
</a>
</g>
</g>
<!-- Node4&#45;&gt;Node3 -->
<g id="edge3_Node000003_Node000004" class="edge">
<title>Node4&#45;&gt;Node3</title>
<g id="a_edge3_Node000003_Node000004"><a xlink:title=" ">
<path fill="none" stroke="#63b8ff" d="M89.12,-84C97.37,-84 105.89,-84 114.04,-84"/>
<polygon fill="#63b8ff" stroke="#63b8ff" points="89.23,-80.5 79.23,-84 89.23,-87.5 89.23,-80.5"/>
</a>
</g>
</g>
</g>
</svg>
