<?xml version="1.0" encoding="UTF-8" standalone="no"?>
<!DOCTYPE svg PUBLIC "-//W3C//DTD SVG 1.1//EN"
 "http://www.w3.org/Graphics/SVG/1.1/DTD/svg11.dtd">
<!-- Generated by graphviz version 14.1.1 (20251213.1925)
 -->
<!-- Title: pcre2cpp::basic_regex&lt; utf &gt; Pages: 1 -->
<svg width="705pt" height="140pt"
 viewBox="0.00 0.00 705.00 140.00" xmlns="http://www.w3.org/2000/svg" xmlns:xlink="http://www.w3.org/1999/xlink">
<g id="graph0" class="graph" transform="scale(1 1) rotate(0) translate(4 136)">
<title>pcre2cpp::basic_regex&lt; utf &gt;</title>
<!-- Node1 -->
<g id="Node000001" class="node">
<title>Node1</title>
<g id="a_Node000001"><a xlink:title="Basic PCRE2 Regex container.">
<polygon fill="#999999" stroke="#666666" points="697.05,-82 582.8,-82 582.8,-50 697.05,-50 697.05,-82"/>
<text xml:space="preserve" text-anchor="start" x="590.8" y="-68.5" font-family="Helvetica,sans-Serif" font-size="10.00">pcre2cpp::basic_regex</text>
<text xml:space="preserve" text-anchor="middle" x="639.92" y="-56.5" font-family="Helvetica,sans-Serif" font-size="10.00">&lt; utf &gt;</text>
</a>
</g>
</g>
<!-- Node2 -->
<g id="Node000002" class="node">
<title>Node2</title>
<g id="a_Node000002"><a xlink:title=" ">
<polygon fill="white" stroke="#666666" points="447.42,-132 330.92,-132 330.92,-100 447.42,-100 447.42,-132"/>
<text xml:space="preserve" text-anchor="start" x="338.92" y="-118.5" font-family="Helvetica,sans-Serif" font-size="10.00">std::shared_ptr&lt; _code</text>
<text xml:space="preserve" text-anchor="middle" x="389.17" y="-106.5" font-family="Helvetica,sans-Serif" font-size="10.00">_type &gt;</text>
</a>
</g>
</g>
<!-- Node2&#45;&gt;Node1 -->
<g id="edge1_Node000001_Node000002" class="edge">
<title>Node2&#45;&gt;Node1</title>
<g id="a_edge1_Node000001_Node000002"><a xlink:title=" ">
<path fill="none" stroke="#9a32cd" stroke-dasharray="5,2" d="M458.7,-107.11C491.07,-102.38 530.12,-95.89 564.8,-88 571.87,-86.39 579.25,-84.48 586.51,-82.47"/>
<polygon fill="#9a32cd" stroke="#9a32cd" points="458.45,-103.61 449.05,-108.49 459.45,-110.54 458.45,-103.61"/>
</a>
</g>
<text xml:space="preserve" text-anchor="start" x="504.05" y="-110.89" font-family="Helvetica,sans-Serif" font-size="10.00" fill="grey">_code</text>
</g>
<!-- Node3 -->
<g id="Node000003" class="node">
<title>Node3</title>
<g id="a_Node000003"><a xlink:title=" ">
<polygon fill="white" stroke="#666666" points="186.55,-83 82.05,-83 82.05,-63 186.55,-63 186.55,-83"/>
<text xml:space="preserve" text-anchor="middle" x="134.3" y="-69.5" font-family="Helvetica,sans-Serif" font-size="10.00">std::shared_ptr&lt; T &gt;</text>
</a>
</g>
</g>
<!-- Node3&#45;&gt;Node2 -->
<g id="edge2_Node000002_Node000003" class="edge">
<title>Node3&#45;&gt;Node2</title>
<g id="a_edge2_Node000002_Node000003"><a xlink:title=" ">
<path fill="none" stroke="orange" stroke-dasharray="5,2" d="M178.43,-86.58C187.03,-88.97 196.03,-91.25 204.55,-93 246.4,-101.61 294.33,-107.48 330.73,-111.14"/>
<polygon fill="orange" stroke="orange" points="179.48,-83.24 168.9,-83.84 177.54,-89.97 179.48,-83.24"/>
</a>
</g>
<text xml:space="preserve" text-anchor="start" x="222.55" y="-114.29" font-family="Helvetica,sans-Serif" font-size="10.00" fill="grey">&lt; _code_type &gt;</text>
</g>
<!-- Node5 -->
<g id="Node000005" class="node">
<title>Node5</title>
<g id="a_Node000005"><a xlink:title=" ">
<polygon fill="white" stroke="#666666" points="450.42,-82 327.92,-82 327.92,-50 450.42,-50 450.42,-82"/>
<text xml:space="preserve" text-anchor="start" x="335.92" y="-68.5" font-family="Helvetica,sans-Serif" font-size="10.00">std::shared_ptr&lt; _match</text>
<text xml:space="preserve" text-anchor="middle" x="389.17" y="-56.5" font-family="Helvetica,sans-Serif" font-size="10.00">_data_type &gt;</text>
</a>
</g>
</g>
<!-- Node3&#45;&gt;Node5 -->
<g id="edge5_Node000005_Node000003" class="edge">
<title>Node3&#45;&gt;Node5</title>
<g id="a_edge5_Node000005_Node000003"><a xlink:title=" ">
<path fill="none" stroke="orange" stroke-dasharray="5,2" d="M198.17,-71.26C237.81,-70.16 288.73,-68.75 327.87,-67.67"/>
<polygon fill="orange" stroke="orange" points="198.19,-67.76 188.29,-71.53 198.38,-74.75 198.19,-67.76"/>
</a>
</g>
<text xml:space="preserve" text-anchor="start" x="207.55" y="-76.43" font-family="Helvetica,sans-Serif" font-size="10.00" fill="grey">&lt; _match_data_type &gt;</text>
</g>
<!-- Node6 -->
<g id="Node000006" class="node">
<title>Node6</title>
<g id="a_Node000006"><a xlink:title=" ">
<polygon fill="white" stroke="#666666" points="451.55,-32 326.8,-32 326.8,0 451.55,0 451.55,-32"/>
<text xml:space="preserve" text-anchor="start" x="334.8" y="-18.5" font-family="Helvetica,sans-Serif" font-size="10.00">std::shared_ptr&lt; _named</text>
<text xml:space="preserve" text-anchor="middle" x="389.17" y="-6.5" font-family="Helvetica,sans-Serif" font-size="10.00">_sub_values_table &gt;</text>
</a>
</g>
</g>
<!-- Node3&#45;&gt;Node6 -->
<g id="edge7_Node000006_Node000003" class="edge">
<title>Node3&#45;&gt;Node6</title>
<g id="a_edge7_Node000006_Node000003"><a xlink:title=" ">
<path fill="none" stroke="orange" stroke-dasharray="5,2" d="M156.68,-55.96C169.72,-46.56 187.18,-35.68 204.55,-30 243.75,-17.19 290.07,-13.73 326.38,-13.46"/>
<polygon fill="orange" stroke="orange" points="154.75,-53.03 148.85,-61.84 158.95,-58.63 154.75,-53.03"/>
</a>
</g>
<text xml:space="preserve" text-anchor="start" x="207.55" y="-51.5" font-family="Helvetica,sans-Serif" font-size="10.00" fill="grey">&lt; _named_sub_values</text>
<text xml:space="preserve" text-anchor="start" x="207.55" y="-35.5" font-family="Helvetica,sans-Serif" font-size="10.00" fill="grey">  _table &gt;</text>
</g>
<!-- Node4 -->
<g id="Node000004" class="node">
<title>Node4</title>
<g id="a_Node000004"><a xlink:title=" ">
<polygon fill="white" stroke="#666666" points="28.8,-83 0,-83 0,-63 28.8,-63 28.8,-83"/>
<text xml:space="preserve" text-anchor="middle" x="14.4" y="-69.5" font-family="Helvetica,sans-Serif" font-size="10.00">T</text>
</a>
</g>
</g>
<!-- Node4&#45;&gt;Node3 -->
<g id="edge3_Node000003_Node000004" class="edge">
<title>Node4&#45;&gt;Node3</title>
<g id="a_edge3_Node000003_Node000004"><a xlink:title=" ">
<path fill="none" stroke="#9a32cd" stroke-dasharray="5,2" d="M40.33,-73C52.42,-73 67.42,-73 81.81,-73"/>
<polygon fill="#9a32cd" stroke="#9a32cd" points="40.44,-69.5 30.44,-73 40.44,-76.5 40.44,-69.5"/>
</a>
</g>
<text xml:space="preserve" text-anchor="start" x="49.8" y="-78.5" font-family="Helvetica,sans-Serif" font-size="10.00" fill="grey">ptr</text>
</g>
<!-- Node5&#45;&gt;Node1 -->
<g id="edge4_Node000001_Node000005" class="edge">
<title>Node5&#45;&gt;Node1</title>
<g id="a_edge4_Node000001_Node000005"><a xlink:title=" ">
<path fill="none" stroke="#9a32cd" stroke-dasharray="5,2" d="M461.8,-66C500.12,-66 546.64,-66 582.39,-66"/>
<polygon fill="#9a32cd" stroke="#9a32cd" points="462.22,-62.5 452.22,-66 462.22,-69.5 462.22,-62.5"/>
</a>
</g>
<text xml:space="preserve" text-anchor="start" x="489.05" y="-71.5" font-family="Helvetica,sans-Serif" font-size="10.00" fill="grey">_match_data</text>
</g>
<!-- Node6&#45;&gt;Node1 -->
<g id="edge6_Node000001_Node000006" class="edge">
<title>Node6&#45;&gt;Node1</title>
<g id="a_edge6_Node000001_Node000006"><a xlink:title=" ">
<path fill="none" stroke="#9a32cd" stroke-dasharray="5,2" d="M463.28,-25.57C494.7,-30.23 531.74,-36.48 564.8,-44 571.87,-45.61 579.25,-47.52 586.51,-49.53"/>
<polygon fill="#9a32cd" stroke="#9a32cd" points="463.87,-22.11 453.47,-24.14 462.86,-29.04 463.87,-22.11"/>
</a>
</g>
<text xml:space="preserve" text-anchor="start" x="472.55" y="-49.5" font-family="Helvetica,sans-Serif" font-size="10.00" fill="grey">_named_sub_values</text>
</g>
</g>
</svg>
