<?xml version="1.0" encoding="UTF-8" standalone="no"?>
<!DOCTYPE svg PUBLIC "-//W3C//DTD SVG 1.1//EN"
 "http://www.w3.org/Graphics/SVG/1.1/DTD/svg11.dtd">
<!-- Generated by graphviz version 14.1.1 (20251213.1925)
 -->
<!-- Title: pcre2cpp::basic_regex&lt; utf &gt; Pages: 1 -->
<svg width="705pt" height="217pt"
 viewBox="0.00 0.00 705.00 217.00" xmlns="http://www.w3.org/2000/svg" xmlns:xlink="http://www.w3.org/1999/xlink">
<g id="graph0" class="graph" transform="scale(1 1) rotate(0) translate(4 213)">
<title>pcre2cpp::basic_regex&lt; utf &gt;</title>
<!-- Node1 -->
<g id="Node000001" class="node">
<title>Node1</title>
<g id="a_Node000001"><a xlink:title="Basic PCRE2 Regex container.">
<polygon fill="#999999" stroke="#666666" points="697.05,-109 582.8,-109 582.8,-77 697.05,-77 697.05,-109"/>
<text xml:space="preserve" text-anchor="start" x="590.8" y="-95.5" font-family="Helvetica,sans-Serif" font-size="10.00">pcre2cpp::basic_regex</text>
<text xml:space="preserve" text-anchor="middle" x="639.92" y="-83.5" font-family="Helvetica,sans-Serif" font-size="10.00">&lt; utf &gt;</text>
</a>
</g>
</g>
<!-- Node2 -->
<g id="Node000002" class="node">
<title>Node2</title>
<g id="a_Node000002"><a xlink:title=" ">
<polygon fill="white" stroke="#666666" points="447.42,-209 330.92,-209 330.92,-177 447.42,-177 447.42,-209"/>
<text xml:space="preserve" text-anchor="start" x="338.92" y="-195.5" font-family="Helvetica,sans-Serif" font-size="10.00">std::shared_ptr&lt; _code</text>
<text xml:space="preserve" text-anchor="middle" x="389.17" y="-183.5" font-family="Helvetica,sans-Serif" font-size="10.00">_type &gt;</text>
</a>
</g>
</g>
<!-- Node2&#45;&gt;Node1 -->
<g id="edge1_Node000001_Node000002" class="edge">
<title>Node2&#45;&gt;Node1</title>
<g id="a_edge1_Node000001_Node000002"><a xlink:title=" ">
<path fill="none" stroke="#9a32cd" stroke-dasharray="5,2" d="M458.86,-185.26C492.09,-179.65 531.82,-170.1 564.8,-154 587.71,-142.81 609.72,-123.21 623.71,-109.25"/>
<polygon fill="#9a32cd" stroke="#9a32cd" points="458.68,-181.74 449.36,-186.78 459.78,-188.66 458.68,-181.74"/>
</a>
</g>
<text xml:space="preserve" text-anchor="start" x="504.05" y="-188.3" font-family="Helvetica,sans-Serif" font-size="10.00" fill="grey">_code</text>
</g>
<!-- Node3 -->
<g id="Node000003" class="node">
<title>Node3</title>
<g id="a_Node000003"><a xlink:title=" ">
<polygon fill="white" stroke="#666666" points="186.55,-160 82.05,-160 82.05,-140 186.55,-140 186.55,-160"/>
<text xml:space="preserve" text-anchor="middle" x="134.3" y="-146.5" font-family="Helvetica,sans-Serif" font-size="10.00">std::shared_ptr&lt; T &gt;</text>
</a>
</g>
</g>
<!-- Node3&#45;&gt;Node2 -->
<g id="edge2_Node000002_Node000003" class="edge">
<title>Node3&#45;&gt;Node2</title>
<g id="a_edge2_Node000002_Node000003"><a xlink:title=" ">
<path fill="none" stroke="orange" stroke-dasharray="5,2" d="M178.43,-163.58C187.03,-165.97 196.03,-168.25 204.55,-170 246.4,-178.61 294.33,-184.48 330.73,-188.14"/>
<polygon fill="orange" stroke="orange" points="179.48,-160.24 168.9,-160.84 177.54,-166.97 179.48,-160.24"/>
</a>
</g>
<text xml:space="preserve" text-anchor="start" x="222.55" y="-191.29" font-family="Helvetica,sans-Serif" font-size="10.00" fill="grey">&lt; _code_type &gt;</text>
</g>
<!-- Node5 -->
<g id="Node000005" class="node">
<title>Node5</title>
<g id="a_Node000005"><a xlink:title=" ">
<polygon fill="white" stroke="#666666" points="450.42,-159 327.92,-159 327.92,-127 450.42,-127 450.42,-159"/>
<text xml:space="preserve" text-anchor="start" x="335.92" y="-145.5" font-family="Helvetica,sans-Serif" font-size="10.00">std::shared_ptr&lt; _match</text>
<text xml:space="preserve" text-anchor="middle" x="389.17" y="-133.5" font-family="Helvetica,sans-Serif" font-size="10.00">_data_type &gt;</text>
</a>
</g>
</g>
<!-- Node3&#45;&gt;Node5 -->
<g id="edge5_Node000005_Node000003" class="edge">
<title>Node3&#45;&gt;Node5</title>
<g id="a_edge5_Node000005_Node000003"><a xlink:title=" ">
<path fill="none" stroke="orange" stroke-dasharray="5,2" d="M198.17,-148.26C237.81,-147.16 288.73,-145.75 327.87,-144.67"/>
<polygon fill="orange" stroke="orange" points="198.19,-144.76 188.29,-148.53 198.38,-151.75 198.19,-144.76"/>
</a>
</g>
<text xml:space="preserve" text-anchor="start" x="207.55" y="-153.43" font-family="Helvetica,sans-Serif" font-size="10.00" fill="grey">&lt; _match_data_type &gt;</text>
</g>
<!-- Node6 -->
<g id="Node000006" class="node">
<title>Node6</title>
<g id="a_Node000006"><a xlink:title=" ">
<polygon fill="white" stroke="#666666" points="451.55,-109 326.8,-109 326.8,-77 451.55,-77 451.55,-109"/>
<text xml:space="preserve" text-anchor="start" x="334.8" y="-95.5" font-family="Helvetica,sans-Serif" font-size="10.00">std::shared_ptr&lt; _named</text>
<text xml:space="preserve" text-anchor="middle" x="389.17" y="-83.5" font-family="Helvetica,sans-Serif" font-size="10.00">_sub_values_table &gt;</text>
</a>
</g>
</g>
<!-- Node3&#45;&gt;Node6 -->
<g id="edge7_Node000006_Node000003" class="edge">
<title>Node3&#45;&gt;Node6</title>
<g id="a_edge7_Node000006_Node000003"><a xlink:title=" ">
<path fill="none" stroke="orange" stroke-dasharray="5,2" d="M156.68,-132.96C169.72,-123.56 187.18,-112.68 204.55,-107 243.75,-94.19 290.07,-90.73 326.38,-90.46"/>
<polygon fill="orange" stroke="orange" points="154.75,-130.03 148.85,-138.84 158.95,-135.63 154.75,-130.03"/>
</a>
</g>
<text xml:space="preserve" text-anchor="start" x="207.55" y="-128.5" font-family="Helvetica,sans-Serif" font-size="10.00" fill="grey">&lt; _named_sub_values</text>
<text xml:space="preserve" text-anchor="start" x="207.55" y="-112.5" font-family="Helvetica,sans-Serif" font-size="10.00" fill="grey">  _table &gt;</text>
</g>
<!-- Node4 -->
<g id="Node000004" class="node">
<title>Node4</title>
<g id="a_Node000004"><a xlink:title=" ">
<polygon fill="white" stroke="#666666" points="28.8,-160 0,-160 0,-140 28.8,-140 28.8,-160"/>
<text xml:space="preserve" text-anchor="middle" x="14.4" y="-146.5" font-family="Helvetica,sans-Serif" font-size="10.00">T</text>
</a>
</g>
</g>
<!-- Node4&#45;&gt;Node3 -->
<g id="edge3_Node000003_Node000004" class="edge">
<title>Node4&#45;&gt;Node3</title>
<g id="a_edge3_Node000003_Node000004"><a xlink:title=" ">
<path fill="none" stroke="#9a32cd" stroke-dasharray="5,2" d="M40.33,-150C52.42,-150 67.42,-150 81.81,-150"/>
<polygon fill="#9a32cd" stroke="#9a32cd" points="40.44,-146.5 30.44,-150 40.44,-153.5 40.44,-146.5"/>
</a>
</g>
<text xml:space="preserve" text-anchor="start" x="49.8" y="-155.5" font-family="Helvetica,sans-Serif" font-size="10.00" fill="grey">ptr</text>
</g>
<!-- Node5&#45;&gt;Node1 -->
<g id="edge4_Node000001_Node000005" class="edge">
<title>Node5&#45;&gt;Node1</title>
<g id="a_edge4_Node000001_Node000005"><a xlink:title=" ">
<path fill="none" stroke="#9a32cd" stroke-dasharray="5,2" d="M462.14,-133.6C493.81,-128.92 531.34,-122.62 564.8,-115 571.87,-113.39 579.25,-111.48 586.51,-109.47"/>
<polygon fill="#9a32cd" stroke="#9a32cd" points="461.65,-130.14 452.25,-135.04 462.65,-137.07 461.65,-130.14"/>
</a>
</g>
<text xml:space="preserve" text-anchor="start" x="489.05" y="-137.89" font-family="Helvetica,sans-Serif" font-size="10.00" fill="grey">_match_data</text>
</g>
<!-- Node6&#45;&gt;Node1 -->
<g id="edge6_Node000001_Node000006" class="edge">
<title>Node6&#45;&gt;Node1</title>
<g id="a_edge6_Node000001_Node000006"><a xlink:title=" ">
<path fill="none" stroke="#9a32cd" stroke-dasharray="5,2" d="M463.03,-93C501.17,-93 547.15,-93 582.54,-93"/>
<polygon fill="#9a32cd" stroke="#9a32cd" points="463.5,-89.5 453.5,-93 463.5,-96.5 463.5,-89.5"/>
</a>
</g>
<text xml:space="preserve" text-anchor="start" x="472.55" y="-98.5" font-family="Helvetica,sans-Serif" font-size="10.00" fill="grey">_named_sub_values</text>
</g>
<!-- Node7 -->
<g id="Node000007" class="node">
<title>Node7</title>
<g id="a_Node000007"><a xlink:title=" ">
<polygon fill="white" stroke="#666666" points="403.57,-59 374.77,-59 374.77,-39 403.57,-39 403.57,-59"/>
<text xml:space="preserve" text-anchor="middle" x="389.17" y="-45.5" font-family="Helvetica,sans-Serif" font-size="10.00">int</text>
</a>
</g>
</g>
<!-- Node7&#45;&gt;Node1 -->
<g id="edge8_Node000001_Node000007" class="edge">
<title>Node7&#45;&gt;Node1</title>
<g id="a_edge8_Node000001_Node000007"><a xlink:title=" ">
<path fill="none" stroke="#9a32cd" stroke-dasharray="5,2" d="M415.06,-50.85C449.12,-53.67 512.06,-59.93 564.8,-71 572.16,-72.54 579.84,-74.47 587.36,-76.53"/>
<polygon fill="#9a32cd" stroke="#9a32cd" points="415.64,-47.38 405.39,-50.08 415.09,-54.36 415.64,-47.38"/>
</a>
</g>
<text xml:space="preserve" text-anchor="start" x="491.67" y="-76.5" font-family="Helvetica,sans-Serif" font-size="10.00" fill="grey">_error_code</text>
</g>
<!-- Node8 -->
<g id="Node000008" class="node">
<title>Node8</title>
<g id="a_Node000008"><a xlink:title=" ">
<polygon fill="white" stroke="#666666" points="410.3,-20 368.05,-20 368.05,0 410.3,0 410.3,-20"/>
<text xml:space="preserve" text-anchor="middle" x="389.17" y="-6.5" font-family="Helvetica,sans-Serif" font-size="10.00">size_t</text>
</a>
</g>
</g>
<!-- Node8&#45;&gt;Node1 -->
<g id="edge9_Node000001_Node000008" class="edge">
<title>Node8&#45;&gt;Node1</title>
<g id="a_edge9_Node000001_Node000008"><a xlink:title=" ">
<path fill="none" stroke="#9a32cd" stroke-dasharray="5,2" d="M422,-9.4C458.06,-9.82 517.91,-13.93 564.8,-34 587.78,-43.84 609.61,-62.79 623.54,-76.57"/>
<polygon fill="#9a32cd" stroke="#9a32cd" points="422.26,-5.9 412.25,-9.38 422.24,-12.9 422.26,-5.9"/>
</a>
</g>
<text xml:space="preserve" text-anchor="start" x="490.17" y="-39.5" font-family="Helvetica,sans-Serif" font-size="10.00" fill="grey">_error_offset</text>
</g>
</g>
</svg>
