<?xml version="1.0" encoding="UTF-8" standalone="no"?>
<!DOCTYPE svg PUBLIC "-//W3C//DTD SVG 1.1//EN"
 "http://www.w3.org/Graphics/SVG/1.1/DTD/svg11.dtd">
<!-- Generated by graphviz version 14.1.1 (20251213.1925)
 -->
<!-- Title: pcre2cpp::basic_regex&lt; utf &gt; Pages: 1 -->
<!--zoomable 140 -->

<svg id="main" version="1.1" xmlns="http://www.w3.org/2000/svg" xmlns:xlink="http://www.w3.org/1999/xlink" xml:space="preserve" onload="init(evt)">

<style type="text/css"><![CDATA[
.node, .edge {opacity: 0.7;}
.node.selected, .edge.selected {opacity: 1;}
.edge:hover path { stroke: red; }
.edge:hover polygon { stroke: red; fill: red; }
]]></style>

<defs>
  <circle id="rim" cx="0" cy="0" r="7"/>
  <circle id="rim2" cx="0" cy="0" r="3.5"/>
  <g id="zoomPlus">
    <use xlink:href="#rim" fill="#404040"><set attributeName="fill" to="#808080" begin="zoomplus.mouseover" end="zoomplus.mouseout"/></use>
    <path d="M-4,0h8M0,-4v8" fill="none" stroke="white" stroke-width="1.5" pointer-events="none"/>
  </g>
  <g id="zoomMin">
    <use xlink:href="#rim" fill="#404040"><set attributeName="fill" to="#808080" begin="zoomminus.mouseover" end="zoomminus.mouseout"/></use>
    <path d="M-4,0h8" fill="none" stroke="white" stroke-width="1.5" pointer-events="none"/>
  </g>
  <g id="arrowUp" transform="translate(30 24)">
    <use xlink:href="#rim"/>
    <path pointer-events="none" fill="none" stroke="white" stroke-width="1.5" d="M0,-3.0v7 M-2.5,-0.5L0,-3.0L2.5,-0.5"/>
  </g>
  <g id="arrowRight" transform="rotate(90) translate(36 -43)">
    <use xlink:href="#rim"/>
    <path pointer-events="none" fill="none" stroke="white" stroke-width="1.5" d="M0,-3.0v7 M-2.5,-0.5L0,-3.0L2.5,-0.5"/>
  </g>
  <g id="arrowDown" transform="rotate(180) translate(-30 -48)">
    <use xlink:href="#rim"/>
    <path pointer-events="none" fill="none" stroke="white" stroke-width="1.5" d="M0,-3.0v7 M-2.5,-0.5L0,-3.0L2.5,-0.5"/>
  </g>
  <g id="arrowLeft" transform="rotate(270) translate(-36 17)">
    <use xlink:href="#rim"/>
    <path pointer-events="none" fill="none" stroke="white" stroke-width="1.5" d="M0,-3.0v7 M-2.5,-0.5L0,-3.0L2.5,-0.5"/>
  </g>
  <g id="resetDef">
    <use xlink:href="#rim2" fill="#404040"><set attributeName="fill" to="#808080" begin="reset.mouseover" end="reset.mouseout"/></use>
  </g>
</defs>
<script type="application/ecmascript">
var viewWidth = 705;
var viewHeight = 140;
var sectionId = 'dynsection-1';
</script>
<script type="application/ecmascript" xlink:href="../../svg.min.js"/>
<svg id="graph" class="graph">
<g id="viewport">
<title>pcre2cpp::basic_regex&lt; utf &gt;</title>
<!-- Node1 -->
<g id="Node000001" class="node">
<title>Node1</title>
<g id="a_Node000001"><a xlink:title="Basic PCRE2 Regex container.">
<polygon fill="#999999" stroke="#666666" points="697.05,-82 582.8,-82 582.8,-50 697.05,-50 697.05,-82"/>
<text xml:space="preserve" text-anchor="start" x="590.8" y="-68.5" font-family="Helvetica,sans-Serif" font-size="10.00">pcre2cpp::basic_regex</text>
<text xml:space="preserve" text-anchor="middle" x="639.92" y="-56.5" font-family="Helvetica,sans-Serif" font-size="10.00">&lt; utf &gt;</text>
</a>
</g>
</g>
<!-- Node2 -->
<g id="Node000002" class="node">
<title>Node2</title>
<g id="a_Node000002"><a xlink:title=" ">
<polygon fill="white" stroke="#666666" points="447.42,-132 330.92,-132 330.92,-100 447.42,-100 447.42,-132"/>
<text xml:space="preserve" text-anchor="start" x="338.92" y="-118.5" font-family="Helvetica,sans-Serif" font-size="10.00">std::shared_ptr&lt; _code</text>
<text xml:space="preserve" text-anchor="middle" x="389.17" y="-106.5" font-family="Helvetica,sans-Serif" font-size="10.00">_type &gt;</text>
</a>
</g>
</g>
<!-- Node2&#45;&gt;Node1 -->
<g id="edge1_Node000001_Node000002" class="edge">
<title>Node2&#45;&gt;Node1</title>
<g id="a_edge1_Node000001_Node000002"><a xlink:title=" ">
<path fill="none" stroke="#9a32cd" stroke-dasharray="5,2" d="M458.7,-107.11C491.07,-102.38 530.12,-95.89 564.8,-88 571.87,-86.39 579.25,-84.48 586.51,-82.47"/>
<polygon fill="#9a32cd" stroke="#9a32cd" points="458.45,-103.61 449.05,-108.49 459.45,-110.54 458.45,-103.61"/>
</a>
</g>
<text xml:space="preserve" text-anchor="start" x="504.05" y="-110.89" font-family="Helvetica,sans-Serif" font-size="10.00" fill="grey">_code</text>
</g>
<!-- Node3 -->
<g id="Node000003" class="node">
<title>Node3</title>
<g id="a_Node000003"><a xlink:title=" ">
<polygon fill="white" stroke="#666666" points="186.55,-83 82.05,-83 82.05,-63 186.55,-63 186.55,-83"/>
<text xml:space="preserve" text-anchor="middle" x="134.3" y="-69.5" font-family="Helvetica,sans-Serif" font-size="10.00">std::shared_ptr&lt; T &gt;</text>
</a>
</g>
</g>
<!-- Node3&#45;&gt;Node2 -->
<g id="edge2_Node000002_Node000003" class="edge">
<title>Node3&#45;&gt;Node2</title>
<g id="a_edge2_Node000002_Node000003"><a xlink:title=" ">
<path fill="none" stroke="orange" stroke-dasharray="5,2" d="M178.43,-86.58C187.03,-88.97 196.03,-91.25 204.55,-93 246.4,-101.61 294.33,-107.48 330.73,-111.14"/>
<polygon fill="orange" stroke="orange" points="179.48,-83.24 168.9,-83.84 177.54,-89.97 179.48,-83.24"/>
</a>
</g>
<text xml:space="preserve" text-anchor="start" x="222.55" y="-114.29" font-family="Helvetica,sans-Serif" font-size="10.00" fill="grey">&lt; _code_type &gt;</text>
</g>
<!-- Node5 -->
<g id="Node000005" class="node">
<title>Node5</title>
<g id="a_Node000005"><a xlink:title=" ">
<polygon fill="white" stroke="#666666" points="450.42,-82 327.92,-82 327.92,-50 450.42,-50 450.42,-82"/>
<text xml:space="preserve" text-anchor="start" x="335.92" y="-68.5" font-family="Helvetica,sans-Serif" font-size="10.00">std::shared_ptr&lt; _match</text>
<text xml:space="preserve" text-anchor="middle" x="389.17" y="-56.5" font-family="Helvetica,sans-Serif" font-size="10.00">_data_type &gt;</text>
</a>
</g>
</g>
<!-- Node3&#45;&gt;Node5 -->
<g id="edge5_Node000005_Node000003" class="edge">
<title>Node3&#45;&gt;Node5</title>
<g id="a_edge5_Node000005_Node000003"><a xlink:title=" ">
<path fill="none" stroke="orange" stroke-dasharray="5,2" d="M198.17,-71.26C237.81,-70.16 288.73,-68.75 327.87,-67.67"/>
<polygon fill="orange" stroke="orange" points="198.19,-67.76 188.29,-71.53 198.38,-74.75 198.19,-67.76"/>
</a>
</g>
<text xml:space="preserve" text-anchor="start" x="207.55" y="-76.43" font-family="Helvetica,sans-Serif" font-size="10.00" fill="grey">&lt; _match_data_type &gt;</text>
</g>
<!-- Node6 -->
<g id="Node000006" class="node">
<title>Node6</title>
<g id="a_Node000006"><a xlink:title=" ">
<polygon fill="white" stroke="#666666" points="451.55,-32 326.8,-32 326.8,0 451.55,0 451.55,-32"/>
<text xml:space="preserve" text-anchor="start" x="334.8" y="-18.5" font-family="Helvetica,sans-Serif" font-size="10.00">std::shared_ptr&lt; _named</text>
<text xml:space="preserve" text-anchor="middle" x="389.17" y="-6.5" font-family="Helvetica,sans-Serif" font-size="10.00">_sub_values_table &gt;</text>
</a>
</g>
</g>
<!-- Node3&#45;&gt;Node6 -->
<g id="edge7_Node000006_Node000003" class="edge">
<title>Node3&#45;&gt;Node6</title>
<g id="a_edge7_Node000006_Node000003"><a xlink:title=" ">
<path fill="none" stroke="orange" stroke-dasharray="5,2" d="M156.68,-55.96C169.72,-46.56 187.18,-35.68 204.55,-30 243.75,-17.19 290.07,-13.73 326.38,-13.46"/>
<polygon fill="orange" stroke="orange" points="154.75,-53.03 148.85,-61.84 158.95,-58.63 154.75,-53.03"/>
</a>
</g>
<text xml:space="preserve" text-anchor="start" x="207.55" y="-51.5" font-family="Helvetica,sans-Serif" font-size="10.00" fill="grey">&lt; _named_sub_values</text>
<text xml:space="preserve" text-anchor="start" x="207.55" y="-35.5" font-family="Helvetica,sans-Serif" font-size="10.00" fill="grey">  _table &gt;</text>
</g>
<!-- Node4 -->
<g id="Node000004" class="node">
<title>Node4</title>
<g id="a_Node000004"><a xlink:title=" ">
<polygon fill="white" stroke="#666666" points="28.8,-83 0,-83 0,-63 28.8,-63 28.8,-83"/>
<text xml:space="preserve" text-anchor="middle" x="14.4" y="-69.5" font-family="Helvetica,sans-Serif" font-size="10.00">T</text>
</a>
</g>
</g>
<!-- Node4&#45;&gt;Node3 -->
<g id="edge3_Node000003_Node000004" class="edge">
<title>Node4&#45;&gt;Node3</title>
<g id="a_edge3_Node000003_Node000004"><a xlink:title=" ">
<path fill="none" stroke="#9a32cd" stroke-dasharray="5,2" d="M40.33,-73C52.42,-73 67.42,-73 81.81,-73"/>
<polygon fill="#9a32cd" stroke="#9a32cd" points="40.44,-69.5 30.44,-73 40.44,-76.5 40.44,-69.5"/>
</a>
</g>
<text xml:space="preserve" text-anchor="start" x="49.8" y="-78.5" font-family="Helvetica,sans-Serif" font-size="10.00" fill="grey">ptr</text>
</g>
<!-- Node5&#45;&gt;Node1 -->
<g id="edge4_Node000001_Node000005" class="edge">
<title>Node5&#45;&gt;Node1</title>
<g id="a_edge4_Node000001_Node000005"><a xlink:title=" ">
<path fill="none" stroke="#9a32cd" stroke-dasharray="5,2" d="M461.8,-66C500.12,-66 546.64,-66 582.39,-66"/>
<polygon fill="#9a32cd" stroke="#9a32cd" points="462.22,-62.5 452.22,-66 462.22,-69.5 462.22,-62.5"/>
</a>
</g>
<text xml:space="preserve" text-anchor="start" x="489.05" y="-71.5" font-family="Helvetica,sans-Serif" font-size="10.00" fill="grey">_match_data</text>
</g>
<!-- Node6&#45;&gt;Node1 -->
<g id="edge6_Node000001_Node000006" class="edge">
<title>Node6&#45;&gt;Node1</title>
<g id="a_edge6_Node000001_Node000006"><a xlink:title=" ">
<path fill="none" stroke="#9a32cd" stroke-dasharray="5,2" d="M463.28,-25.57C494.7,-30.23 531.74,-36.48 564.8,-44 571.87,-45.61 579.25,-47.52 586.51,-49.53"/>
<polygon fill="#9a32cd" stroke="#9a32cd" points="463.87,-22.11 453.47,-24.14 462.86,-29.04 463.87,-22.11"/>
</a>
</g>
<text xml:space="preserve" text-anchor="start" x="472.55" y="-49.5" font-family="Helvetica,sans-Serif" font-size="10.00" fill="grey">_named_sub_values</text>
</g>
</g>
</svg>

<g id="navigator" transform="translate(0 0)" fill="#404254">
  <rect fill="#f2f5e9" fill-opacity="0.5" stroke="#606060" stroke-width=".5" x="0" y="0" width="60" height="60"/>
  <use id="zoomplus" xlink:href="#zoomPlus" x="17" y="9" onmousedown="handleZoom(evt,'in')"/>
  <use id="zoomminus" xlink:href="#zoomMin" x="42" y="9" onmousedown="handleZoom(evt,'out')"/>
  <use id="reset" xlink:href="#resetDef" x="30" y="36" onmousedown="handleReset()"/>
   <use id="arrowup" xlink:href="#arrowUp" x="0" y="0" onmousedown="handlePan(0,-1)"/>
  <use id="arrowright" xlink:href="#arrowRight" x="0" y="0" onmousedown="handlePan(1,0)"/>
  <use id="arrowdown" xlink:href="#arrowDown" x="0" y="0" onmousedown="handlePan(0,1)"/>
  <use id="arrowleft" xlink:href="#arrowLeft" x="0" y="0" onmousedown="handlePan(-1,0)"/>
</g>
<svg viewBox="0 0 15 15" width="100%" height="30px" preserveAspectRatio="xMaxYMin meet">
 <g id="arrow_out" transform="scale(0.3 0.3)">
  <a xlink:href="classpcre2cpp_1_1basic__regex__coll__graph_org.svg" target="_base">
   <rect id="button" ry="5" rx="5" y="6" x="6" height="38" width="38"
        fill="#f2f5e9" fill-opacity="0.5" stroke="#606060" stroke-width="1.0"/>
   <path id="arrow"
     d="M 11.500037,31.436501 C 11.940474,20.09759 22.043105,11.32322 32.158766,21.979434 L 37.068811,17.246167 C 37.068811,17.246167 37.088388,32 37.088388,32 L 22.160133,31.978069 C 22.160133,31.978069 26.997745,27.140456 26.997745,27.140456 C 18.528582,18.264221 13.291696,25.230495 11.500037,31.436501 z"
     style="fill:#404040;"/>
  </a>
 </g>
</svg>

<style type='text/css'>
<![CDATA[
[data-mouse-over-selected='false'] { opacity: 0.7; }
[data-mouse-over-selected='true']  { opacity: 1.0; }
]]>
</style>
<script type="application/ecmascript"><![CDATA[
document.addEventListener('DOMContentLoaded', (event) => {
  highlightEdges();
  highlightAdjacentNodes();
});
]]></script>
</svg>
