<?xml version="1.0" encoding="UTF-8" standalone="no"?>
<!DOCTYPE svg PUBLIC "-//W3C//DTD SVG 1.1//EN"
 "http://www.w3.org/Graphics/SVG/1.1/DTD/svg11.dtd">
<!-- Generated by graphviz version 14.1.1 (20251213.1925)
 -->
<!-- Title: pcre2cpp::utils::pcre2_data&lt; utf_type::UTF_8 &gt; Pages: 1 -->
<svg width="492pt" height="735pt"
 viewBox="0.00 0.00 492.00 735.00" xmlns="http://www.w3.org/2000/svg" xmlns:xlink="http://www.w3.org/1999/xlink">
<g id="graph0" class="graph" transform="scale(1 1) rotate(0) translate(4 730.56)">
<title>pcre2cpp::utils::pcre2_data&lt; utf_type::UTF_8 &gt;</title>
<!-- Node1 -->
<g id="Node000001" class="node">
<title>Node1</title>
<g id="a_Node000001"><a xlink:title="Specialization of Translation container from pcre2 library to pcre2cpp for UTF&#45;8.">
<polygon fill="#999999" stroke="#666666" points="484.25,-367.22 355,-367.22 355,-335.22 484.25,-335.22 484.25,-367.22"/>
<text xml:space="preserve" text-anchor="start" x="363" y="-353.72" font-family="Helvetica,sans-Serif" font-size="10.00">pcre2cpp::utils::pcre2</text>
<text xml:space="preserve" text-anchor="middle" x="419.62" y="-341.72" font-family="Helvetica,sans-Serif" font-size="10.00">_data&lt; utf_type::UTF_8 &gt;</text>
</a>
</g>
</g>
<!-- Node2 -->
<g id="Node000002" class="node">
<title>Node2</title>
<g id="a_Node000002"><a xlink:title=" ">
<polygon fill="white" stroke="#666666" points="181.75,-709.22 0,-709.22 0,-677.22 181.75,-677.22 181.75,-709.22"/>
<text xml:space="preserve" text-anchor="start" x="8" y="-695.72" font-family="Helvetica,sans-Serif" font-size="10.00">static _PCRE2CPP_CONSTEXPR17</text>
<text xml:space="preserve" text-anchor="middle" x="90.88" y="-683.72" font-family="Helvetica,sans-Serif" font-size="10.00"> utf_type</text>
</a>
</g>
</g>
<!-- Node2&#45;&gt;Node1 -->
<g id="edge1_Node000001_Node000002" class="edge">
<title>Node2&#45;&gt;Node1</title>
<g id="a_edge1_Node000001_Node000002"><a xlink:title=" ">
<path fill="none" stroke="#9a32cd" stroke-dasharray="5,2" d="M193.32,-708.38C242.05,-709.93 298.14,-702.52 337,-669.22 384.17,-628.79 410.2,-426.62 416.88,-367.49"/>
<polygon fill="#9a32cd" stroke="#9a32cd" points="193.74,-704.9 183.59,-707.93 193.42,-711.89 193.74,-704.9"/>
</a>
</g>
<text xml:space="preserve" text-anchor="start" x="262.75" y="-714.06" font-family="Helvetica,sans-Serif" font-size="10.00" fill="grey">uft</text>
</g>
<!-- Node3 -->
<g id="Node000003" class="node">
<title>Node3</title>
<g id="a_Node000003"><a xlink:title=" ">
<polygon fill="white" stroke="#666666" points="112,-659.22 69.75,-659.22 69.75,-639.22 112,-639.22 112,-659.22"/>
<text xml:space="preserve" text-anchor="middle" x="90.88" y="-645.72" font-family="Helvetica,sans-Serif" font-size="10.00">size_t</text>
</a>
</g>
</g>
<!-- Node3&#45;&gt;Node1 -->
<g id="edge2_Node000001_Node000003" class="edge">
<title>Node3&#45;&gt;Node1</title>
<g id="a_edge2_Node000001_Node000003"><a xlink:title=" ">
<path fill="none" stroke="#9a32cd" stroke-dasharray="5,2" d="M123.6,-649.5C182.44,-649.36 305.36,-645.79 337,-619.22 415.22,-553.54 420.04,-415.28 419.24,-367.71"/>
<polygon fill="#9a32cd" stroke="#9a32cd" points="123.92,-646 113.92,-649.49 123.91,-653 123.92,-646"/>
</a>
</g>
<text xml:space="preserve" text-anchor="start" x="251.12" y="-652.56" font-family="Helvetica,sans-Serif" font-size="10.00" fill="grey">utf_size</text>
</g>
<!-- Node4 -->
<g id="Node000004" class="node">
<title>Node4</title>
<g id="a_Node000004"><a xlink:title=" ">
<polygon fill="white" stroke="#666666" points="155.5,-621.22 26.25,-621.22 26.25,-565.22 155.5,-565.22 155.5,-621.22"/>
<text xml:space="preserve" text-anchor="start" x="34.25" y="-607.72" font-family="Helvetica,sans-Serif" font-size="10.00">c_func_t&lt; code_type</text>
<text xml:space="preserve" text-anchor="start" x="34.25" y="-595.72" font-family="Helvetica,sans-Serif" font-size="10.00"> *(sptr_type, size_t,</text>
<text xml:space="preserve" text-anchor="start" x="34.25" y="-583.72" font-family="Helvetica,sans-Serif" font-size="10.00"> uint32_t, int *, size</text>
<text xml:space="preserve" text-anchor="middle" x="90.88" y="-571.72" font-family="Helvetica,sans-Serif" font-size="10.00">_t *, compile_ctx_type *)&gt;</text>
</a>
</g>
</g>
<!-- Node4&#45;&gt;Node1 -->
<g id="edge3_Node000001_Node000004" class="edge">
<title>Node4&#45;&gt;Node1</title>
<g id="a_edge3_Node000001_Node000004"><a xlink:title=" ">
<path fill="none" stroke="#9a32cd" stroke-dasharray="5,2" d="M167.19,-598.48C220.08,-598.19 289.56,-589.31 337,-551.22 396.22,-503.68 412.82,-406.21 417.18,-367.55"/>
<polygon fill="#9a32cd" stroke="#9a32cd" points="167.37,-594.98 157.35,-598.42 167.33,-601.98 167.37,-594.98"/>
</a>
</g>
<text xml:space="preserve" text-anchor="start" x="251.5" y="-602.6" font-family="Helvetica,sans-Serif" font-size="10.00" fill="grey">compile</text>
</g>
<!-- Node5 -->
<g id="Node000005" class="node">
<title>Node5</title>
<g id="a_Node000005"><a xlink:title=" ">
<polygon fill="white" stroke="#666666" points="143.12,-547.22 38.62,-547.22 38.62,-515.22 143.12,-515.22 143.12,-547.22"/>
<text xml:space="preserve" text-anchor="start" x="46.62" y="-533.72" font-family="Helvetica,sans-Serif" font-size="10.00">c_func_t&lt; void(code</text>
<text xml:space="preserve" text-anchor="middle" x="90.88" y="-521.72" font-family="Helvetica,sans-Serif" font-size="10.00">_type *)&gt;</text>
</a>
</g>
</g>
<!-- Node5&#45;&gt;Node1 -->
<g id="edge4_Node000001_Node000005" class="edge">
<title>Node5&#45;&gt;Node1</title>
<g id="a_edge4_Node000001_Node000005"><a xlink:title=" ">
<path fill="none" stroke="#9a32cd" stroke-dasharray="5,2" d="M154.69,-533.11C207.67,-531.7 283.23,-522.37 337,-485.22 379.58,-455.8 403.92,-396.24 413.64,-367.48"/>
<polygon fill="#9a32cd" stroke="#9a32cd" points="154.86,-529.6 144.92,-533.27 154.98,-536.6 154.86,-529.6"/>
</a>
</g>
<text xml:space="preserve" text-anchor="start" x="247" y="-534.95" font-family="Helvetica,sans-Serif" font-size="10.00" fill="grey">code_free</text>
</g>
<!-- Node6 -->
<g id="Node000006" class="node">
<title>Node6</title>
<g id="a_Node000006"><a xlink:title=" ">
<polygon fill="white" stroke="#666666" points="151.75,-497.22 30,-497.22 30,-453.22 151.75,-453.22 151.75,-497.22"/>
<text xml:space="preserve" text-anchor="start" x="38" y="-483.72" font-family="Helvetica,sans-Serif" font-size="10.00">c_func_t&lt; match_data</text>
<text xml:space="preserve" text-anchor="start" x="38" y="-471.72" font-family="Helvetica,sans-Serif" font-size="10.00">_type *(const code_type</text>
<text xml:space="preserve" text-anchor="middle" x="90.88" y="-459.72" font-family="Helvetica,sans-Serif" font-size="10.00"> *, general_ctx_type *)&gt;</text>
</a>
</g>
</g>
<!-- Node6&#45;&gt;Node1 -->
<g id="edge5_Node000001_Node000006" class="edge">
<title>Node6&#45;&gt;Node1</title>
<g id="a_edge5_Node000001_Node000006"><a xlink:title=" ">
<path fill="none" stroke="#9a32cd" stroke-dasharray="5,2" d="M163.27,-469.31C213.93,-462.89 282.35,-449.6 337,-422.22 364.04,-408.68 389.35,-384.09 404.42,-367.7"/>
<polygon fill="#9a32cd" stroke="#9a32cd" points="163.11,-465.8 153.6,-470.47 163.94,-472.75 163.11,-465.8"/>
</a>
</g>
<text xml:space="preserve" text-anchor="start" x="212.88" y="-469.08" font-family="Helvetica,sans-Serif" font-size="10.00" fill="grey">match_data_from_pattern</text>
</g>
<!-- Node7 -->
<g id="Node000007" class="node">
<title>Node7</title>
<g id="a_Node000007"><a xlink:title=" ">
<polygon fill="white" stroke="#666666" points="146.12,-435.22 35.62,-435.22 35.62,-403.22 146.12,-403.22 146.12,-435.22"/>
<text xml:space="preserve" text-anchor="start" x="43.62" y="-421.72" font-family="Helvetica,sans-Serif" font-size="10.00">c_func_t&lt; void(match</text>
<text xml:space="preserve" text-anchor="middle" x="90.88" y="-409.72" font-family="Helvetica,sans-Serif" font-size="10.00">_data_type *)&gt;</text>
</a>
</g>
</g>
<!-- Node7&#45;&gt;Node1 -->
<g id="edge6_Node000001_Node000007" class="edge">
<title>Node7&#45;&gt;Node1</title>
<g id="a_edge6_Node000001_Node000007"><a xlink:title=" ">
<path fill="none" stroke="#9a32cd" stroke-dasharray="5,2" d="M157.36,-408.36C206.9,-399.8 276.49,-387.03 337,-373.22 344.44,-371.52 352.23,-369.61 359.91,-367.63"/>
<polygon fill="#9a32cd" stroke="#9a32cd" points="156.92,-404.88 147.65,-410.03 158.1,-411.78 156.92,-404.88"/>
</a>
</g>
<text xml:space="preserve" text-anchor="start" x="232" y="-405.57" font-family="Helvetica,sans-Serif" font-size="10.00" fill="grey">match_data_free</text>
</g>
<!-- Node8 -->
<g id="Node000008" class="node">
<title>Node8</title>
<g id="a_Node000008"><a xlink:title=" ">
<polygon fill="white" stroke="#666666" points="163.38,-385.22 18.38,-385.22 18.38,-317.22 163.38,-317.22 163.38,-385.22"/>
<text xml:space="preserve" text-anchor="start" x="26.38" y="-371.72" font-family="Helvetica,sans-Serif" font-size="10.00">c_func_t&lt; int(const</text>
<text xml:space="preserve" text-anchor="start" x="26.38" y="-359.72" font-family="Helvetica,sans-Serif" font-size="10.00"> code_type *, sptr_type,</text>
<text xml:space="preserve" text-anchor="start" x="26.38" y="-347.72" font-family="Helvetica,sans-Serif" font-size="10.00"> size_t, size_t, uint32</text>
<text xml:space="preserve" text-anchor="start" x="26.38" y="-335.72" font-family="Helvetica,sans-Serif" font-size="10.00">_t, match_data_type *, match</text>
<text xml:space="preserve" text-anchor="middle" x="90.88" y="-323.72" font-family="Helvetica,sans-Serif" font-size="10.00">_ctx_type *)&gt;</text>
</a>
</g>
</g>
<!-- Node8&#45;&gt;Node1 -->
<g id="edge7_Node000001_Node000008" class="edge">
<title>Node8&#45;&gt;Node1</title>
<g id="a_edge7_Node000001_Node000008"><a xlink:title=" ">
<path fill="none" stroke="#9a32cd" stroke-dasharray="5,2" d="M174.87,-351.22C230.69,-351.22 303.17,-351.22 354.55,-351.22"/>
<polygon fill="#9a32cd" stroke="#9a32cd" points="175.1,-347.72 165.1,-351.22 175.1,-354.72 175.1,-347.72"/>
</a>
</g>
<text xml:space="preserve" text-anchor="start" x="254.88" y="-356.72" font-family="Helvetica,sans-Serif" font-size="10.00" fill="grey">match</text>
</g>
<!-- Node9 -->
<g id="Node000009" class="node">
<title>Node9</title>
<g id="a_Node000009"><a xlink:title=" ">
<polygon fill="white" stroke="#666666" points="145.75,-299.22 36,-299.22 36,-267.22 145.75,-267.22 145.75,-299.22"/>
<text xml:space="preserve" text-anchor="start" x="44" y="-285.72" font-family="Helvetica,sans-Serif" font-size="10.00">c_func_t&lt; size_t *</text>
<text xml:space="preserve" text-anchor="middle" x="90.88" y="-273.72" font-family="Helvetica,sans-Serif" font-size="10.00">(match_data_type *)&gt;</text>
</a>
</g>
</g>
<!-- Node9&#45;&gt;Node1 -->
<g id="edge8_Node000001_Node000009" class="edge">
<title>Node9&#45;&gt;Node1</title>
<g id="a_edge8_Node000001_Node000009"><a xlink:title=" ">
<path fill="none" stroke="#9a32cd" stroke-dasharray="5,2" d="M157.36,-294.08C206.9,-302.65 276.49,-315.41 337,-329.22 344.44,-330.92 352.23,-332.84 359.91,-334.81"/>
<polygon fill="#9a32cd" stroke="#9a32cd" points="158.1,-290.66 147.65,-292.42 156.92,-297.56 158.1,-290.66"/>
</a>
</g>
<text xml:space="preserve" text-anchor="start" x="234.62" y="-334.72" font-family="Helvetica,sans-Serif" font-size="10.00" fill="grey">get_ovector_ptr</text>
</g>
<!-- Node10 -->
<g id="Node000010" class="node">
<title>Node10</title>
<g id="a_Node000010"><a xlink:title=" ">
<polygon fill="white" stroke="#666666" points="145.75,-249.22 36,-249.22 36,-217.22 145.75,-217.22 145.75,-249.22"/>
<text xml:space="preserve" text-anchor="start" x="44" y="-235.72" font-family="Helvetica,sans-Serif" font-size="10.00">c_func_t&lt; uint32_t</text>
<text xml:space="preserve" text-anchor="middle" x="90.88" y="-223.72" font-family="Helvetica,sans-Serif" font-size="10.00">(match_data_type *)&gt;</text>
</a>
</g>
</g>
<!-- Node10&#45;&gt;Node1 -->
<g id="edge9_Node000001_Node000010" class="edge">
<title>Node10&#45;&gt;Node1</title>
<g id="a_edge9_Node000001_Node000010"><a xlink:title=" ">
<path fill="none" stroke="#9a32cd" stroke-dasharray="5,2" d="M157.28,-236.47C208.42,-241.16 280.12,-252.56 337,-280.22 364.36,-293.53 389.78,-318.43 404.76,-334.92"/>
<polygon fill="#9a32cd" stroke="#9a32cd" points="157.82,-233.01 147.56,-235.65 157.23,-239.98 157.82,-233.01"/>
</a>
</g>
<text xml:space="preserve" text-anchor="start" x="228.25" y="-285.72" font-family="Helvetica,sans-Serif" font-size="10.00" fill="grey">get_ovector_count</text>
</g>
<!-- Node11 -->
<g id="Node000011" class="node">
<title>Node11</title>
<g id="a_Node000011"><a xlink:title=" ">
<polygon fill="white" stroke="#666666" points="148.38,-199.22 33.38,-199.22 33.38,-167.22 148.38,-167.22 148.38,-199.22"/>
<text xml:space="preserve" text-anchor="start" x="41.38" y="-185.72" font-family="Helvetica,sans-Serif" font-size="10.00">c_func_t&lt; int(int,</text>
<text xml:space="preserve" text-anchor="middle" x="90.88" y="-173.72" font-family="Helvetica,sans-Serif" font-size="10.00"> uchar_type *, size_t)&gt;</text>
</a>
</g>
</g>
<!-- Node11&#45;&gt;Node1 -->
<g id="edge10_Node000001_Node000011" class="edge">
<title>Node11&#45;&gt;Node1</title>
<g id="a_edge10_Node000001_Node000011"><a xlink:title=" ">
<path fill="none" stroke="#9a32cd" stroke-dasharray="5,2" d="M159.89,-178.72C212.35,-178.54 284.57,-185.74 337,-220.22 379.54,-248.19 403.9,-306.81 413.63,-335.17"/>
<polygon fill="#9a32cd" stroke="#9a32cd" points="160.14,-175.22 150.19,-178.85 160.24,-182.22 160.14,-175.22"/>
</a>
</g>
<text xml:space="preserve" text-anchor="start" x="226.75" y="-225.72" font-family="Helvetica,sans-Serif" font-size="10.00" fill="grey">get_error_message</text>
</g>
<!-- Node12 -->
<g id="Node000012" class="node">
<title>Node12</title>
<g id="a_Node000012"><a xlink:title=" ">
<polygon fill="white" stroke="#666666" points="142.38,-149.22 39.38,-149.22 39.38,-105.22 142.38,-105.22 142.38,-149.22"/>
<text xml:space="preserve" text-anchor="start" x="47.38" y="-135.72" font-family="Helvetica,sans-Serif" font-size="10.00">c_func_t&lt; int(const</text>
<text xml:space="preserve" text-anchor="start" x="47.38" y="-123.72" font-family="Helvetica,sans-Serif" font-size="10.00"> code_type *, uint32</text>
<text xml:space="preserve" text-anchor="middle" x="90.88" y="-111.72" font-family="Helvetica,sans-Serif" font-size="10.00">_t, void *)&gt;</text>
</a>
</g>
</g>
<!-- Node12&#45;&gt;Node1 -->
<g id="edge11_Node000001_Node000012" class="edge">
<title>Node12&#45;&gt;Node1</title>
<g id="a_edge11_Node000001_Node000012"><a xlink:title=" ">
<path fill="none" stroke="#9a32cd" stroke-dasharray="5,2" d="M154.29,-118.94C208.03,-115.29 284.91,-118.77 337,-158.22 395.44,-202.48 412.45,-296.64 417.05,-334.72"/>
<polygon fill="#9a32cd" stroke="#9a32cd" points="154.06,-115.45 144.37,-119.73 154.61,-122.43 154.06,-115.45"/>
</a>
</g>
<text xml:space="preserve" text-anchor="start" x="251.12" y="-163.72" font-family="Helvetica,sans-Serif" font-size="10.00" fill="grey">get_info</text>
</g>
<!-- Node13 -->
<g id="Node000013" class="node">
<title>Node13</title>
<g id="a_Node000013"><a xlink:title=" ">
<polygon fill="white" stroke="#666666" points="154,-87.22 27.75,-87.22 27.75,-55.22 154,-55.22 154,-87.22"/>
<text xml:space="preserve" text-anchor="start" x="35.75" y="-73.72" font-family="Helvetica,sans-Serif" font-size="10.00">c_func_t&lt; int(const</text>
<text xml:space="preserve" text-anchor="middle" x="90.88" y="-61.72" font-family="Helvetica,sans-Serif" font-size="10.00"> code_type *, sptr_type)&gt;</text>
</a>
</g>
</g>
<!-- Node13&#45;&gt;Node1 -->
<g id="edge12_Node000001_Node000013" class="edge">
<title>Node13&#45;&gt;Node1</title>
<g id="a_edge12_Node000001_Node000013"><a xlink:title=" ">
<path fill="none" stroke="#9a32cd" stroke-dasharray="5,2" d="M165.73,-58.97C219.02,-54.43 289.64,-57.82 337,-96.22 412.46,-157.41 419.11,-288.65 419.01,-334.78"/>
<polygon fill="#9a32cd" stroke="#9a32cd" points="165.42,-55.48 155.8,-59.94 166.1,-62.45 165.42,-55.48"/>
</a>
</g>
<text xml:space="preserve" text-anchor="start" x="202.75" y="-101.72" font-family="Helvetica,sans-Serif" font-size="10.00" fill="grey">substring_number_from_name</text>
</g>
<!-- Node14 -->
<g id="Node000014" class="node">
<title>Node14</title>
<g id="a_Node000014"><a xlink:href="../../d9/d82/structpcre2cpp_1_1utils_1_1pcre2__data.html" target="_top" xlink:title="Translation container from pcre2 library to pcre2cpp.">
<polygon fill="white" stroke="#666666" points="145.75,-37.22 36,-37.22 36,-5.22 145.75,-5.22 145.75,-37.22"/>
<text xml:space="preserve" text-anchor="start" x="44" y="-23.72" font-family="Helvetica,sans-Serif" font-size="10.00">pcre2cpp::utils::pcre2</text>
<text xml:space="preserve" text-anchor="middle" x="90.88" y="-11.72" font-family="Helvetica,sans-Serif" font-size="10.00">_data&lt; utf &gt;</text>
</a>
</g>
</g>
<!-- Node14&#45;&gt;Node1 -->
<g id="edge13_Node000001_Node000014" class="edge">
<title>Node14&#45;&gt;Node1</title>
<g id="a_edge13_Node000001_Node000014"><a xlink:title=" ">
<path fill="none" stroke="orange" stroke-dasharray="5,2" d="M157.4,-5.62C211.61,3.18 287.49,5.44 337,-35.22 384.73,-74.42 410.36,-276.01 416.92,-334.99"/>
<polygon fill="orange" stroke="orange" points="156.92,-2.15 147.67,-7.32 158.12,-9.04 156.92,-2.15"/>
</a>
</g>
<text xml:space="preserve" text-anchor="start" x="223.75" y="-40.72" font-family="Helvetica,sans-Serif" font-size="10.00" fill="grey">&lt; utf_type::UTF_8 &gt;</text>
</g>
</g>
</svg>
