<?xml version="1.0" encoding="UTF-8" standalone="no"?>
<!DOCTYPE svg PUBLIC "-//W3C//DTD SVG 1.1//EN"
 "http://www.w3.org/Graphics/SVG/1.1/DTD/svg11.dtd">
<!-- Generated by graphviz version 14.1.1 (20251213.1925)
 -->
<!-- Title: pcre2cpp::basic_regex_exception&lt; utf &gt; Pages: 1 -->
<svg width="784pt" height="176pt"
 viewBox="0.00 0.00 784.00 176.00" xmlns="http://www.w3.org/2000/svg" xmlns:xlink="http://www.w3.org/1999/xlink">
<g id="graph0" class="graph" transform="scale(1 1) rotate(0) translate(4 172)">
<title>pcre2cpp::basic_regex_exception&lt; utf &gt;</title>
<!-- Node1 -->
<g id="Node000001" class="node">
<title>Node1</title>
<g id="a_Node000001"><a xlink:title="regex exception class">
<polygon fill="#999999" stroke="#666666" points="525.25,-100 411,-100 411,-68 525.25,-68 525.25,-100"/>
<text xml:space="preserve" text-anchor="start" x="419" y="-86.5" font-family="Helvetica,sans-Serif" font-size="10.00">pcre2cpp::basic_regex</text>
<text xml:space="preserve" text-anchor="middle" x="468.12" y="-74.5" font-family="Helvetica,sans-Serif" font-size="10.00">_exception&lt; utf &gt;</text>
</a>
</g>
</g>
<!-- Node5 -->
<g id="Node000005" class="node">
<title>Node5</title>
<g id="a_Node000005"><a xlink:href="../../d6/dfe/classpcre2cpp_1_1basic__regex__exception.html" target="_top" xlink:title=" ">
<polygon fill="white" stroke="#666666" points="776,-168 661.75,-168 661.75,-124 776,-124 776,-168"/>
<text xml:space="preserve" text-anchor="start" x="669.75" y="-154.5" font-family="Helvetica,sans-Serif" font-size="10.00">pcre2cpp::basic_regex</text>
<text xml:space="preserve" text-anchor="start" x="669.75" y="-142.5" font-family="Helvetica,sans-Serif" font-size="10.00">_exception&lt; utf_type</text>
<text xml:space="preserve" text-anchor="middle" x="718.88" y="-130.5" font-family="Helvetica,sans-Serif" font-size="10.00">::UTF_8 &gt;</text>
</a>
</g>
</g>
<!-- Node1&#45;&gt;Node5 -->
<g id="edge4_Node000001_Node000005" class="edge">
<title>Node1&#45;&gt;Node5</title>
<g id="a_edge4_Node000001_Node000005"><a xlink:title=" ">
<path fill="none" stroke="orange" stroke-dasharray="5,2" d="M534.28,-103.59C537.31,-104.42 540.31,-105.23 543.25,-106 582.51,-116.31 627.12,-126.5 661.42,-134.02"/>
<polygon fill="orange" stroke="orange" points="535.29,-100.24 524.72,-100.91 533.4,-106.98 535.29,-100.24"/>
</a>
</g>
<text xml:space="preserve" text-anchor="start" x="548.88" y="-135.31" font-family="Helvetica,sans-Serif" font-size="10.00" fill="grey">&lt; utf_type::UTF_8 &gt;</text>
</g>
<!-- Node6 -->
<g id="Node000006" class="node">
<title>Node6</title>
<g id="a_Node000006"><a xlink:href="../../d6/dfe/classpcre2cpp_1_1basic__regex__exception.html" target="_top" xlink:title=" ">
<polygon fill="white" stroke="#666666" points="776,-106 661.75,-106 661.75,-62 776,-62 776,-106"/>
<text xml:space="preserve" text-anchor="start" x="669.75" y="-92.5" font-family="Helvetica,sans-Serif" font-size="10.00">pcre2cpp::basic_regex</text>
<text xml:space="preserve" text-anchor="start" x="669.75" y="-80.5" font-family="Helvetica,sans-Serif" font-size="10.00">_exception&lt; utf_type</text>
<text xml:space="preserve" text-anchor="middle" x="718.88" y="-68.5" font-family="Helvetica,sans-Serif" font-size="10.00">::UTF_16 &gt;</text>
</a>
</g>
</g>
<!-- Node1&#45;&gt;Node6 -->
<g id="edge5_Node000001_Node000006" class="edge">
<title>Node1&#45;&gt;Node6</title>
<g id="a_edge5_Node000001_Node000006"><a xlink:title=" ">
<path fill="none" stroke="orange" stroke-dasharray="5,2" d="M536.86,-84C576,-84 624.65,-84 661.65,-84"/>
<polygon fill="orange" stroke="orange" points="537.08,-80.5 527.08,-84 537.08,-87.5 537.08,-80.5"/>
</a>
</g>
<text xml:space="preserve" text-anchor="start" x="546.25" y="-89.5" font-family="Helvetica,sans-Serif" font-size="10.00" fill="grey">&lt; utf_type::UTF_16 &gt;</text>
</g>
<!-- Node7 -->
<g id="Node000007" class="node">
<title>Node7</title>
<g id="a_Node000007"><a xlink:href="../../d6/dfe/classpcre2cpp_1_1basic__regex__exception.html" target="_top" xlink:title=" ">
<polygon fill="white" stroke="#666666" points="776,-44 661.75,-44 661.75,0 776,0 776,-44"/>
<text xml:space="preserve" text-anchor="start" x="669.75" y="-30.5" font-family="Helvetica,sans-Serif" font-size="10.00">pcre2cpp::basic_regex</text>
<text xml:space="preserve" text-anchor="start" x="669.75" y="-18.5" font-family="Helvetica,sans-Serif" font-size="10.00">_exception&lt; utf_type</text>
<text xml:space="preserve" text-anchor="middle" x="718.88" y="-6.5" font-family="Helvetica,sans-Serif" font-size="10.00">::UTF_32 &gt;</text>
</a>
</g>
</g>
<!-- Node1&#45;&gt;Node7 -->
<g id="edge6_Node000001_Node000007" class="edge">
<title>Node1&#45;&gt;Node7</title>
<g id="a_edge6_Node000001_Node000007"><a xlink:title=" ">
<path fill="none" stroke="orange" stroke-dasharray="5,2" d="M534.28,-64.41C537.31,-63.58 540.31,-62.77 543.25,-62 582.51,-51.69 627.12,-41.5 661.42,-33.98"/>
<polygon fill="orange" stroke="orange" points="533.4,-61.02 524.72,-67.09 535.29,-67.76 533.4,-61.02"/>
</a>
</g>
<text xml:space="preserve" text-anchor="start" x="546.25" y="-67.5" font-family="Helvetica,sans-Serif" font-size="10.00" fill="grey">&lt; utf_type::UTF_32 &gt;</text>
</g>
<!-- Node2 -->
<g id="Node000002" class="node">
<title>Node2</title>
<g id="a_Node000002"><a xlink:href="../../df/d62/classpcre2cpp_1_1basic__pcre2cpp__exception.html" target="_top" xlink:title="base pcre2cpp exception class">
<polygon fill="white" stroke="#666666" points="374,-100 244,-100 244,-68 374,-68 374,-100"/>
<text xml:space="preserve" text-anchor="start" x="252" y="-86.5" font-family="Helvetica,sans-Serif" font-size="10.00">pcre2cpp::basic_pcre2cpp</text>
<text xml:space="preserve" text-anchor="middle" x="309" y="-74.5" font-family="Helvetica,sans-Serif" font-size="10.00">_exception&lt; utf &gt;</text>
</a>
</g>
</g>
<!-- Node2&#45;&gt;Node1 -->
<g id="edge1_Node000001_Node000002" class="edge">
<title>Node2&#45;&gt;Node1</title>
<g id="a_edge1_Node000001_Node000002"><a xlink:title=" ">
<path fill="none" stroke="#63b8ff" d="M385.74,-84C394.14,-84 402.57,-84 410.66,-84"/>
<polygon fill="#63b8ff" stroke="#63b8ff" points="385.88,-80.5 375.88,-84 385.88,-87.5 385.88,-80.5"/>
</a>
</g>
</g>
<!-- Node3 -->
<g id="Node000003" class="node">
<title>Node3</title>
<g id="a_Node000003"><a xlink:title=" ">
<polygon fill="white" stroke="#666666" points="207,-94 114.5,-94 114.5,-74 207,-74 207,-94"/>
<text xml:space="preserve" text-anchor="middle" x="160.75" y="-80.5" font-family="Helvetica,sans-Serif" font-size="10.00">std::runtime_error</text>
</a>
</g>
</g>
<!-- Node3&#45;&gt;Node2 -->
<g id="edge2_Node000002_Node000003" class="edge">
<title>Node3&#45;&gt;Node2</title>
<g id="a_edge2_Node000002_Node000003"><a xlink:title=" ">
<path fill="none" stroke="#63b8ff" d="M218.63,-84C226.87,-84 235.39,-84 243.76,-84"/>
<polygon fill="#63b8ff" stroke="#63b8ff" points="218.74,-80.5 208.74,-84 218.74,-87.5 218.74,-80.5"/>
</a>
</g>
</g>
<!-- Node4 -->
<g id="Node000004" class="node">
<title>Node4</title>
<g id="a_Node000004"><a xlink:title=" ">
<polygon fill="white" stroke="#666666" points="77.5,-94 0,-94 0,-74 77.5,-74 77.5,-94"/>
<text xml:space="preserve" text-anchor="middle" x="38.75" y="-80.5" font-family="Helvetica,sans-Serif" font-size="10.00">std::exception</text>
</a>
</g>
</g>
<!-- Node4&#45;&gt;Node3 -->
<g id="edge3_Node000003_Node000004" class="edge">
<title>Node4&#45;&gt;Node3</title>
<g id="a_edge3_Node000003_Node000004"><a xlink:title=" ">
<path fill="none" stroke="#63b8ff" d="M89.12,-84C97.37,-84 105.89,-84 114.04,-84"/>
<polygon fill="#63b8ff" stroke="#63b8ff" points="89.23,-80.5 79.23,-84 89.23,-87.5 89.23,-80.5"/>
</a>
</g>
</g>
</g>
</svg>
