<?xml version="1.0" encoding="UTF-8" standalone="no"?>
<!DOCTYPE svg PUBLIC "-//W3C//DTD SVG 1.1//EN"
 "http://www.w3.org/Graphics/SVG/1.1/DTD/svg11.dtd">
<!-- Generated by graphviz version 14.1.1 (20251213.1925)
 -->
<!-- Title: pcre2cpp::basic_regex_exception&lt; utf &gt; Pages: 1 -->
<!--zoomable 176 -->

<svg id="main" version="1.1" xmlns="http://www.w3.org/2000/svg" xmlns:xlink="http://www.w3.org/1999/xlink" xml:space="preserve" onload="init(evt)">

<style type="text/css"><![CDATA[
.node, .edge {opacity: 0.7;}
.node.selected, .edge.selected {opacity: 1;}
.edge:hover path { stroke: red; }
.edge:hover polygon { stroke: red; fill: red; }
]]></style>

<defs>
  <circle id="rim" cx="0" cy="0" r="7"/>
  <circle id="rim2" cx="0" cy="0" r="3.5"/>
  <g id="zoomPlus">
    <use xlink:href="#rim" fill="#404040"><set attributeName="fill" to="#808080" begin="zoomplus.mouseover" end="zoomplus.mouseout"/></use>
    <path d="M-4,0h8M0,-4v8" fill="none" stroke="white" stroke-width="1.5" pointer-events="none"/>
  </g>
  <g id="zoomMin">
    <use xlink:href="#rim" fill="#404040"><set attributeName="fill" to="#808080" begin="zoomminus.mouseover" end="zoomminus.mouseout"/></use>
    <path d="M-4,0h8" fill="none" stroke="white" stroke-width="1.5" pointer-events="none"/>
  </g>
  <g id="arrowUp" transform="translate(30 24)">
    <use xlink:href="#rim"/>
    <path pointer-events="none" fill="none" stroke="white" stroke-width="1.5" d="M0,-3.0v7 M-2.5,-0.5L0,-3.0L2.5,-0.5"/>
  </g>
  <g id="arrowRight" transform="rotate(90) translate(36 -43)">
    <use xlink:href="#rim"/>
    <path pointer-events="none" fill="none" stroke="white" stroke-width="1.5" d="M0,-3.0v7 M-2.5,-0.5L0,-3.0L2.5,-0.5"/>
  </g>
  <g id="arrowDown" transform="rotate(180) translate(-30 -48)">
    <use xlink:href="#rim"/>
    <path pointer-events="none" fill="none" stroke="white" stroke-width="1.5" d="M0,-3.0v7 M-2.5,-0.5L0,-3.0L2.5,-0.5"/>
  </g>
  <g id="arrowLeft" transform="rotate(270) translate(-36 17)">
    <use xlink:href="#rim"/>
    <path pointer-events="none" fill="none" stroke="white" stroke-width="1.5" d="M0,-3.0v7 M-2.5,-0.5L0,-3.0L2.5,-0.5"/>
  </g>
  <g id="resetDef">
    <use xlink:href="#rim2" fill="#404040"><set attributeName="fill" to="#808080" begin="reset.mouseover" end="reset.mouseout"/></use>
  </g>
</defs>
<script type="application/ecmascript">
var viewWidth = 784;
var viewHeight = 176;
var sectionId = 'dynsection-0';
</script>
<script type="application/ecmascript" xlink:href="../../svg.min.js"/>
<svg id="graph" class="graph">
<g id="viewport">
<title>pcre2cpp::basic_regex_exception&lt; utf &gt;</title>
<!-- Node1 -->
<g id="Node000001" class="node">
<title>Node1</title>
<g id="a_Node000001"><a xlink:title="regex exception class">
<polygon fill="#999999" stroke="#666666" points="525.25,-100 411,-100 411,-68 525.25,-68 525.25,-100"/>
<text xml:space="preserve" text-anchor="start" x="419" y="-86.5" font-family="Helvetica,sans-Serif" font-size="10.00">pcre2cpp::basic_regex</text>
<text xml:space="preserve" text-anchor="middle" x="468.12" y="-74.5" font-family="Helvetica,sans-Serif" font-size="10.00">_exception&lt; utf &gt;</text>
</a>
</g>
</g>
<!-- Node5 -->
<g id="Node000005" class="node">
<title>Node5</title>
<g id="a_Node000005"><a xlink:href="../../d6/dfe/classpcre2cpp_1_1basic__regex__exception.html" target="_top" xlink:title=" ">
<polygon fill="white" stroke="#666666" points="776,-168 661.75,-168 661.75,-124 776,-124 776,-168"/>
<text xml:space="preserve" text-anchor="start" x="669.75" y="-154.5" font-family="Helvetica,sans-Serif" font-size="10.00">pcre2cpp::basic_regex</text>
<text xml:space="preserve" text-anchor="start" x="669.75" y="-142.5" font-family="Helvetica,sans-Serif" font-size="10.00">_exception&lt; utf_type</text>
<text xml:space="preserve" text-anchor="middle" x="718.88" y="-130.5" font-family="Helvetica,sans-Serif" font-size="10.00">::UTF_8 &gt;</text>
</a>
</g>
</g>
<!-- Node1&#45;&gt;Node5 -->
<g id="edge4_Node000001_Node000005" class="edge">
<title>Node1&#45;&gt;Node5</title>
<g id="a_edge4_Node000001_Node000005"><a xlink:title=" ">
<path fill="none" stroke="orange" stroke-dasharray="5,2" d="M534.28,-103.59C537.31,-104.42 540.31,-105.23 543.25,-106 582.51,-116.31 627.12,-126.5 661.42,-134.02"/>
<polygon fill="orange" stroke="orange" points="535.29,-100.24 524.72,-100.91 533.4,-106.98 535.29,-100.24"/>
</a>
</g>
<text xml:space="preserve" text-anchor="start" x="548.88" y="-135.31" font-family="Helvetica,sans-Serif" font-size="10.00" fill="grey">&lt; utf_type::UTF_8 &gt;</text>
</g>
<!-- Node6 -->
<g id="Node000006" class="node">
<title>Node6</title>
<g id="a_Node000006"><a xlink:href="../../d6/dfe/classpcre2cpp_1_1basic__regex__exception.html" target="_top" xlink:title=" ">
<polygon fill="white" stroke="#666666" points="776,-106 661.75,-106 661.75,-62 776,-62 776,-106"/>
<text xml:space="preserve" text-anchor="start" x="669.75" y="-92.5" font-family="Helvetica,sans-Serif" font-size="10.00">pcre2cpp::basic_regex</text>
<text xml:space="preserve" text-anchor="start" x="669.75" y="-80.5" font-family="Helvetica,sans-Serif" font-size="10.00">_exception&lt; utf_type</text>
<text xml:space="preserve" text-anchor="middle" x="718.88" y="-68.5" font-family="Helvetica,sans-Serif" font-size="10.00">::UTF_16 &gt;</text>
</a>
</g>
</g>
<!-- Node1&#45;&gt;Node6 -->
<g id="edge5_Node000001_Node000006" class="edge">
<title>Node1&#45;&gt;Node6</title>
<g id="a_edge5_Node000001_Node000006"><a xlink:title=" ">
<path fill="none" stroke="orange" stroke-dasharray="5,2" d="M536.86,-84C576,-84 624.65,-84 661.65,-84"/>
<polygon fill="orange" stroke="orange" points="537.08,-80.5 527.08,-84 537.08,-87.5 537.08,-80.5"/>
</a>
</g>
<text xml:space="preserve" text-anchor="start" x="546.25" y="-89.5" font-family="Helvetica,sans-Serif" font-size="10.00" fill="grey">&lt; utf_type::UTF_16 &gt;</text>
</g>
<!-- Node7 -->
<g id="Node000007" class="node">
<title>Node7</title>
<g id="a_Node000007"><a xlink:href="../../d6/dfe/classpcre2cpp_1_1basic__regex__exception.html" target="_top" xlink:title=" ">
<polygon fill="white" stroke="#666666" points="776,-44 661.75,-44 661.75,0 776,0 776,-44"/>
<text xml:space="preserve" text-anchor="start" x="669.75" y="-30.5" font-family="Helvetica,sans-Serif" font-size="10.00">pcre2cpp::basic_regex</text>
<text xml:space="preserve" text-anchor="start" x="669.75" y="-18.5" font-family="Helvetica,sans-Serif" font-size="10.00">_exception&lt; utf_type</text>
<text xml:space="preserve" text-anchor="middle" x="718.88" y="-6.5" font-family="Helvetica,sans-Serif" font-size="10.00">::UTF_32 &gt;</text>
</a>
</g>
</g>
<!-- Node1&#45;&gt;Node7 -->
<g id="edge6_Node000001_Node000007" class="edge">
<title>Node1&#45;&gt;Node7</title>
<g id="a_edge6_Node000001_Node000007"><a xlink:title=" ">
<path fill="none" stroke="orange" stroke-dasharray="5,2" d="M534.28,-64.41C537.31,-63.58 540.31,-62.77 543.25,-62 582.51,-51.69 627.12,-41.5 661.42,-33.98"/>
<polygon fill="orange" stroke="orange" points="533.4,-61.02 524.72,-67.09 535.29,-67.76 533.4,-61.02"/>
</a>
</g>
<text xml:space="preserve" text-anchor="start" x="546.25" y="-67.5" font-family="Helvetica,sans-Serif" font-size="10.00" fill="grey">&lt; utf_type::UTF_32 &gt;</text>
</g>
<!-- Node2 -->
<g id="Node000002" class="node">
<title>Node2</title>
<g id="a_Node000002"><a xlink:href="../../df/d62/classpcre2cpp_1_1basic__pcre2cpp__exception.html" target="_top" xlink:title="base pcre2cpp exception class">
<polygon fill="white" stroke="#666666" points="374,-100 244,-100 244,-68 374,-68 374,-100"/>
<text xml:space="preserve" text-anchor="start" x="252" y="-86.5" font-family="Helvetica,sans-Serif" font-size="10.00">pcre2cpp::basic_pcre2cpp</text>
<text xml:space="preserve" text-anchor="middle" x="309" y="-74.5" font-family="Helvetica,sans-Serif" font-size="10.00">_exception&lt; utf &gt;</text>
</a>
</g>
</g>
<!-- Node2&#45;&gt;Node1 -->
<g id="edge1_Node000001_Node000002" class="edge">
<title>Node2&#45;&gt;Node1</title>
<g id="a_edge1_Node000001_Node000002"><a xlink:title=" ">
<path fill="none" stroke="#63b8ff" d="M385.74,-84C394.14,-84 402.57,-84 410.66,-84"/>
<polygon fill="#63b8ff" stroke="#63b8ff" points="385.88,-80.5 375.88,-84 385.88,-87.5 385.88,-80.5"/>
</a>
</g>
</g>
<!-- Node3 -->
<g id="Node000003" class="node">
<title>Node3</title>
<g id="a_Node000003"><a xlink:title=" ">
<polygon fill="white" stroke="#666666" points="207,-94 114.5,-94 114.5,-74 207,-74 207,-94"/>
<text xml:space="preserve" text-anchor="middle" x="160.75" y="-80.5" font-family="Helvetica,sans-Serif" font-size="10.00">std::runtime_error</text>
</a>
</g>
</g>
<!-- Node3&#45;&gt;Node2 -->
<g id="edge2_Node000002_Node000003" class="edge">
<title>Node3&#45;&gt;Node2</title>
<g id="a_edge2_Node000002_Node000003"><a xlink:title=" ">
<path fill="none" stroke="#63b8ff" d="M218.63,-84C226.87,-84 235.39,-84 243.76,-84"/>
<polygon fill="#63b8ff" stroke="#63b8ff" points="218.74,-80.5 208.74,-84 218.74,-87.5 218.74,-80.5"/>
</a>
</g>
</g>
<!-- Node4 -->
<g id="Node000004" class="node">
<title>Node4</title>
<g id="a_Node000004"><a xlink:title=" ">
<polygon fill="white" stroke="#666666" points="77.5,-94 0,-94 0,-74 77.5,-74 77.5,-94"/>
<text xml:space="preserve" text-anchor="middle" x="38.75" y="-80.5" font-family="Helvetica,sans-Serif" font-size="10.00">std::exception</text>
</a>
</g>
</g>
<!-- Node4&#45;&gt;Node3 -->
<g id="edge3_Node000003_Node000004" class="edge">
<title>Node4&#45;&gt;Node3</title>
<g id="a_edge3_Node000003_Node000004"><a xlink:title=" ">
<path fill="none" stroke="#63b8ff" d="M89.12,-84C97.37,-84 105.89,-84 114.04,-84"/>
<polygon fill="#63b8ff" stroke="#63b8ff" points="89.23,-80.5 79.23,-84 89.23,-87.5 89.23,-80.5"/>
</a>
</g>
</g>
</g>
</svg>

<g id="navigator" transform="translate(0 0)" fill="#404254">
  <rect fill="#f2f5e9" fill-opacity="0.5" stroke="#606060" stroke-width=".5" x="0" y="0" width="60" height="60"/>
  <use id="zoomplus" xlink:href="#zoomPlus" x="17" y="9" onmousedown="handleZoom(evt,'in')"/>
  <use id="zoomminus" xlink:href="#zoomMin" x="42" y="9" onmousedown="handleZoom(evt,'out')"/>
  <use id="reset" xlink:href="#resetDef" x="30" y="36" onmousedown="handleReset()"/>
   <use id="arrowup" xlink:href="#arrowUp" x="0" y="0" onmousedown="handlePan(0,-1)"/>
  <use id="arrowright" xlink:href="#arrowRight" x="0" y="0" onmousedown="handlePan(1,0)"/>
  <use id="arrowdown" xlink:href="#arrowDown" x="0" y="0" onmousedown="handlePan(0,1)"/>
  <use id="arrowleft" xlink:href="#arrowLeft" x="0" y="0" onmousedown="handlePan(-1,0)"/>
</g>
<svg viewBox="0 0 15 15" width="100%" height="30px" preserveAspectRatio="xMaxYMin meet">
 <g id="arrow_out" transform="scale(0.3 0.3)">
  <a xlink:href="classpcre2cpp_1_1basic__regex__exception__inherit__graph_org.svg" target="_base">
   <rect id="button" ry="5" rx="5" y="6" x="6" height="38" width="38"
        fill="#f2f5e9" fill-opacity="0.5" stroke="#606060" stroke-width="1.0"/>
   <path id="arrow"
     d="M 11.500037,31.436501 C 11.940474,20.09759 22.043105,11.32322 32.158766,21.979434 L 37.068811,17.246167 C 37.068811,17.246167 37.088388,32 37.088388,32 L 22.160133,31.978069 C 22.160133,31.978069 26.997745,27.140456 26.997745,27.140456 C 18.528582,18.264221 13.291696,25.230495 11.500037,31.436501 z"
     style="fill:#404040;"/>
  </a>
 </g>
</svg>

<style type='text/css'>
<![CDATA[
[data-mouse-over-selected='false'] { opacity: 0.7; }
[data-mouse-over-selected='true']  { opacity: 1.0; }
]]>
</style>
<script type="application/ecmascript"><![CDATA[
document.addEventListener('DOMContentLoaded', (event) => {
  highlightEdges();
  highlightAdjacentNodes();
});
]]></script>
</svg>
