<?xml version="1.0" encoding="UTF-8" standalone="no"?>
<!DOCTYPE svg PUBLIC "-//W3C//DTD SVG 1.1//EN"
 "http://www.w3.org/Graphics/SVG/1.1/DTD/svg11.dtd">
<!-- Generated by graphviz version 14.1.1 (20251213.1925)
 -->
<!-- Title: pcre2cpp::basic_regex_exception&lt; utf &gt; Pages: 1 -->
<svg width="788pt" height="238pt"
 viewBox="0.00 0.00 788.00 238.00" xmlns="http://www.w3.org/2000/svg" xmlns:xlink="http://www.w3.org/1999/xlink">
<g id="graph0" class="graph" transform="scale(1 1) rotate(0) translate(4 234)">
<title>pcre2cpp::basic_regex_exception&lt; utf &gt;</title>
<!-- Node1 -->
<g id="Node000001" class="node">
<title>Node1</title>
<g id="a_Node000001"><a xlink:title="regex exception class">
<polygon fill="#999999" stroke="#666666" points="525.25,-131 411,-131 411,-99 525.25,-99 525.25,-131"/>
<text xml:space="preserve" text-anchor="start" x="419" y="-117.5" font-family="Helvetica,sans-Serif" font-size="10.00">pcre2cpp::basic_regex</text>
<text xml:space="preserve" text-anchor="middle" x="468.12" y="-105.5" font-family="Helvetica,sans-Serif" font-size="10.00">_exception&lt; utf &gt;</text>
</a>
</g>
</g>
<!-- Node5 -->
<g id="Node000005" class="node">
<title>Node5</title>
<g id="a_Node000005"><a xlink:href="../../d6/dfe/classpcre2cpp_1_1basic__regex__exception.html" target="_top" xlink:title=" ">
<polygon fill="white" stroke="#666666" points="777.88,-230 663.62,-230 663.62,-186 777.88,-186 777.88,-230"/>
<text xml:space="preserve" text-anchor="start" x="671.62" y="-216.5" font-family="Helvetica,sans-Serif" font-size="10.00">pcre2cpp::basic_regex</text>
<text xml:space="preserve" text-anchor="start" x="671.62" y="-204.5" font-family="Helvetica,sans-Serif" font-size="10.00">_exception&lt; utf_type</text>
<text xml:space="preserve" text-anchor="middle" x="720.75" y="-192.5" font-family="Helvetica,sans-Serif" font-size="10.00">::UTF_8 &gt;</text>
</a>
</g>
</g>
<!-- Node1&#45;&gt;Node5 -->
<g id="edge4_Node000001_Node000005" class="edge">
<title>Node1&#45;&gt;Node5</title>
<g id="a_edge4_Node000001_Node000005"><a xlink:title=" ">
<path fill="none" stroke="orange" stroke-dasharray="5,2" d="M503.48,-137.32C515.69,-144.61 529.77,-152.29 543.25,-158 582.1,-174.47 628.02,-187.28 663.28,-195.81"/>
<polygon fill="orange" stroke="orange" points="505.35,-134.37 494.99,-132.13 501.7,-140.34 505.35,-134.37"/>
</a>
</g>
<text xml:space="preserve" text-anchor="start" x="548.88" y="-196.04" font-family="Helvetica,sans-Serif" font-size="10.00" fill="grey">&lt; utf_type::UTF_8 &gt;</text>
</g>
<!-- Node6 -->
<g id="Node000006" class="node">
<title>Node6</title>
<g id="a_Node000006"><a xlink:href="../../d6/dfe/classpcre2cpp_1_1basic__regex__exception.html" target="_top" xlink:title=" ">
<polygon fill="white" stroke="#666666" points="777.88,-168 663.62,-168 663.62,-124 777.88,-124 777.88,-168"/>
<text xml:space="preserve" text-anchor="start" x="671.62" y="-154.5" font-family="Helvetica,sans-Serif" font-size="10.00">pcre2cpp::basic_regex</text>
<text xml:space="preserve" text-anchor="start" x="671.62" y="-142.5" font-family="Helvetica,sans-Serif" font-size="10.00">_exception&lt; utf_type</text>
<text xml:space="preserve" text-anchor="middle" x="720.75" y="-130.5" font-family="Helvetica,sans-Serif" font-size="10.00">::UTF_16 &gt;</text>
</a>
</g>
</g>
<!-- Node1&#45;&gt;Node6 -->
<g id="edge5_Node000001_Node000006" class="edge">
<title>Node1&#45;&gt;Node6</title>
<g id="a_edge5_Node000001_Node000006"><a xlink:title=" ">
<path fill="none" stroke="orange" stroke-dasharray="5,2" d="M537.1,-123.41C576.68,-128.3 625.99,-134.4 663.4,-139.03"/>
<polygon fill="orange" stroke="orange" points="537.54,-119.94 527.18,-122.18 536.68,-126.88 537.54,-119.94"/>
</a>
</g>
<text xml:space="preserve" text-anchor="start" x="546.25" y="-141.47" font-family="Helvetica,sans-Serif" font-size="10.00" fill="grey">&lt; utf_type::UTF_16 &gt;</text>
</g>
<!-- Node7 -->
<g id="Node000007" class="node">
<title>Node7</title>
<g id="a_Node000007"><a xlink:href="../../d6/dfe/classpcre2cpp_1_1basic__regex__exception.html" target="_top" xlink:title=" ">
<polygon fill="white" stroke="#666666" points="777.88,-106 663.62,-106 663.62,-62 777.88,-62 777.88,-106"/>
<text xml:space="preserve" text-anchor="start" x="671.62" y="-92.5" font-family="Helvetica,sans-Serif" font-size="10.00">pcre2cpp::basic_regex</text>
<text xml:space="preserve" text-anchor="start" x="671.62" y="-80.5" font-family="Helvetica,sans-Serif" font-size="10.00">_exception&lt; utf_type</text>
<text xml:space="preserve" text-anchor="middle" x="720.75" y="-68.5" font-family="Helvetica,sans-Serif" font-size="10.00">::UTF_32 &gt;</text>
</a>
</g>
</g>
<!-- Node1&#45;&gt;Node7 -->
<g id="edge6_Node000001_Node000007" class="edge">
<title>Node1&#45;&gt;Node7</title>
<g id="a_edge6_Node000001_Node000007"><a xlink:title=" ">
<path fill="none" stroke="orange" stroke-dasharray="5,2" d="M537.04,-103.86C539.13,-103.56 541.21,-103.28 543.25,-103 583.26,-97.61 628.54,-92.76 663.22,-89.31"/>
<polygon fill="orange" stroke="orange" points="536.62,-100.38 527.24,-105.3 537.64,-107.31 536.62,-100.38"/>
</a>
</g>
<text xml:space="preserve" text-anchor="start" x="546.25" y="-108.5" font-family="Helvetica,sans-Serif" font-size="10.00" fill="grey">&lt; utf_type::UTF_32 &gt;</text>
</g>
<!-- Node8 -->
<g id="Node000008" class="node">
<title>Node8</title>
<g id="a_Node000008"><a xlink:href="../../d6/dfe/classpcre2cpp_1_1basic__regex__exception.html" target="_top" xlink:title=" ">
<polygon fill="white" stroke="#666666" points="779.75,-44 661.75,-44 661.75,0 779.75,0 779.75,-44"/>
<text xml:space="preserve" text-anchor="start" x="669.75" y="-30.5" font-family="Helvetica,sans-Serif" font-size="10.00">pcre2cpp::basic_regex</text>
<text xml:space="preserve" text-anchor="start" x="669.75" y="-18.5" font-family="Helvetica,sans-Serif" font-size="10.00">_exception&lt; default_utf</text>
<text xml:space="preserve" text-anchor="middle" x="720.75" y="-6.5" font-family="Helvetica,sans-Serif" font-size="10.00">_type &gt;</text>
</a>
</g>
</g>
<!-- Node1&#45;&gt;Node8 -->
<g id="edge7_Node000001_Node000008" class="edge">
<title>Node1&#45;&gt;Node8</title>
<g id="a_edge7_Node000001_Node000008"><a xlink:title=" ">
<path fill="none" stroke="orange" stroke-dasharray="5,2" d="M500.76,-92.5C513.5,-84.21 528.63,-75.32 543.25,-69 581.24,-52.59 626.36,-40.69 661.47,-32.98"/>
<polygon fill="orange" stroke="orange" points="499.16,-89.35 492.79,-97.82 503.05,-95.18 499.16,-89.35"/>
</a>
</g>
<text xml:space="preserve" text-anchor="start" x="549.62" y="-74.5" font-family="Helvetica,sans-Serif" font-size="10.00" fill="grey">&lt; default_utf_type &gt;</text>
</g>
<!-- Node2 -->
<g id="Node000002" class="node">
<title>Node2</title>
<g id="a_Node000002"><a xlink:href="../../df/d62/classpcre2cpp_1_1basic__pcre2cpp__exception.html" target="_top" xlink:title="base pcre2cpp exception class">
<polygon fill="white" stroke="#666666" points="374,-131 244,-131 244,-99 374,-99 374,-131"/>
<text xml:space="preserve" text-anchor="start" x="252" y="-117.5" font-family="Helvetica,sans-Serif" font-size="10.00">pcre2cpp::basic_pcre2cpp</text>
<text xml:space="preserve" text-anchor="middle" x="309" y="-105.5" font-family="Helvetica,sans-Serif" font-size="10.00">_exception&lt; utf &gt;</text>
</a>
</g>
</g>
<!-- Node2&#45;&gt;Node1 -->
<g id="edge1_Node000001_Node000002" class="edge">
<title>Node2&#45;&gt;Node1</title>
<g id="a_edge1_Node000001_Node000002"><a xlink:title=" ">
<path fill="none" stroke="#63b8ff" d="M385.74,-115C394.14,-115 402.57,-115 410.66,-115"/>
<polygon fill="#63b8ff" stroke="#63b8ff" points="385.88,-111.5 375.88,-115 385.88,-118.5 385.88,-111.5"/>
</a>
</g>
</g>
<!-- Node3 -->
<g id="Node000003" class="node">
<title>Node3</title>
<g id="a_Node000003"><a xlink:title=" ">
<polygon fill="white" stroke="#666666" points="207,-125 114.5,-125 114.5,-105 207,-105 207,-125"/>
<text xml:space="preserve" text-anchor="middle" x="160.75" y="-111.5" font-family="Helvetica,sans-Serif" font-size="10.00">std::runtime_error</text>
</a>
</g>
</g>
<!-- Node3&#45;&gt;Node2 -->
<g id="edge2_Node000002_Node000003" class="edge">
<title>Node3&#45;&gt;Node2</title>
<g id="a_edge2_Node000002_Node000003"><a xlink:title=" ">
<path fill="none" stroke="#63b8ff" d="M218.63,-115C226.87,-115 235.39,-115 243.76,-115"/>
<polygon fill="#63b8ff" stroke="#63b8ff" points="218.74,-111.5 208.74,-115 218.74,-118.5 218.74,-111.5"/>
</a>
</g>
</g>
<!-- Node4 -->
<g id="Node000004" class="node">
<title>Node4</title>
<g id="a_Node000004"><a xlink:title=" ">
<polygon fill="white" stroke="#666666" points="77.5,-125 0,-125 0,-105 77.5,-105 77.5,-125"/>
<text xml:space="preserve" text-anchor="middle" x="38.75" y="-111.5" font-family="Helvetica,sans-Serif" font-size="10.00">std::exception</text>
</a>
</g>
</g>
<!-- Node4&#45;&gt;Node3 -->
<g id="edge3_Node000003_Node000004" class="edge">
<title>Node4&#45;&gt;Node3</title>
<g id="a_edge3_Node000003_Node000004"><a xlink:title=" ">
<path fill="none" stroke="#63b8ff" d="M89.12,-115C97.37,-115 105.89,-115 114.04,-115"/>
<polygon fill="#63b8ff" stroke="#63b8ff" points="89.23,-111.5 79.23,-115 89.23,-118.5 89.23,-111.5"/>
</a>
</g>
</g>
</g>
</svg>
